<?xml version="1.0" encoding="utf-8"?>
<!-- Generator: Adobe Illustrator 18.1.0, SVG Export Plug-In . SVG Version: 6.00 Build 0)  -->
<svg version="1.1" xmlns="http://www.w3.org/2000/svg" xmlns:xlink="http://www.w3.org/1999/xlink" x="0px" y="0px"
	 viewBox="0 0 196.4 182.5" enable-background="new 0 0 196.4 182.5" xml:space="preserve">
<g id="footer-top">
</g>
<g id="work-area">
</g>
<g id="header_1_">
</g>
<g id="booking">
	<g>
		<g>
			<g>
				<g>
					<path fill="#339200" d="M98.4,16c-3.3,0-5.8,2.7-5.8,6.1v7h11.7v-7C104.2,18.7,101.7,16,98.4,16z"/>
					<path fill="#339200" d="M98.4,33.3c-2.8,0-5.1,2.3-5.1,5.1c0,2.8,2.3,5.1,5.1,5.1c2.8,0,5.1-2.3,5.1-5.1
						C103.5,35.6,101.2,33.3,98.4,33.3z M98.9,38.3l0.5,3.7h-1.9l0.5-3.7c-0.8-0.2-1.3-0.9-1.3-1.8c0-1,0.8-1.8,1.8-1.8
						c1,0,1.8,0.8,1.8,1.8C100.2,37.4,99.6,38.1,98.9,38.3z"/>
					<path fill="#339200" d="M105.4,1.7C89.6-2.2,73.6,7.5,69.8,23.3C65.9,39.1,75.6,55.1,91.4,59c15.8,3.9,31.7-5.9,35.6-21.7
						C130.8,21.5,121.1,5.5,105.4,1.7z M110.1,46.2c0,0.9-5.2,1.7-11.7,1.7c-6.5,0-11.7-0.7-11.7-1.6V29.1h2.7v-7
						c0-5.1,3.9-9.3,9-9.3c5.1,0,9,4.2,9,9.3v7h2.7V46.2z"/>
				</g>
				<g>
					<path fill="#339200" d="M73.4,80c0-0.3-0.1-0.5-0.3-0.7c-0.2-0.2-0.5-0.4-0.8-0.5c-0.3-0.2-0.7-0.3-1.1-0.5
						c-0.4-0.2-0.7-0.4-1.1-0.6c-0.3-0.2-0.6-0.5-0.8-0.9c-0.2-0.4-0.3-0.8-0.3-1.4c0-0.5,0.1-0.9,0.2-1.2c0.2-0.4,0.4-0.6,0.7-0.9
						c0.3-0.2,0.6-0.4,1-0.5c0.4-0.1,0.9-0.2,1.3-0.2c0.6,0,1.1,0.1,1.6,0.1c0.5,0.1,0.9,0.2,1.3,0.4l-0.6,1.6
						c-0.2-0.1-0.5-0.3-0.9-0.4c-0.4-0.1-0.9-0.2-1.3-0.2c-0.4,0-0.8,0.1-1,0.3c-0.2,0.2-0.4,0.4-0.4,0.7c0,0.3,0.1,0.5,0.3,0.7
						c0.2,0.2,0.5,0.4,0.8,0.5c0.3,0.2,0.7,0.3,1.1,0.5c0.4,0.2,0.7,0.4,1.1,0.6c0.3,0.2,0.6,0.5,0.8,0.9c0.2,0.4,0.3,0.8,0.3,1.3
						c0,0.5-0.1,1-0.3,1.4c-0.2,0.4-0.4,0.7-0.7,0.9c-0.3,0.3-0.7,0.4-1.1,0.6c-0.4,0.1-0.9,0.2-1.5,0.2c-0.7,0-1.3-0.1-1.9-0.2
						c-0.5-0.1-0.9-0.3-1.2-0.4l0.6-1.6c0.1,0.1,0.2,0.1,0.4,0.2c0.2,0.1,0.3,0.1,0.6,0.2c0.2,0.1,0.4,0.1,0.7,0.1
						c0.2,0,0.5,0.1,0.7,0.1c0.6,0,1-0.1,1.3-0.3C73.3,80.7,73.4,80.4,73.4,80z"/>
					<path fill="#339200" d="M82.2,82c-0.3,0.2-0.7,0.4-1.1,0.6c-0.5,0.2-1,0.2-1.5,0.2c-1.1,0-2-0.3-2.5-1
						c-0.5-0.7-0.8-1.6-0.8-2.7c0-1.2,0.3-2.2,0.9-2.8c0.6-0.6,1.4-0.9,2.5-0.9c0.4,0,0.7,0,1,0.1c0.3,0.1,0.6,0.2,0.9,0.5
						c0.3,0.2,0.5,0.5,0.6,0.9c0.2,0.4,0.2,0.8,0.2,1.4c0,0.2,0,0.4,0,0.6c0,0.2-0.1,0.5-0.1,0.7h-4.2c0,0.6,0.2,1,0.5,1.3
						c0.3,0.3,0.7,0.4,1.3,0.4c0.4,0,0.7-0.1,1-0.2c0.3-0.1,0.5-0.2,0.7-0.4L82.2,82z M79.6,76.9c-0.5,0-0.8,0.1-1.1,0.4
						c-0.2,0.3-0.4,0.7-0.4,1.1h2.6c0-0.5,0-0.9-0.2-1.2C80.3,77,80,76.9,79.6,76.9z"/>
					<path fill="#339200" d="M89.6,82.6c0,1-0.3,1.8-0.8,2.3c-0.6,0.5-1.3,0.7-2.3,0.7c-0.7,0-1.2,0-1.6-0.1
						c-0.4-0.1-0.7-0.2-0.9-0.3l0.4-1.4c0.2,0.1,0.5,0.2,0.8,0.3c0.3,0.1,0.6,0.1,1.1,0.1c0.6,0,1.1-0.1,1.3-0.4
						c0.2-0.3,0.3-0.7,0.3-1.2v-0.4h-0.1c-0.3,0.4-0.9,0.7-1.7,0.7c-0.9,0-1.6-0.3-2-0.8c-0.4-0.6-0.7-1.4-0.7-2.6
						c0-1.3,0.3-2.2,0.9-2.9c0.6-0.6,1.5-1,2.6-1c0.6,0,1.1,0,1.6,0.1c0.5,0.1,0.9,0.2,1.2,0.3L89.6,82.6L89.6,82.6z M86.5,81.3
						c0.4,0,0.6-0.1,0.8-0.2s0.3-0.4,0.4-0.7v-3.2C87.5,77,87.1,77,86.7,77c-0.5,0-0.8,0.2-1.1,0.5c-0.3,0.4-0.4,0.9-0.4,1.7
						c0,0.7,0.1,1.2,0.3,1.6C85.7,81.1,86.1,81.3,86.5,81.3z"/>
					<path fill="#339200" d="M92.9,75.6v4c0,0.6,0.1,1,0.2,1.2c0.1,0.3,0.4,0.4,0.8,0.4c0.3,0,0.6-0.1,0.9-0.3
						c0.2-0.2,0.4-0.5,0.5-0.8v-4.5h1.8v4.9c0,0.4,0,0.8,0.1,1.1c0,0.4,0.1,0.7,0.2,1H96l-0.3-1h-0.1c-0.2,0.4-0.5,0.7-0.9,0.9
						c-0.4,0.2-0.8,0.4-1.4,0.4c-0.4,0-0.7,0-1-0.1c-0.3-0.1-0.5-0.2-0.7-0.5c-0.2-0.2-0.3-0.5-0.4-0.9c-0.1-0.4-0.1-0.8-0.1-1.4
						v-4.4L92.9,75.6L92.9,75.6z"/>
					<path fill="#339200" d="M102.6,77.3c-0.3-0.1-0.6-0.2-0.8-0.2c-0.3,0-0.6,0.1-0.8,0.3c-0.2,0.2-0.4,0.4-0.4,0.7v4.5h-1.8v-7
						h1.4l0.2,0.9h0.1c0.2-0.3,0.4-0.6,0.6-0.8c0.3-0.2,0.6-0.3,1-0.3c0.2,0,0.5,0.1,0.8,0.2L102.6,77.3z"/>
					<path fill="#339200" d="M103.5,73.6c0-0.3,0.1-0.5,0.3-0.7c0.2-0.2,0.5-0.3,0.8-0.3c0.4,0,0.6,0.1,0.9,0.3
						c0.2,0.2,0.3,0.4,0.3,0.7c0,0.3-0.1,0.5-0.3,0.7c-0.2,0.2-0.5,0.3-0.9,0.3c-0.4,0-0.6-0.1-0.8-0.3
						C103.6,74.1,103.5,73.9,103.5,73.6z M103.8,75.6h1.8v7h-1.8V75.6z"/>
					<path fill="#339200" d="M113.4,80.2c0,0.4,0,0.8,0,1.2c0,0.4,0.1,0.8,0.1,1.3h-1.3l-0.3-0.9h-0.1c-0.2,0.3-0.5,0.6-0.8,0.8
						c-0.4,0.2-0.8,0.3-1.2,0.3c-0.9,0-1.6-0.3-2-0.9c-0.5-0.6-0.7-1.5-0.7-2.7c0-1.2,0.3-2.1,0.8-2.8c0.5-0.7,1.3-1,2.4-1
						c0.3,0,0.5,0,0.7,0.1c0.2,0,0.4,0.1,0.6,0.2v-2.8h1.8V80.2L113.4,80.2z M110.3,81.3c0.4,0,0.6-0.1,0.8-0.3
						c0.2-0.2,0.4-0.4,0.4-0.8v-3c-0.1-0.1-0.3-0.2-0.4-0.2c-0.2-0.1-0.4-0.1-0.6-0.1c-0.5,0-0.9,0.2-1.2,0.5
						c-0.3,0.3-0.4,0.9-0.4,1.8c0,0.6,0.1,1.1,0.3,1.4C109.5,81.1,109.8,81.3,110.3,81.3z"/>
					<path fill="#339200" d="M115,76c0.4-0.2,0.8-0.3,1.3-0.4c0.5-0.1,1.1-0.1,1.6-0.1c0.5,0,0.9,0.1,1.2,0.2
						c0.3,0.1,0.6,0.3,0.8,0.5c0.2,0.2,0.3,0.5,0.4,0.8c0.1,0.3,0.1,0.6,0.1,1c0,0.4,0,0.8,0,1.2c0,0.4,0,0.8,0,1.2
						c0,0.4,0,0.8,0,1.2c0,0.4,0.1,0.7,0.2,1.1h-1.5l-0.3-1h-0.1c-0.2,0.3-0.4,0.5-0.8,0.8c-0.3,0.2-0.8,0.3-1.3,0.3
						c-0.3,0-0.6-0.1-0.9-0.1c-0.3-0.1-0.5-0.2-0.7-0.4c-0.2-0.2-0.3-0.4-0.4-0.6c-0.1-0.2-0.2-0.5-0.2-0.8c0-0.4,0.1-0.8,0.3-1.1
						c0.2-0.3,0.5-0.5,0.8-0.7c0.4-0.2,0.8-0.3,1.3-0.4c0.5-0.1,1.1-0.1,1.7-0.1c0.1-0.5,0-0.9-0.1-1.1c-0.1-0.2-0.5-0.3-0.9-0.3
						c-0.4,0-0.8,0-1.2,0.1c-0.4,0.1-0.7,0.2-1,0.3L115,76z M117.3,81.2c0.4,0,0.7-0.1,0.9-0.2c0.2-0.2,0.4-0.3,0.5-0.5v-0.9
						c-0.3,0-0.6,0-0.8,0c-0.3,0-0.5,0.1-0.7,0.1c-0.2,0.1-0.4,0.2-0.5,0.3c-0.1,0.1-0.2,0.3-0.2,0.5c0,0.3,0.1,0.5,0.2,0.6
						C116.8,81.2,117,81.2,117.3,81.2z"/>
					<path fill="#339200" d="M127.9,80.2c0,0.4,0,0.8,0,1.2c0,0.4,0.1,0.8,0.1,1.3h-1.3l-0.3-0.9h-0.1c-0.2,0.3-0.5,0.6-0.8,0.8
						c-0.4,0.2-0.8,0.3-1.2,0.3c-0.9,0-1.6-0.3-2-0.9c-0.5-0.6-0.7-1.5-0.7-2.7c0-1.2,0.3-2.1,0.8-2.8c0.5-0.7,1.3-1,2.4-1
						c0.3,0,0.5,0,0.7,0.1c0.2,0,0.4,0.1,0.6,0.2v-2.8h1.8L127.9,80.2L127.9,80.2z M124.8,81.3c0.4,0,0.6-0.1,0.8-0.3
						c0.2-0.2,0.4-0.4,0.4-0.8v-3c-0.1-0.1-0.3-0.2-0.4-0.2c-0.2-0.1-0.4-0.1-0.6-0.1c-0.5,0-0.9,0.2-1.2,0.5
						c-0.3,0.3-0.4,0.9-0.4,1.8c0,0.6,0.1,1.1,0.3,1.4C124,81.1,124.4,81.3,124.8,81.3z"/>
				</g>
			</g>
			<g>
				<g>
					<path fill="#005197" d="M42.8,33.4l0,0.1l-0.1,0c-0.3,0-0.5,0.2-0.5,0.4c0,0.2,0.2,0.4,0.5,0.4l0.1,0l0,0.1c0,0,0,0.1,0,0.1
						l2.3,0l0-1.3l-2.3,0C42.8,33.3,42.8,33.4,42.8,33.4z"/>
					<path fill="#005197" d="M41.4,36.4c0,0.2,0,0.6,0,1l3,0c0.4,0,0.7-0.3,0.7-0.7v-0.3L41.4,36.4z"/>
					<path fill="#005197" d="M42.8,34.8c-0.2,0.6-0.5,1.1-0.9,1.3h3.2v-1.3L42.8,34.8z"/>
					<path fill="#005197" d="M37,36.4l0,0.3c0,0.4,0.3,0.7,0.7,0.7l3.1,0c0-0.4,0-0.8,0-1L37,36.4L37,36.4z"/>
					<path fill="#005197" d="M37,34.6h2.4c0,0,0-0.1,0-0.1l0-0.1l0.1,0c0.3,0,0.5-0.2,0.5-0.4c0-0.2-0.2-0.4-0.5-0.4l-0.1,0l0-0.1
						c0-0.1,0-0.1,0-0.2H37V34.6z"/>
					<path fill="#005197" d="M37,36.1h3.4c-0.4-0.2-0.7-0.7-0.9-1.3H37V36.1z"/>
					<path fill="#005197" d="M40.5,31.7l-3.5,0l0,1.3h2.5C39.7,32.4,40,31.9,40.5,31.7z"/>
					<path fill="#005197" d="M45.1,31.7l-3.4,0c0.5,0.2,0.8,0.7,1,1.3l2.4,0L45.1,31.7z"/>
					<path fill="#005197" d="M40.8,31.4c0-0.2,0-0.5,0-0.8h-3.1c-0.4,0-0.7,0.3-0.7,0.7v0.1L40.8,31.4z"/>
					<path fill="#005197" d="M45.1,31.4L45.1,31.4c0-0.5-0.3-0.8-0.7-0.8h-3c0,0.3,0,0.6,0,0.8L45.1,31.4L45.1,31.4z"/>
					<path fill="#005197" d="M39.7,33.3c0.4,0.1,0.6,0.3,0.6,0.6c0,0.3-0.3,0.6-0.6,0.6c0.2,0.9,0.7,1.5,1.3,1.5H41l0,1.4l0.1,0
						l0-1.4h0.1c0.6,0,1.1-0.6,1.3-1.5C42.2,34.5,42,34.3,42,34c0-0.3,0.3-0.6,0.6-0.6c-0.2-0.9-0.7-1.5-1.3-1.5h-0.1l0-1.2h-0.1
						l0,1.2l-0.1,0C40.3,31.9,39.8,32.5,39.7,33.3z"/>
					<path fill="#005197" d="M47,6.1c-13.3-9.3-31.7-5.9-41,7.5s-5.9,31.8,7.4,41c13.3,9.3,31.7,5.9,41-7.5
						C63.7,33.7,60.4,15.3,47,6.1z M47.7,40.7c0,0.6-0.5,1.1-1.1,1.1H13.9c-0.6,0-1.1-0.5-1.1-1.1v-14h34.9L47.7,40.7L47.7,40.7z
						 M47.7,22H12.8v-2c0-0.6,0.5-1.1,1.1-1.1h32.6c0.6,0,1.1,0.5,1.1,1.1L47.7,22L47.7,22z"/>
				</g>
				<g>
					<path fill="#005197" d="M27.5,77.5l0.2-2h-0.1L27,77.2l-2.1,3.7h-0.6l-2.2-3.7l-0.6-1.6h-0.1l0.3,1.9v5.1h-1.8v-9.8h1.8
						l2.6,4.5l0.5,1.1h0.1l0.4-1.2l2.5-4.5h1.7v9.8h-1.9L27.5,77.5L27.5,77.5L27.5,77.5z"/>
					<path fill="#005197" d="M35.3,80c0-0.3-0.1-0.5-0.3-0.7c-0.2-0.2-0.5-0.4-0.8-0.5c-0.3-0.2-0.7-0.3-1.1-0.5
						c-0.4-0.2-0.7-0.4-1.1-0.6c-0.3-0.2-0.6-0.5-0.8-0.9c-0.2-0.4-0.3-0.8-0.3-1.4c0-0.5,0.1-0.9,0.2-1.2c0.2-0.4,0.4-0.6,0.7-0.9
						c0.3-0.2,0.6-0.4,1-0.5c0.4-0.1,0.9-0.2,1.3-0.2c0.6,0,1.1,0.1,1.6,0.1c0.5,0.1,0.9,0.2,1.3,0.4l-0.6,1.6
						c-0.2-0.1-0.5-0.3-0.9-0.4c-0.4-0.1-0.9-0.2-1.3-0.2c-0.4,0-0.8,0.1-1,0.3c-0.2,0.2-0.4,0.4-0.4,0.7c0,0.3,0.1,0.5,0.3,0.7
						c0.2,0.2,0.5,0.4,0.8,0.5c0.3,0.2,0.7,0.3,1.1,0.5c0.4,0.2,0.7,0.4,1.1,0.6c0.3,0.2,0.6,0.5,0.8,0.9c0.2,0.4,0.3,0.8,0.3,1.3
						c0,0.5-0.1,1-0.3,1.4c-0.2,0.4-0.4,0.7-0.7,0.9c-0.3,0.3-0.7,0.4-1.1,0.6c-0.4,0.1-0.9,0.2-1.5,0.2c-0.7,0-1.3-0.1-1.9-0.2
						c-0.5-0.1-0.9-0.3-1.2-0.4l0.6-1.6c0.1,0.1,0.2,0.1,0.4,0.2c0.2,0.1,0.3,0.1,0.6,0.2c0.2,0.1,0.4,0.1,0.7,0.1
						c0.2,0,0.5,0.1,0.7,0.1c0.6,0,1-0.1,1.3-0.3C35.2,80.7,35.3,80.4,35.3,80z"/>
					<path fill="#005197" d="M38.7,72.8h1.9v9.8h-1.9V72.8z"/>
				</g>
			</g>
			<g>
				<g>
					<path fill="#F080B8" d="M166.8,17.4c0-0.2-0.2-0.3-0.3-0.4l-0.1,0v0.8C166.5,17.8,166.8,17.7,166.8,17.4z"/>
					<circle fill="#F080B8" cx="154.9" cy="28.1" r="1.1"/>
					<path fill="#F080B8" d="M166,15.4c-0.2,0-0.4,0.1-0.4,0.4c0,0.3,0.3,0.3,0.4,0.4V15.4z"/>
					<path fill="#F080B8" d="M165.4,19.8c1.7,0.4,3.5-0.6,3.9-2.4c0.4-1.7-0.6-3.5-2.4-3.9c-1.7-0.4-3.5,0.6-3.9,2.4
						C162.6,17.6,163.6,19.4,165.4,19.8z M165.6,16.8c-0.5-0.2-0.8-0.4-0.8-1c0-0.7,0.6-1.1,1.2-1.1v-0.4h0.3v0.4
						c0.4,0,0.8,0.1,1.1,0.3l-0.5,0.6c-0.2-0.1-0.4-0.2-0.6-0.2v0.8l0.5,0.1c0.5,0.1,0.8,0.5,0.8,0.9c0,0.7-0.6,1.1-1.3,1.2v0.4H166
						v-0.4c-0.5,0-0.9-0.1-1.3-0.4l0.6-0.6c0.2,0.2,0.5,0.3,0.7,0.3v-0.9L165.6,16.8z"/>
					<path fill="#F080B8" d="M167.9,32.1l-1.1-0.3v-1.9c0.5,0,1,0.2,1.4,0.5l1.1-1.4c-0.7-0.5-1.7-0.7-2.5-0.7l0-0.8H166v0.8
						c-1.4,0.2-2.7,1.1-2.7,2.6c0,1.2,0.6,1.8,1.8,2.2l0.9,0.3v2c-0.6,0-1.3-0.2-1.7-0.7l-1.3,1.4c0.8,0.7,1.9,1,2.9,1v0.8h0.8v-0.8
						c1.6-0.2,2.9-1,2.9-2.7C169.6,33.1,169,32.4,167.9,32.1z M166,31.6c-0.2-0.1-0.9-0.1-0.9-0.9c0-0.5,0.4-0.7,0.9-0.8V31.6z
						 M166.8,35.3v-1.8l0.2,0.1c0.4,0.2,0.8,0.3,0.8,0.8C167.8,34.9,167.3,35.2,166.8,35.3z"/>
					<path fill="#F080B8" d="M166.1,0.8c-16.2,0-29.4,13.2-29.4,29.5c0,16.3,13.2,29.5,29.4,29.5c16.2,0,29.4-13.2,29.4-29.5
						C195.6,14.1,182.4,0.8,166.1,0.8z M162.4,15.7c0.5-2.1,2.6-3.4,4.7-2.9c2.1,0.5,3.4,2.6,2.9,4.7c-0.5,2.1-2.6,3.4-4.7,2.9
						C163.1,19.9,161.9,17.8,162.4,15.7z M181.5,34.8c0,0-0.1,0-0.1,0c-0.5,3.6-2.2,6.2-5.4,8.2l-0.9,3.5c-0.2,0.7-0.9,1.4-1.5,1.4
						h-2.5c-0.7,0-1.4-0.7-1.5-1.4l-0.2-1.1c-0.8,0.1-2.3,0.2-3.2,0.2c-0.9,0-2.4,0-3.2-0.2l-0.2,1c-0.2,0.7-0.9,1.4-1.5,1.4h-2.5
						c-0.7,0-1.4-0.7-1.5-1.4l-0.9-3.5c-1.8-1.1-2.7-2.1-3.8-3.9c-0.1,0-0.2,0-0.3-0.1l-2.5-1c-0.6-0.2-0.9-1-0.9-1.7v-6.3
						c0-0.7,0.3-1.5,0.9-1.7l2.4-1c0.1,0,0.2-0.1,0.2-0.1c0.5-0.9,1.1-1.7,1.8-2.5c0.1-0.1,0.1-0.1,0.2-0.2l0-2.7
						c0-0.5,0.3-0.9,0.7-0.9c0.1,0,0.3,0,0.5,0.1l1.9,0.9c0.1-0.1,0.2-0.1,0.2-0.1c1.3-0.9,2.8-1.5,4.3-2l0,0c0,0,0.3-0.1,0.9-0.2
						c0.4,0.4,0.8,0.8,1.3,1.1c-0.5,0.1-0.8,0.2-0.9,0.2c-0.6,0.2-1,0.4-1,0.4c-0.3,0.2-0.5,0.6-0.3,0.9c0.2,0.3,0.6,0.4,0.9,0.3
						c0,0,3.7-1.9,7.6,0c0.1,0,0.2,0.1,0.3,0.1c0.2,0,0.5-0.1,0.6-0.4c0.2-0.3,0-0.7-0.3-0.9c-0.2-0.1-0.5-0.2-0.7-0.3
						c-0.1,0-0.7-0.2-1.6-0.3c0.5-0.3,0.9-0.6,1.3-1.1c0.8,0.2,1.3,0.4,1.3,0.4v0c5.2,1.7,9.1,5.8,10.2,10.4c0.1,0,0.2,0,0.3,0
						c1.2,0,2.2,1,2.2,2.2C183.7,33.8,182.7,34.8,181.5,34.8z"/>
				</g>
				<g>
					<path fill="#F080B8" d="M151.5,80.5h-3l-0.7,2.2h-1.9l3.5-9.9h1.4l3.5,9.9h-2L151.5,80.5z M149,78.9h2.1l-0.7-2.2l-0.3-1.5H150
						l-0.3,1.6L149,78.9z"/>
					<path fill="#F080B8" d="M159.4,82.6v-4c0-0.6-0.1-1-0.2-1.2c-0.2-0.3-0.4-0.4-0.9-0.4c-0.3,0-0.6,0.1-0.9,0.3
						c-0.3,0.2-0.4,0.5-0.5,0.8v4.5h-1.8v-9.8h1.8v3.6h0.1c0.2-0.3,0.5-0.5,0.8-0.7c0.3-0.2,0.7-0.3,1.2-0.3c0.4,0,0.7,0,0.9,0.1
						c0.3,0.1,0.5,0.2,0.7,0.5c0.2,0.2,0.3,0.5,0.4,0.9c0.1,0.4,0.1,0.8,0.1,1.4v4.4L159.4,82.6L159.4,82.6L159.4,82.6z"/>
					<path fill="#F080B8" d="M162.4,79.1c0-1.2,0.3-2.1,0.9-2.7c0.6-0.6,1.4-1,2.4-1c0.6,0,1,0.1,1.5,0.3c0.4,0.2,0.8,0.4,1,0.8
						c0.3,0.3,0.5,0.7,0.6,1.2c0.1,0.5,0.2,1,0.2,1.5c0,1.2-0.3,2.1-0.9,2.7c-0.6,0.6-1.4,1-2.4,1c-0.6,0-1-0.1-1.5-0.3
						c-0.4-0.2-0.8-0.4-1-0.8c-0.3-0.3-0.5-0.7-0.6-1.2C162.5,80.2,162.4,79.7,162.4,79.1z M164.3,79.1c0,0.3,0,0.6,0.1,0.9
						c0.1,0.3,0.1,0.5,0.3,0.7c0.1,0.2,0.3,0.3,0.4,0.5c0.2,0.1,0.4,0.2,0.7,0.2c0.5,0,0.8-0.2,1.1-0.5c0.2-0.3,0.4-0.9,0.4-1.6
						c0-0.6-0.1-1.2-0.3-1.6c-0.2-0.4-0.6-0.6-1.1-0.6c-0.4,0-0.8,0.2-1.1,0.5C164.5,77.8,164.3,78.3,164.3,79.1z"/>
					<path fill="#F080B8" d="M174.2,77.3c-0.3-0.1-0.6-0.2-0.8-0.2c-0.3,0-0.6,0.1-0.8,0.3c-0.2,0.2-0.4,0.4-0.4,0.7v4.5h-1.8v-7
						h1.4l0.2,0.9h0.1c0.2-0.3,0.4-0.6,0.6-0.8c0.3-0.2,0.6-0.3,1-0.3c0.2,0,0.5,0.1,0.8,0.2L174.2,77.3z"/>
					<path fill="#F080B8" d="M179.1,77.3c-0.3-0.1-0.6-0.2-0.8-0.2c-0.3,0-0.6,0.1-0.8,0.3c-0.2,0.2-0.4,0.4-0.4,0.7v4.5h-1.8v-7
						h1.4l0.2,0.9h0.1c0.2-0.3,0.4-0.6,0.6-0.8c0.3-0.2,0.6-0.3,1-0.3c0.2,0,0.5,0.1,0.8,0.2L179.1,77.3z"/>
					<path fill="#F080B8" d="M179.8,79.1c0-1.2,0.3-2.1,0.9-2.7c0.6-0.6,1.4-1,2.4-1c0.6,0,1,0.1,1.5,0.3c0.4,0.2,0.8,0.4,1,0.8
						c0.3,0.3,0.5,0.7,0.6,1.2c0.1,0.5,0.2,1,0.2,1.5c0,1.2-0.3,2.1-0.9,2.7c-0.6,0.6-1.4,1-2.4,1c-0.6,0-1.1-0.1-1.5-0.3
						c-0.4-0.2-0.8-0.4-1-0.8c-0.3-0.3-0.5-0.7-0.6-1.2C179.9,80.2,179.8,79.7,179.8,79.1z M181.7,79.1c0,0.3,0,0.6,0.1,0.9
						c0.1,0.3,0.1,0.5,0.3,0.7c0.1,0.2,0.3,0.3,0.4,0.5c0.2,0.1,0.4,0.2,0.7,0.2c0.5,0,0.8-0.2,1.1-0.5c0.2-0.3,0.4-0.9,0.4-1.6
						c0-0.6-0.1-1.2-0.3-1.6c-0.2-0.4-0.6-0.6-1.1-0.6c-0.4,0-0.8,0.2-1.1,0.5C181.9,77.8,181.7,78.3,181.7,79.1z"/>
				</g>
			</g>
		</g>
		<g>
			<g>
				<g>
					<path fill="#D80980" d="M71.2,100.5c-15.8-3.9-31.7,5.9-35.6,21.7c-3.8,15.8,5.9,31.8,21.6,35.6C73,161.7,89,152,92.8,136.2
						C96.7,120.4,87,104.4,71.2,100.5z M56.7,136.2H52l-5.3-14h4.5l3.1,10l3.1-10h4.4L56.7,136.2z M67.3,136.2H63v-14h4.3
						L67.3,136.2L67.3,136.2z M80.4,129.8c-0.8,0.8-2.1,1.2-3.8,1.2h-2.3v5.2h-4.3v-14H77c1.6,0,2.7,0.4,3.5,1.1
						c0.8,0.7,1.2,1.8,1.2,3.2C81.7,127.9,81.2,129,80.4,129.8z"/>
					<path fill="#D80980" d="M75.4,125h-1.2v3.1h1c0.8,0,1.4-0.1,1.7-0.4c0.3-0.3,0.5-0.7,0.5-1.1c0-0.4-0.1-0.8-0.4-1.1
						C76.7,125.2,76.2,125,75.4,125z"/>
				</g>
				<g>
					<path fill="#D80980" d="M45.7,178.8c0-0.3-0.1-0.5-0.3-0.7c-0.2-0.2-0.5-0.4-0.8-0.5c-0.3-0.2-0.7-0.3-1.1-0.5
						c-0.4-0.2-0.7-0.4-1.1-0.6c-0.3-0.2-0.6-0.5-0.8-0.9c-0.2-0.4-0.3-0.8-0.3-1.4c0-0.5,0.1-0.9,0.2-1.2c0.2-0.4,0.4-0.6,0.7-0.9
						c0.3-0.2,0.6-0.4,1-0.5c0.4-0.1,0.9-0.2,1.3-0.2c0.6,0,1.1,0.1,1.6,0.1c0.5,0.1,0.9,0.2,1.3,0.4l-0.6,1.6
						c-0.2-0.1-0.5-0.3-0.9-0.4c-0.4-0.1-0.9-0.2-1.3-0.2c-0.4,0-0.8,0.1-1,0.3c-0.2,0.2-0.4,0.4-0.4,0.7c0,0.3,0.1,0.5,0.3,0.7
						c0.2,0.2,0.5,0.4,0.8,0.5c0.3,0.2,0.7,0.3,1.1,0.5c0.4,0.2,0.7,0.4,1.1,0.6c0.3,0.2,0.6,0.5,0.8,0.9c0.2,0.4,0.3,0.8,0.3,1.3
						c0,0.5-0.1,1-0.3,1.4c-0.2,0.4-0.4,0.7-0.7,0.9c-0.3,0.3-0.7,0.4-1.1,0.6c-0.4,0.1-0.9,0.2-1.5,0.2c-0.7,0-1.3-0.1-1.9-0.2
						c-0.5-0.1-0.9-0.3-1.2-0.4l0.6-1.6c0.1,0.1,0.2,0.1,0.4,0.2c0.2,0.1,0.3,0.1,0.6,0.2c0.2,0.1,0.4,0.1,0.7,0.1
						c0.2,0,0.5,0.1,0.7,0.1c0.6,0,1-0.1,1.3-0.3C45.5,179.5,45.7,179.2,45.7,178.8z"/>
					<path fill="#D80980" d="M54.4,180.9c-0.3,0.2-0.7,0.4-1.1,0.6c-0.5,0.2-1,0.2-1.5,0.2c-1.1,0-2-0.3-2.5-1
						c-0.5-0.7-0.8-1.6-0.8-2.7c0-1.2,0.3-2.2,0.9-2.8c0.6-0.6,1.4-0.9,2.5-0.9c0.4,0,0.7,0,1,0.1c0.3,0.1,0.6,0.2,0.9,0.5
						c0.3,0.2,0.5,0.5,0.6,0.9c0.2,0.4,0.2,0.8,0.2,1.4c0,0.2,0,0.4,0,0.6c0,0.2-0.1,0.5-0.1,0.7h-4.2c0,0.6,0.2,1,0.5,1.3
						c0.3,0.3,0.7,0.4,1.3,0.4c0.4,0,0.7-0.1,1-0.2s0.5-0.2,0.7-0.4L54.4,180.9z M51.8,175.7c-0.5,0-0.8,0.1-1.1,0.4
						c-0.2,0.3-0.4,0.7-0.4,1.1H53c0-0.5,0-0.9-0.2-1.2C52.5,175.9,52.2,175.7,51.8,175.7z"/>
					<path fill="#D80980" d="M59.8,176.2c-0.3-0.1-0.6-0.2-0.8-0.2c-0.3,0-0.6,0.1-0.8,0.3c-0.2,0.2-0.4,0.4-0.4,0.7v4.5h-1.8v-7
						h1.4l0.2,0.9h0.1c0.2-0.3,0.4-0.6,0.6-0.8c0.3-0.2,0.6-0.3,1-0.3c0.2,0,0.5,0.1,0.8,0.2L59.8,176.2z"/>
					<path fill="#D80980" d="M63.3,178.1l0.2,1.1h0.1l0.2-1.1l1.2-3.7h2l-2.9,7.1h-1.1l-3-7.1H62L63.3,178.1z"/>
					<path fill="#D80980" d="M67.5,172.5c0-0.3,0.1-0.5,0.3-0.7c0.2-0.2,0.5-0.3,0.8-0.3s0.6,0.1,0.9,0.3c0.2,0.2,0.3,0.4,0.3,0.7
						c0,0.3-0.1,0.5-0.3,0.7c-0.2,0.2-0.5,0.3-0.9,0.3s-0.6-0.1-0.8-0.3C67.6,173,67.5,172.7,67.5,172.5z M67.7,174.5h1.8v7h-1.8
						V174.5z"/>
					<path fill="#D80980" d="M76.3,181c-0.3,0.2-0.6,0.4-1,0.5c-0.4,0.1-0.8,0.2-1.2,0.2c-0.6,0-1-0.1-1.4-0.3
						c-0.4-0.2-0.7-0.4-0.9-0.8c-0.2-0.3-0.4-0.7-0.5-1.2c-0.1-0.5-0.2-1-0.2-1.5c0-1.2,0.3-2.1,0.8-2.7c0.5-0.6,1.3-1,2.3-1
						c0.5,0,0.9,0,1.2,0.1c0.3,0.1,0.6,0.2,0.8,0.3l-0.4,1.5c-0.2-0.1-0.4-0.2-0.6-0.2c-0.2-0.1-0.5-0.1-0.7-0.1
						c-0.5,0-0.9,0.2-1.2,0.5c-0.3,0.3-0.4,0.9-0.4,1.6c0,0.3,0,0.6,0.1,0.8c0.1,0.3,0.2,0.5,0.3,0.7c0.1,0.2,0.3,0.3,0.5,0.4
						c0.2,0.1,0.5,0.2,0.7,0.2c0.3,0,0.6,0,0.8-0.1c0.2-0.1,0.4-0.2,0.6-0.3L76.3,181z"/>
					<path fill="#D80980" d="M77.3,172.5c0-0.3,0.1-0.5,0.3-0.7c0.2-0.2,0.5-0.3,0.8-0.3s0.6,0.1,0.9,0.3c0.2,0.2,0.3,0.4,0.3,0.7
						c0,0.3-0.1,0.5-0.3,0.7c-0.2,0.2-0.5,0.3-0.9,0.3s-0.6-0.1-0.8-0.3C77.4,173,77.3,172.7,77.3,172.5z M77.6,174.5h1.8v7h-1.8
						V174.5z"/>
					<path fill="#D80980" d="M80.9,178c0-1.2,0.3-2.1,0.9-2.7c0.6-0.6,1.4-1,2.4-1c0.6,0,1.1,0.1,1.5,0.3c0.4,0.2,0.8,0.4,1,0.8
						c0.3,0.3,0.5,0.7,0.6,1.2c0.1,0.5,0.2,1,0.2,1.5c0,1.2-0.3,2.1-0.9,2.7c-0.6,0.6-1.4,1-2.4,1c-0.6,0-1-0.1-1.5-0.3
						c-0.4-0.2-0.8-0.4-1-0.8c-0.3-0.3-0.5-0.7-0.6-1.2C80.9,179,80.9,178.5,80.9,178z M82.8,178c0,0.3,0,0.6,0.1,0.9
						c0.1,0.3,0.1,0.5,0.3,0.7c0.1,0.2,0.3,0.3,0.4,0.5c0.2,0.1,0.4,0.2,0.7,0.2c0.5,0,0.8-0.2,1.1-0.5c0.2-0.3,0.4-0.9,0.4-1.6
						c0-0.6-0.1-1.2-0.3-1.6c-0.2-0.4-0.6-0.6-1.1-0.6c-0.4,0-0.8,0.2-1.1,0.5C82.9,176.6,82.8,177.2,82.8,178z"/>
				</g>
			</g>
			<g>
				<g>
					<path fill="#0097D9" d="M111.1,176.4h3.7v4.4c-0.4,0.3-0.9,0.6-1.4,0.7c-0.5,0.2-1.1,0.2-1.6,0.2c-0.6,0-1.2-0.1-1.7-0.3
						c-0.5-0.2-1-0.5-1.4-0.9c-0.4-0.4-0.7-0.9-0.9-1.6c-0.2-0.6-0.3-1.4-0.3-2.3c0-0.9,0.1-1.7,0.4-2.4c0.3-0.6,0.6-1.2,1.1-1.6
						c0.4-0.4,0.9-0.7,1.5-0.9c0.5-0.2,1.1-0.3,1.7-0.3c0.6,0,1.1,0,1.5,0.1c0.4,0.1,0.8,0.2,1,0.3l-0.4,1.6
						c-0.2-0.1-0.5-0.2-0.8-0.2c-0.3-0.1-0.7-0.1-1.1-0.1c-0.4,0-0.8,0.1-1.1,0.2c-0.3,0.1-0.6,0.3-0.9,0.6
						c-0.2,0.3-0.4,0.6-0.6,1.1c-0.1,0.4-0.2,1-0.2,1.6c0,0.6,0.1,1.1,0.2,1.5c0.1,0.4,0.3,0.8,0.5,1.1c0.2,0.3,0.5,0.5,0.8,0.6
						c0.3,0.1,0.6,0.2,1,0.2c0.2,0,0.5,0,0.7-0.1c0.2-0.1,0.4-0.2,0.6-0.3v-1.9l-2.1-0.2L111.1,176.4L111.1,176.4z"/>
					<path fill="#0097D9" d="M116.1,174.9c0.4-0.2,0.8-0.3,1.3-0.4c0.5-0.1,1.1-0.1,1.6-0.1c0.5,0,0.9,0.1,1.2,0.2
						c0.3,0.1,0.6,0.3,0.8,0.5c0.2,0.2,0.3,0.5,0.4,0.8c0.1,0.3,0.1,0.6,0.1,1c0,0.4,0,0.8,0,1.2c0,0.4,0,0.8-0.1,1.2
						c0,0.4,0,0.8,0,1.2c0,0.4,0.1,0.7,0.2,1.1h-1.5l-0.3-1h-0.1c-0.2,0.3-0.4,0.5-0.8,0.8c-0.3,0.2-0.8,0.3-1.3,0.3
						c-0.3,0-0.6-0.1-0.9-0.1c-0.3-0.1-0.5-0.2-0.7-0.4c-0.2-0.2-0.3-0.4-0.4-0.6c-0.1-0.2-0.2-0.5-0.2-0.8c0-0.4,0.1-0.8,0.3-1.1
						c0.2-0.3,0.5-0.5,0.8-0.7c0.4-0.2,0.8-0.3,1.3-0.4c0.5-0.1,1.1-0.1,1.7-0.1c0.1-0.5,0-0.9-0.1-1.1c-0.1-0.2-0.5-0.3-0.9-0.3
						c-0.4,0-0.7,0-1.2,0.1c-0.4,0.1-0.7,0.2-1,0.3L116.1,174.9z M118.5,180.1c0.4,0,0.7-0.1,0.9-0.2c0.2-0.2,0.4-0.3,0.5-0.5v-0.9
						c-0.3,0-0.6,0-0.8,0c-0.3,0-0.5,0.1-0.7,0.1c-0.2,0.1-0.4,0.2-0.5,0.3c-0.1,0.1-0.2,0.3-0.2,0.5c0,0.3,0.1,0.5,0.2,0.6
						C118,180,118.2,180.1,118.5,180.1z"/>
					<path fill="#0097D9" d="M127,176.2c-0.3-0.1-0.6-0.2-0.8-0.2c-0.3,0-0.6,0.1-0.8,0.3s-0.4,0.4-0.4,0.7v4.5h-1.8v-7h1.4l0.2,0.9
						h0.1c0.2-0.3,0.4-0.6,0.6-0.8c0.3-0.2,0.6-0.3,1-0.3c0.2,0,0.5,0.1,0.8,0.2L127,176.2z"/>
					<path fill="#0097D9" d="M128,174.9c0.4-0.2,0.8-0.3,1.3-0.4c0.5-0.1,1.1-0.1,1.6-0.1c0.5,0,0.9,0.1,1.2,0.2
						c0.3,0.1,0.6,0.3,0.8,0.5c0.2,0.2,0.3,0.5,0.4,0.8c0.1,0.3,0.1,0.6,0.1,1c0,0.4,0,0.8,0,1.2c0,0.4,0,0.8,0,1.2
						c0,0.4,0,0.8,0,1.2c0,0.4,0.1,0.7,0.2,1.1h-1.5l-0.3-1h-0.1c-0.2,0.3-0.4,0.5-0.8,0.8c-0.3,0.2-0.8,0.3-1.3,0.3
						c-0.3,0-0.6-0.1-0.9-0.1c-0.3-0.1-0.5-0.2-0.7-0.4c-0.2-0.2-0.3-0.4-0.4-0.6c-0.1-0.2-0.2-0.5-0.2-0.8c0-0.4,0.1-0.8,0.3-1.1
						c0.2-0.3,0.5-0.5,0.8-0.7c0.4-0.2,0.8-0.3,1.3-0.4c0.5-0.1,1.1-0.1,1.7-0.1c0.1-0.5,0-0.9-0.1-1.1c-0.1-0.2-0.5-0.3-0.9-0.3
						c-0.4,0-0.8,0-1.2,0.1c-0.4,0.1-0.7,0.2-1,0.3L128,174.9z M130.4,180.1c0.4,0,0.7-0.1,0.9-0.2c0.2-0.2,0.4-0.3,0.5-0.5v-0.9
						c-0.3,0-0.6,0-0.8,0c-0.3,0-0.5,0.1-0.7,0.1c-0.2,0.1-0.4,0.2-0.5,0.3c-0.1,0.1-0.2,0.3-0.2,0.5c0,0.3,0.1,0.5,0.2,0.6
						C129.9,180,130.1,180.1,130.4,180.1z"/>
					<path fill="#0097D9" d="M139.3,181.5v-4c0-0.6-0.1-1-0.2-1.2c-0.2-0.3-0.4-0.4-0.8-0.4c-0.3,0-0.6,0.1-0.9,0.3
						c-0.2,0.2-0.4,0.5-0.5,0.8v4.5H135v-7h1.4l0.2,0.9h0.1c0.2-0.3,0.5-0.6,0.9-0.8c0.4-0.2,0.8-0.3,1.4-0.3c0.3,0,0.7,0,0.9,0.1
						c0.3,0.1,0.5,0.2,0.7,0.5c0.2,0.2,0.3,0.5,0.4,0.9c0.1,0.4,0.1,0.8,0.1,1.4v4.4L139.3,181.5L139.3,181.5L139.3,181.5z"/>
					<path fill="#0097D9" d="M142,174.5h1v-1.3l1.8-0.5v1.8h1.7v1.5h-1.7v2.7c0,0.5,0,0.8,0.1,1c0.1,0.2,0.3,0.3,0.6,0.3
						c0.2,0,0.3,0,0.5-0.1c0.1,0,0.3-0.1,0.5-0.2l0.3,1.4c-0.3,0.1-0.5,0.2-0.9,0.3c-0.3,0.1-0.7,0.1-1,0.1c-0.6,0-1.1-0.2-1.4-0.5
						c-0.3-0.3-0.5-0.9-0.5-1.6V176h-1L142,174.5L142,174.5z"/>
					<path fill="#0097D9" d="M147.8,174.5h1.8v7h-1.8V174.5z M148.5,171.4h1.9v0.4l-1.6,1.7h-1L148.5,171.4z"/>
					<path fill="#0097D9" d="M151.3,174.9c0.4-0.2,0.8-0.3,1.3-0.4c0.5-0.1,1.1-0.1,1.6-0.1c0.5,0,0.9,0.1,1.2,0.2
						c0.3,0.1,0.6,0.3,0.8,0.5c0.2,0.2,0.3,0.5,0.4,0.8c0.1,0.3,0.1,0.6,0.1,1c0,0.4,0,0.8,0,1.2c0,0.4,0,0.8,0,1.2
						c0,0.4,0,0.8,0,1.2c0,0.4,0.1,0.7,0.2,1.1h-1.5l-0.3-1h-0.1c-0.2,0.3-0.4,0.5-0.8,0.8c-0.3,0.2-0.8,0.3-1.3,0.3
						c-0.3,0-0.6-0.1-0.9-0.1c-0.3-0.1-0.5-0.2-0.7-0.4c-0.2-0.2-0.3-0.4-0.4-0.6c-0.1-0.2-0.2-0.5-0.2-0.8c0-0.4,0.1-0.8,0.3-1.1
						c0.2-0.3,0.5-0.5,0.8-0.7c0.4-0.2,0.8-0.3,1.3-0.4c0.5-0.1,1.1-0.1,1.7-0.1c0.1-0.5,0-0.9-0.1-1.1c-0.1-0.2-0.5-0.3-0.9-0.3
						c-0.4,0-0.8,0-1.2,0.1c-0.4,0.1-0.7,0.2-1,0.3L151.3,174.9z M153.7,180.1c0.4,0,0.7-0.1,0.9-0.2s0.4-0.3,0.5-0.5v-0.9
						c-0.3,0-0.6,0-0.8,0c-0.3,0-0.5,0.1-0.7,0.1c-0.2,0.1-0.4,0.2-0.5,0.3c-0.1,0.1-0.2,0.3-0.2,0.5c0,0.3,0.1,0.5,0.2,0.6
						C153.2,180,153.4,180.1,153.7,180.1z"/>
				</g>
				<g>
					<path fill="#0097D9" d="M120.7,156.3c-15-6.3-22-23.6-15.7-38.6c6.3-15,23.6-22,38.6-15.7c15,6.3,22,23.6,15.7,38.6
						C153,155.6,135.7,162.6,120.7,156.3z"/>
					<g>
						<polygon fill="#FFC500" points="131.5,112.7 129.1,116.7 125.2,113.8 124.5,118.6 119.7,117.4 120.9,122.1 116.1,122.8 
							119,126.7 114.8,129.2 119,131.6 116.1,135.5 120.9,136.2 119.7,140.9 124.5,139.7 125.2,144.6 129.1,141.6 131.5,145.6 
													"/>
						<path fill="#FFFFFF" d="M131.5,116.9c-6.8,0.1-12.3,5.5-12.3,12.2c0,6.7,5.5,12.2,12.2,12.2L131.5,116.9z"/>
						<path fill="#FFE700" d="M131.5,118.3c-6,0.1-10.9,4.9-10.9,10.9c0,6,4.9,10.8,10.9,10.9V118.3L131.5,118.3z"/>
						<g>
							<path fill="#ACDCE7" d="M147.5,125.5c0.1-0.4,0.2-0.9,0.2-1.4c0-3.1-2.8-5.7-6.2-5.7c-1.2,0-2.4,0.3-3.3,0.9
								c-0.7-2.3-2.8-4-5.4-4.3v15.7h11.3c0.6,0.4,1.3,0.6,2,0.6c1.9,0,3.4-1.4,3.4-3.1C149.5,127,148.7,126,147.5,125.5z"/>
							<g>
								<path fill="#ACDCE7" d="M138.2,140.8c-0.3-0.1-0.7,0.1-0.8,0.5c-0.1,0.3,0.1,0.7,0.5,0.8c0.3,0.1,0.7-0.1,0.8-0.5
									C138.8,141.2,138.6,140.9,138.2,140.8z"/>
								<path fill="#ACDCE7" d="M139.9,133.4c0.3,0.1,0.7-0.1,0.8-0.5c0.1-0.3-0.1-0.7-0.5-0.8c-0.3-0.1-0.7,0.1-0.8,0.5
									C139.3,133,139.6,133.4,139.9,133.4z"/>
								<path fill="#ACDCE7" d="M136.3,133.7c-0.3-0.1-0.7,0.1-0.8,0.5c-0.1,0.3,0.1,0.7,0.5,0.8c0.3,0.1,0.7-0.1,0.8-0.5
									C136.9,134.1,136.6,133.8,136.3,133.7z"/>
								<path fill="#ACDCE7" d="M139.5,135.1c-0.3-0.1-0.7,0.1-0.8,0.5c-0.1,0.3,0.1,0.7,0.5,0.8c0.3,0.1,0.7-0.1,0.8-0.5
									C140.1,135.5,139.9,135.2,139.5,135.1z"/>
								<path fill="#ACDCE7" d="M138.9,137.9c-0.3-0.1-0.7,0.1-0.8,0.5c-0.1,0.3,0.1,0.7,0.5,0.8c0.3,0.1,0.7-0.1,0.8-0.5
									C139.5,138.4,139.2,138,138.9,137.9z"/>
								<path fill="#ACDCE7" d="M135.7,136.6c-0.3-0.1-0.7,0.1-0.8,0.5c-0.1,0.3,0.1,0.7,0.5,0.8c0.3,0.1,0.7-0.1,0.8-0.5
									C136.2,137,136,136.7,135.7,136.6z"/>
								<path fill="#ACDCE7" d="M133.3,133.7c-0.2,0-0.4,0-0.5,0.1v1c0.1,0,0.1,0.1,0.2,0.1c0.3,0.1,0.7-0.1,0.8-0.5
									C133.9,134.1,133.7,133.8,133.3,133.7z"/>
								<path fill="#ACDCE7" d="M135,139.4c-0.3-0.1-0.7,0.1-0.8,0.5c-0.1,0.3,0.1,0.7,0.5,0.8c0.3,0.1,0.7-0.1,0.8-0.5
									C135.6,139.9,135.4,139.5,135,139.4z"/>
								<path fill="#ACDCE7" d="M132.8,136.6v1.1c0.2-0.1,0.3-0.2,0.3-0.4C133.2,137,133.1,136.8,132.8,136.6z"/>
								<path fill="#ACDCE7" d="M144.9,136.3c-0.3-0.1-0.7,0.1-0.8,0.5c-0.1,0.3,0.1,0.7,0.5,0.8c0.3,0.1,0.7-0.1,0.8-0.5
									C145.5,136.7,145.3,136.3,144.9,136.3z"/>
								<path fill="#ACDCE7" d="M141.2,140.8c-0.3-0.1-0.7,0.1-0.8,0.5c-0.1,0.3,0.1,0.7,0.5,0.8c0.3,0.1,0.7-0.1,0.8-0.5
									C141.8,141.2,141.6,140.9,141.2,140.8z"/>
								<path fill="#ACDCE7" d="M144.3,139.1c-0.3-0.1-0.7,0.1-0.8,0.5c-0.1,0.3,0.1,0.7,0.5,0.8c0.3,0.1,0.7-0.1,0.8-0.5
									C144.8,139.5,144.6,139.2,144.3,139.1z"/>
								<path fill="#ACDCE7" d="M145.6,133.4c-0.3-0.1-0.7,0.1-0.8,0.5c-0.1,0.3,0.1,0.7,0.5,0.8c0.3,0.1,0.7-0.1,0.8-0.5
									C146.1,133.8,145.9,133.5,145.6,133.4z"/>
								<path fill="#ACDCE7" d="M141.9,137.9c-0.3-0.1-0.7,0.1-0.8,0.5c-0.1,0.3,0.1,0.7,0.5,0.8c0.3,0.1,0.7-0.1,0.8-0.5
									C142.4,138.4,142.2,138,141.9,137.9z"/>
								<path fill="#ACDCE7" d="M142.5,135.1c-0.3-0.1-0.7,0.1-0.8,0.5c-0.1,0.3,0.1,0.7,0.5,0.8c0.3,0.1,0.7-0.1,0.8-0.5
									C143.1,135.5,142.8,135.2,142.5,135.1z"/>
								<path fill="#ACDCE7" d="M143.6,142c-0.3-0.1-0.7,0.1-0.8,0.5c-0.1,0.3,0.1,0.7,0.5,0.8c0.3,0.1,0.7-0.1,0.8-0.5
									C144.2,142.4,144,142.1,143.6,142z"/>
								<path fill="#ACDCE7" d="M142.9,133.4c0.3,0.1,0.7-0.1,0.8-0.5c0.1-0.3-0.1-0.7-0.5-0.8c-0.3-0.1-0.7,0.1-0.8,0.5
									C142.3,133,142.5,133.4,142.9,133.4z"/>
							</g>
						</g>
					</g>
				</g>
			</g>
		</g>
	</g>
</g>
<g id="grid" display="none">
</g>
<g id="content-grid" display="none">
</g>
<g id="content-grid_copy" display="none">
</g>
</svg>
