<?xml version="1.0" encoding="utf-8"?>
<!-- Generator: Adobe Illustrator 18.1.0, SVG Export Plug-In . SVG Version: 6.00 Build 0)  -->
<svg version="1.1" id="Layer_1" xmlns="http://www.w3.org/2000/svg" xmlns:xlink="http://www.w3.org/1999/xlink" x="0px" y="0px"
	 viewBox="3.2 115.2 655.5 168.6" enable-background="new 3.2 115.2 655.5 168.6" xml:space="preserve" width="261" height="78">
<g>
	<g>
		<g>
			<g>
				<path fill="#339200" d="M196.5,145.9c-6.5,0-11.6,5.3-11.6,12v13.8H208V158C208.1,151.3,203,145.9,196.5,145.9z"/>
				<path fill="#339200" d="M196.5,180.1c-5.5,0-10.1,4.5-10.1,10.1s4.5,10.1,10.1,10.1s10.1-4.5,10.1-10.1
					C206.5,184.6,202,180.1,196.5,180.1z M197.5,190.1l1,7.3h-3.7l1-7.3c-1.6-0.4-2.8-1.8-2.8-3.6c0-2,1.6-3.6,3.6-3.6
					s3.6,1.6,3.6,3.6C200,188.4,199,189.7,197.5,190.1z"/>
				<path fill="#339200" d="M210.3,117.5c-31.2-7.7-62.7,11.6-70.4,42.8c-7.7,31.4,11.6,62.9,42.8,70.6s62.9-11.6,70.4-42.8
					C260.8,156.8,241.4,125.2,210.3,117.5z M219.5,205.7c0,1.8-10.3,3.4-23.1,3.4s-23.1-1.4-23.1-3.2v-34.1h5.3V158
					c0-10.3,7.7-18.5,18-18.5c10.1,0,18,8.3,18,18.5v13.8h5.3v33.9L219.5,205.7L219.5,205.7z"/>
			</g>
			<g>
				<path fill="#339200" d="M147,272.6c0-0.6-0.2-1-0.6-1.4c-0.4-0.4-1-0.8-1.6-1c-0.6-0.4-1.4-0.6-2.2-1s-1.6-0.8-2.2-1.2
					c-0.6-0.4-1.2-1-1.6-1.8c-0.6-0.8-0.8-1.6-0.8-2.8c0-1,0.2-1.8,0.4-2.4c0.4-0.8,0.8-1.2,1.4-1.8c0.6-0.4,1.2-0.8,2.2-1
					c0.8-0.2,1.8-0.4,2.8-0.4c1.2,0,2.2,0.2,3.2,0.2c1,0.2,1.8,0.4,2.6,0.8l-1.2,3.2c-0.4-0.2-1-0.6-1.8-0.8
					c-0.8-0.2-1.8-0.4-2.6-0.4c-1,0-1.6,0.2-2,0.6c-0.8,0.6-1,1.2-1,1.8c0,0.6,0.2,1,0.6,1.4c0.4,0.4,1,0.8,1.6,1
					c0.6,0.4,1.4,0.6,2.2,1s1.6,0.8,2.2,1.2c0.6,0.4,1.2,1,1.6,1.8c0.4,0.8,0.6,1.6,0.6,2.6s-0.2,2-0.6,2.8c-0.4,0.8-0.8,1.4-1.4,2
					c-0.6,0.6-1.4,0.8-2.2,1.2c-0.8,0.2-1.8,0.4-3,0.4c-1.4,0-2.6-0.2-3.7-0.4c-1-0.2-1.8-0.6-2.4-0.8l1.2-3.2
					c0.2,0.2,0.4,0.2,0.8,0.4c0.4,0.2,0.8,0.2,1.2,0.4s0.8,0.2,1.4,0.2c0.4,0,1,0.2,1.4,0.2c1.2,0,2-0.2,2.6-0.6
					C146.8,274,147,273.4,147,272.6z"/>
				<path fill="#339200" d="M164.3,276.7c-0.6,0.4-1.4,0.8-2.2,1.2c-1,0.4-2,0.4-3,0.4c-2.2,0-3.9-0.6-4.9-2s-1.6-3.2-1.6-5.3
					c0-2.4,0.6-4.3,1.8-5.5s2.8-1.8,4.9-1.8c0.8,0,1.4,0,2,0.2s1.2,0.4,1.8,1c0.6,0.4,1,1,1.2,1.8c0.4,0.8,0.4,1.6,0.4,2.8
					c0,0.4,0,0.8,0,1.2s-0.2,1-0.2,1.4h-8.3c0,1.2,0.4,2,1,2.6s1.4,1,2.6,1c0.8,0,1.4-0.2,2-0.4c0.6-0.2,1-0.4,1.4-0.8L164.3,276.7z
					 M159.2,266.5c-1,0-1.6,0.2-2.2,0.8c-0.4,0.6-0.8,1.4-0.8,2.2h5.1c0-1,0-1.8-0.4-2.4C160.6,266.7,160,266.5,159.2,266.5z"/>
				<path fill="#339200" d="M179.1,277.9c0,2-0.6,3.6-1.6,4.5c-1.2,1-2.6,1.4-4.5,1.4c-1.4,0-2.4,0-3.2-0.2s-1.4-0.4-1.8-0.6l0.8-3
					c0.4,0.2,1,0.4,1.6,0.6s1.2,0.2,2.2,0.2c1.2,0,2.2-0.2,2.6-0.8c0.4-0.6,0.6-1.4,0.6-2.4v-1h-0.2c-0.6,0.8-1.8,1.4-3.4,1.4
					c-1.8,0-3.2-0.6-3.9-1.6c-0.8-1.2-1.4-2.8-1.4-5.1c0-2.6,0.6-4.3,1.8-5.7c1.2-1.2,3-2,5.1-2c1.2,0,2.2,0,3.2,0.2
					s1.8,0.4,2.4,0.6L179.1,277.9L179.1,277.9z M173,275.1c0.8,0,1.2-0.2,1.6-0.4c0.4-0.4,0.6-0.8,0.8-1.4V267
					c-0.6-0.2-1.4-0.4-2.2-0.4c-1,0-1.6,0.4-2.2,1c-0.6,0.8-0.8,1.8-0.8,3.4c0,1.4,0.2,2.4,0.6,3.2C171.4,274.8,172,275.1,173,275.1
					z"/>
				<path fill="#339200" d="M185.6,263.9v7.9c0,1.2,0.2,2,0.4,2.4c0.2,0.6,0.8,0.8,1.6,0.8c0.6,0,1.2-0.2,1.8-0.6
					c0.4-0.4,0.8-1,1-1.6v-9.1h3.6v9.7c0,0.8,0,1.6,0.2,2.2c0,0.8,0.2,1.4,0.4,2h-2.8l-0.6-2H191c-0.4,0.8-1,1.4-1.8,1.8
					s-1.6,0.8-2.8,0.8c-0.8,0-1.4,0-2-0.2s-1-0.4-1.4-1c-0.4-0.4-0.6-1-0.8-1.8s-0.2-1.6-0.2-2.8v-8.7L185.6,263.9L185.6,263.9z"/>
				<path fill="#339200" d="M204.8,267.3c-0.6-0.2-1.2-0.4-1.6-0.4c-0.6,0-1.2,0.2-1.6,0.6c-0.4,0.4-0.8,0.8-0.8,1.4v9.1h-3.6v-14
					h2.8l0.4,1.8h0.2c0.4-0.6,0.8-1.2,1.2-1.6c0.6-0.4,1.2-0.6,2-0.6c0.4,0,1,0.2,1.6,0.4L204.8,267.3z"/>
				<path fill="#339200" d="M206.7,260c0-0.6,0.2-1,0.6-1.4c0.4-0.4,1-0.6,1.6-0.6c0.8,0,1.2,0.2,1.8,0.6c0.4,0.4,0.6,0.8,0.6,1.4
					s-0.2,1-0.6,1.4c-0.4,0.4-1,0.6-1.8,0.6s-1.2-0.2-1.6-0.6C206.9,260.9,206.7,260.6,206.7,260z M207.3,263.9h3.6v13.8h-3.6V263.9
					z"/>
				<path fill="#339200" d="M226.3,273c0,0.8,0,1.6,0,2.4s0.2,1.6,0.2,2.6h-2.6l-0.6-1.8h-0.2c-0.4,0.6-1,1.2-1.6,1.6
					c-0.8,0.4-1.6,0.6-2.4,0.6c-1.8,0-3.2-0.6-4.1-1.8c-1-1.2-1.4-3-1.4-5.3s0.6-4.1,1.6-5.5s2.6-2,4.7-2c0.6,0,1,0,1.4,0.2
					c0.4,0,0.8,0.2,1.2,0.4v-5.7h3.6V273H226.3z M220.1,275.1c0.8,0,1.2-0.2,1.6-0.6c0.4-0.4,0.8-0.8,0.8-1.6V267
					c-0.2-0.2-0.6-0.4-0.8-0.4c-0.4-0.2-0.8-0.2-1.2-0.2c-1,0-1.8,0.4-2.4,1c-0.6,0.6-0.8,1.8-0.8,3.6c0,1.2,0.2,2.2,0.6,3
					C218.6,274.8,219.2,275.1,220.1,275.1z"/>
				<path fill="#339200" d="M229.2,264.7c0.8-0.4,1.6-0.6,2.6-0.8s2.2-0.2,3.2-0.2s1.8,0.2,2.4,0.4c0.6,0.2,1.2,0.6,1.6,1
					c0.4,0.4,0.6,1,0.8,1.6s0.2,1.2,0.2,2s0,1.6,0,2.4s0,1.6,0,2.4s0,1.6,0,2.4s0.2,1.4,0.4,2.2h-3l-0.6-2l0,0
					c-0.4,0.6-0.8,1-1.6,1.6c-0.6,0.4-1.6,0.6-2.6,0.6c-0.6,0-1.2-0.2-1.8-0.4s-1-0.4-1.4-0.8s-0.6-0.8-0.8-1.2
					c-0.2-0.4-0.4-1-0.4-1.6c0-0.8,0.2-1.6,0.6-2.2c0.4-0.6,1-1,1.6-1.4c0.8-0.4,1.6-0.6,2.6-0.8c1-0.2,2.2-0.2,3.4-0.2
					c0.2-1,0-1.8-0.2-2.2c-0.2-0.4-1-0.6-1.8-0.6s-1.6,0-2.4,0.2c-0.8,0.2-1.4,0.4-2,0.6L229.2,264.7z M233.9,275.1
					c0.8,0,1.4-0.2,1.8-0.4c0.4-0.4,0.8-0.6,1-1V272c-0.6,0-1.2,0-1.6,0c-0.6,0-1,0.2-1.4,0.2c-0.4,0.2-0.8,0.4-1,0.6
					s-0.4,0.6-0.4,1c0,0.6,0.2,1,0.4,1.2C233,275,233.4,275.1,233.9,275.1z"/>
				<path fill="#339200" d="M255.1,273c0,0.8,0,1.6,0,2.4s0.2,1.6,0.2,2.6h-2.6l-0.6-1.8h-0.2c-0.4,0.6-1,1.2-1.6,1.6
					c-0.8,0.4-1.6,0.6-2.4,0.6c-1.8,0-3.2-0.6-4.1-1.8c-1-1.2-1.4-3-1.4-5.3s0.6-4.1,1.6-5.5s2.6-2,4.7-2c0.6,0,1,0,1.4,0.2
					c0.4,0,0.8,0.2,1.2,0.4v-5.7h3.6L255.1,273L255.1,273z M248.9,275.1c0.8,0,1.2-0.2,1.6-0.6c0.4-0.4,0.8-0.8,0.8-1.6V267
					c-0.2-0.2-0.6-0.4-0.8-0.4c-0.4-0.2-0.8-0.2-1.2-0.2c-1,0-1.8,0.4-2.4,1c-0.6,0.6-0.8,1.8-0.8,3.6c0,1.2,0.2,2.2,0.6,3
					C247.4,274.8,248,275.1,248.9,275.1z"/>
			</g>
		</g>
		<g>
			<g>
				<path fill="#005197" d="M86.4,180.3v0.2h-0.2c-0.6,0-1,0.4-1,0.8s0.4,0.8,1,0.8h0.2v0.2v0.2h4.5v-2.6h-4.5
					C86.4,180.1,86.4,180.3,86.4,180.3z"/>
				<path fill="#005197" d="M83.6,186.2c0,0.4,0,1.2,0,2h5.9c0.8,0,1.4-0.6,1.4-1.4v-0.6H83.6z"/>
				<path fill="#005197" d="M86.4,183.2c-0.4,1.2-1,2.2-1.8,2.6h6.5v-2.6H86.4z"/>
				<path fill="#005197" d="M75,186.2v0.6c0,0.8,0.6,1.4,1.4,1.4h6.1c0-0.8,0-1.6,0-2H75L75,186.2z"/>
				<path fill="#005197" d="M75,182.6h4.7v-0.2v-0.2h0.2c0.6,0,1-0.4,1-0.8s-0.4-0.8-1-0.8h-0.2v-0.2c0-0.2,0-0.2,0-0.4H75V182.6z"
					/>
				<path fill="#005197" d="M75,185.8h6.7c-0.8-0.4-1.4-1.4-1.8-2.6H75V185.8z"/>
				<path fill="#005197" d="M81.9,176.9H75v2.6h4.9C80.1,178.3,80.9,177.3,81.9,176.9z"/>
				<path fill="#005197" d="M90.9,176.9h-6.7c1,0.4,1.6,1.4,2,2.6h4.7V176.9z"/>
				<path fill="#005197" d="M82.5,176.5c0-0.4,0-1,0-1.6h-6.1c-0.8,0-1.4,0.6-1.4,1.4v0.2L82.5,176.5L82.5,176.5z"/>
				<path fill="#005197" d="M90.9,176.5L90.9,176.5c0-1-0.6-1.6-1.4-1.6h-5.9c0,0.6,0,1.2,0,1.6H90.9L90.9,176.5z"/>
				<path fill="#005197" d="M80.1,180.3c0.8,0.2,1.2,0.6,1.2,1.2c0,0.6-0.6,1.2-1.2,1.2c0.4,1.8,1.4,3,2.6,3h0.2v2.8H83v-2.8h0.2
					c1.2,0,2.2-1.2,2.6-3c-0.8-0.2-1.2-0.6-1.2-1.2c0-0.6,0.6-1.2,1.2-1.2c-0.4-1.8-1.4-3-2.6-3H83v-2.4h-0.2v2.4h-0.2
					C81.5,177.3,80.5,178.5,80.1,180.3z"/>
				<path fill="#005197" d="M94.7,126.2C68.3,107.9,32,114.6,13.6,141S2,203.9,28.4,222.3s62.9,11.6,81.1-14.8
					C127.8,181.1,121.1,144.6,94.7,126.2z M96.1,194.7c0,1.2-1,2.2-2.2,2.2H29.2c-1.2,0-2.2-1-2.2-2.2v-27.6h69.2L96.1,194.7
					L96.1,194.7z M96.1,157.6H27v-3.9c0-1.2,1-2.2,2.2-2.2h64.7c1.2,0,2.2,1,2.2,2.2L96.1,157.6L96.1,157.6z"/>
			</g>
			<g>
				<path fill="#005197" d="M56,267.7l0.4-3.9h-0.2L55,267l-4.1,7.3h-1.2l-4.3-7.3l-1.2-3.2H44l0.6,3.7v10.1H41V258h3.6l5.1,8.9
					l1,2.2h0.2l0.8-2.4l4.9-8.9H60v19.5h-3.7L56,267.7L56,267.7L56,267.7z"/>
				<path fill="#005197" d="M71.6,272.6c0-0.6-0.2-1-0.6-1.4s-1-0.8-1.6-1c-0.6-0.4-1.4-0.6-2.2-1c-0.8-0.4-1.6-0.8-2.2-1.2
					c-0.6-0.4-1.2-1-1.6-1.8c-0.4-0.8-0.6-1.6-0.6-2.8c0-1,0.2-1.8,0.4-2.4c0.4-0.8,0.8-1.2,1.4-1.8c0.6-0.4,1.2-0.8,2.2-1
					c0.8-0.2,1.8-0.4,2.8-0.4c1.2,0,2.2,0.2,3.2,0.2c1,0.2,1.8,0.4,2.6,0.8l-1.2,3.2c-0.4-0.2-1-0.6-1.8-0.8
					c-0.8-0.2-1.8-0.4-2.6-0.4c-1,0-1.6,0.2-2,0.6s-0.8,0.8-0.8,1.4s0.2,1,0.6,1.4s1,0.8,1.6,1c0.6,0.4,1.4,0.6,2.2,1
					c0.8,0.4,1.6,0.8,2.2,1.2s1.2,1,1.6,1.8s0.6,1.6,0.6,2.6s-0.2,2-0.6,2.8s-0.8,1.4-1.4,2s-1.4,0.8-2.2,1.2
					c-0.8,0.2-1.8,0.4-3,0.4c-1.4,0-2.6-0.2-3.7-0.4c-1-0.2-1.8-0.6-2.4-0.8l1.2-3.2c0.2,0.2,0.4,0.2,0.8,0.4
					c0.4,0.2,0.8,0.2,1.2,0.4c0.4,0.2,0.8,0.2,1.4,0.2c0.4,0,1,0.2,1.4,0.2c1.2,0,2-0.2,2.6-0.6C71.2,274,71.6,273.4,71.6,272.6z"/>
				<path fill="#005197" d="M78.3,258.4H82v19.5h-3.7V258.4z"/>
			</g>
		</g>
		<g>
			<g>
				<path fill="#F080B8" d="M332,148.7c0-0.4-0.4-0.6-0.6-0.8h-0.2v1.6C331.4,149.3,332,149.1,332,148.7z"/>
				<circle fill="#F080B8" cx="308.3" cy="169.8" r="2.2"/>
				<path fill="#F080B8" d="M330.4,144.8c-0.4,0-0.8,0.2-0.8,0.8s0.6,0.6,0.8,0.8V144.8z"/>
				<path fill="#F080B8" d="M329.2,153.4c3.4,0.8,6.9-1.2,7.7-4.7c0.8-3.4-1.2-6.9-4.7-7.7c-3.4-0.8-6.9,1.2-7.7,4.7
					C323.7,149.1,325.7,152.5,329.2,153.4z M329.6,147.5c-1-0.4-1.6-0.8-1.6-2c0-1.4,1.2-2.2,2.4-2.2v-0.8h0.6v0.8
					c0.8,0,1.6,0.2,2.2,0.6l-1,1.2c-0.4-0.2-0.8-0.4-1.2-0.4v1.6l1,0.2c1,0.2,1.6,1,1.6,1.8c0,1.4-1.2,2.2-2.6,2.4v0.8h-0.6v-0.8
					c-1,0-2-0.2-2.6-0.8l1.2-1.2c0.4,0.4,1,0.6,1.4,0.6v-1.8L329.6,147.5L329.6,147.5z"/>
				<path fill="#F080B8" d="M334.2,177.7l-2.2-0.6v-3.7c1,0,2,0.4,2.8,1l2.2-2.8c-1.4-1-3.4-1.4-4.9-1.4v-1.6h-1.6v1.6
					c-2.8,0.4-5.3,2.2-5.3,5.1c0,2.4,1.2,3.6,3.6,4.3l1.8,0.6v3.9c-1.2,0-2.6-0.4-3.4-1.4l-2.6,2.8c1.6,1.4,3.7,2,5.7,2v1.6h1.6
					v-1.6c3.2-0.4,5.7-2,5.7-5.3C337.7,179.9,336.3,178.5,334.2,177.7z M330.4,176.7c-0.4-0.2-1.8-0.2-1.8-1.8c0-1,0.8-1.4,1.8-1.6
					V176.7z M332,184v-3.6l0.4,0.2c0.8,0.4,1.6,0.6,1.6,1.6C334,183.4,333,183.8,332,184z"/>
				<path fill="#F080B8" d="M330.6,115.8c-32.2,0-58.4,26.2-58.4,58.4s26.2,58.4,58.4,58.4s58.4-26.2,58.4-58.4
					S362.8,115.8,330.6,115.8z M323.3,145.4c1-4.1,5.1-6.7,9.3-5.7c4.1,1,6.7,5.1,5.7,9.3c-1,4.1-5.1,6.7-9.3,5.7
					C324.7,153.6,322.1,149.5,323.3,145.4z M361.2,183H361c-1,7.1-4.3,12.2-10.8,16.4l-1.8,7.1c-0.4,1.4-1.8,2.8-3,2.8h-4.9
					c-1.4,0-2.8-1.4-3-2.8l-0.4-2.2c-1.6,0.2-4.7,0.4-6.3,0.4c-1.8,0-4.7,0-6.3-0.4l-0.4,2.2c-0.4,1.4-1.8,2.8-3,2.8h-4.9
					c-1.4,0-2.8-1.4-3-2.8l-1.8-7.1c-3.6-2.2-5.5-4.1-7.5-7.7c-0.2,0-0.4,0-0.6-0.2l-4.9-2c-1.2-0.4-1.8-2-1.8-3.4v-12.4
					c0-1.4,0.6-3,1.8-3.4l4.7-2c0.2,0,0.4-0.2,0.4-0.2c1-1.8,2.2-3.4,3.6-4.9c0.2-0.2,0.2-0.2,0.4-0.4v-5.3c0-1.2,0.6-1.8,1.4-1.8
					c0.2,0,0.6,0,1,0.2l3.7,1.8c0.2-0.2,0.4-0.2,0.4-0.2c2.6-1.8,5.5-3.2,8.5-3.9l0,0c0,0,0.6-0.2,1.8-0.4c0.8,0.8,1.6,1.6,2.6,2.2
					c-1,0.2-1.6,0.4-1.8,0.4c-1.2,0.4-2,0.8-2,0.8c-0.6,0.4-1,1.2-0.6,1.8s1.2,0.8,1.8,0.6c0,0,7.3-3.7,15,0c0.2,0,0.4,0.2,0.6,0.2
					c0.6,0,1-0.2,1.2-0.8c0.4-0.6,0-1.4-0.6-1.8c-0.4-0.2-1-0.4-1.4-0.6c-0.2,0-1.4-0.4-3.2-0.6c1-0.6,1.8-1.2,2.6-2.2
					c1.6,0.4,2.6,0.8,2.6,0.8l0,0c10.3,3.4,18.1,11.4,20.3,20.7c0.2,0,0.4,0,0.6,0c2.4,0,4.3,2,4.3,4.3
					C365.5,181.1,363.5,183,361.2,183z"/>
			</g>
			<g>
				<path fill="#F080B8" d="M301.8,273.6h-5.9l-1.4,4.3h-3.7l7.1-19.5h2.8l7.1,19.5h-3.9L301.8,273.6z M296.7,270.4h4.1l-1.4-4.3
					l-0.6-3.2h-0.2l-0.6,3.2L296.7,270.4z"/>
				<path fill="#F080B8" d="M317.4,277.9V270c0-1.2-0.2-2-0.4-2.4c-0.4-0.6-1-0.8-1.8-0.8c-0.6,0-1.2,0.2-1.8,0.6
					c-0.6,0.4-0.8,1-1,1.6v8.9h-3.6v-19.5h3.6v7.1h0.2c0.4-0.6,1-1,1.6-1.4s1.4-0.6,2.6-0.6c0.8,0,1.4,0,1.8,0.2
					c0.6,0.2,1,0.6,1.4,1s0.6,1,0.8,1.8c0.2,0.8,0.2,1.6,0.2,2.8v8.7h-3.6V277.9L317.4,277.9z"/>
				<path fill="#F080B8" d="M323.3,270.8c0-2.4,0.6-4.1,1.8-5.5c1.2-1.2,2.8-2,4.9-2c1.2,0,2.2,0.2,3,0.6s1.6,0.8,2,1.6
					c0.6,0.6,1,1.4,1.2,2.4s0.4,2,0.4,3c0,2.4-0.6,4.1-1.8,5.5c-1.2,1.2-2.8,2-4.7,2c-1.2,0-2.2-0.2-3-0.6s-1.6-0.8-2-1.6
					c-0.6-0.6-1-1.4-1.2-2.4C323.5,273,323.3,272,323.3,270.8z M327.1,270.8c0,0.6,0,1.2,0.2,1.8c0.2,0.6,0.2,1,0.6,1.4
					c0.2,0.4,0.6,0.8,0.8,1c0.4,0.2,0.8,0.4,1.4,0.4c1,0,1.6-0.4,2.2-1c0.4-0.6,0.8-1.8,0.8-3.4c0-1.2-0.2-2.4-0.6-3.2
					c-0.4-0.8-1.2-1.2-2.2-1.2s-1.6,0.4-2.2,1C327.3,268.2,327.1,269.4,327.1,270.8z"/>
				<path fill="#F080B8" d="M346.6,267.3c-0.6-0.2-1.2-0.4-1.6-0.4c-0.6,0-1.2,0.2-1.6,0.6s-0.8,0.8-0.8,1.4v9.1H339v-14h2.8
					l0.4,1.8h0.2c0.4-0.6,0.8-1.2,1.2-1.6c0.6-0.4,1.2-0.6,2-0.6c0.4,0,1,0.2,1.6,0.4L346.6,267.3z"/>
				<path fill="#F080B8" d="M356.4,267.3c-0.6-0.2-1.2-0.4-1.6-0.4c-0.6,0-1.2,0.2-1.6,0.6s-0.8,0.8-0.8,1.4v9.1H349v-14h2.8
					l0.4,1.8h0.2c0.4-0.6,0.8-1.2,1.2-1.6c0.6-0.4,1.2-0.6,2-0.6c0.4,0,1,0.2,1.6,0.4L356.4,267.3z"/>
				<path fill="#F080B8" d="M357.8,270.8c0-2.4,0.6-4.1,1.8-5.5c1.2-1.2,2.8-2,4.9-2c1.2,0,2.2,0.2,3,0.6s1.6,0.8,2,1.6
					c0.6,0.6,1,1.4,1.2,2.4s0.4,2,0.4,3c0,2.4-0.6,4.1-1.8,5.5c-1.2,1.2-2.8,2-4.7,2c-1.2,0-2.2-0.2-3-0.6s-1.6-0.8-2-1.6
					c-0.6-0.6-1-1.4-1.2-2.4C358,273,357.8,272,357.8,270.8z M361.6,270.8c0,0.6,0,1.2,0.2,1.8c0.2,0.6,0.2,1,0.6,1.4
					c0.2,0.4,0.6,0.8,0.8,1c0.4,0.2,0.8,0.4,1.4,0.4c1,0,1.6-0.4,2.2-1c0.4-0.6,0.8-1.8,0.8-3.4c0-1.2-0.2-2.4-0.6-3.2
					c-0.4-0.8-1.2-1.2-2.2-1.2s-1.6,0.4-2.2,1C361.8,268.2,361.6,269.4,361.6,270.8z"/>
			</g>
		</g>
	</g>
	<g>
		<g>
			<g>
				<path fill="#D80980" d="M479.5,116.9c-31.2-7.7-62.9,11.6-70.4,42.8c-7.7,31.4,11.6,62.9,42.8,70.6s62.9-11.6,70.4-42.8
					C530,156.2,510.9,124.4,479.5,116.9z M450.9,187.4h-9.3l-10.5-27.6h8.9l6.1,19.9l6.1-19.9h8.7L450.9,187.4z M471.8,187.4h-8.5
					v-27.6h8.5V187.4L471.8,187.4z M497.9,174.7c-1.6,1.6-4.1,2.4-7.7,2.4h-4.7v10.3H477v-27.6h14.2c3.2,0,5.3,0.8,6.9,2.2
					s2.4,3.6,2.4,6.3C500.4,171,499.5,173.2,497.9,174.7z"/>
				<path fill="#D80980" d="M488,165.5h-2.4v6.1h2c1.6,0,2.8-0.2,3.4-0.8s1-1.4,1-2.2s-0.2-1.6-0.8-2.2
					C490.6,165.7,489.6,165.5,488,165.5z"/>
			</g>
			<g>
				<path fill="#D80980" d="M429,272c0-0.6-0.2-1-0.6-1.4s-1-0.8-1.6-1c-0.6-0.4-1.4-0.6-2.2-1c-0.8-0.4-1.6-0.8-2.2-1.2
					c-0.6-0.4-1.2-1-1.6-1.8s-0.6-1.6-0.6-2.8c0-1,0.2-1.8,0.4-2.4c0.4-0.8,0.8-1.2,1.4-1.8c0.6-0.4,1.2-0.8,2.2-1
					c0.8-0.2,1.8-0.4,2.8-0.4c1.2,0,2.2,0.2,3.2,0.2c1,0.2,1.8,0.4,2.6,0.8l-1.2,3.2c-0.4-0.2-1-0.6-1.8-0.8
					c-0.8-0.2-1.8-0.4-2.6-0.4c-1,0-1.6,0.2-2,0.6s-0.8,0.8-0.8,1.4s0.2,1,0.6,1.4s1,0.8,1.6,1c0.6,0.4,1.4,0.6,2.2,1
					c0.8,0.4,1.4,0.8,2.2,1.2c0.6,0.4,1.2,1,1.6,1.8s0.6,1.6,0.6,2.6s-0.2,2-0.6,2.8s-0.8,1.4-1.4,2s-1.4,0.8-2.2,1.2
					c-0.8,0.2-1.8,0.4-3,0.4c-1.4,0-2.6-0.2-3.7-0.4c-1-0.2-1.8-0.6-2.4-0.8l1.2-3.2c0.2,0.2,0.4,0.2,0.8,0.4s0.8,0.2,1.2,0.4
					c0.4,0.2,0.8,0.2,1.4,0.2c0.4,0,1,0.2,1.4,0.2c1.2,0,2-0.2,2.6-0.6C428.8,273.4,429,272.8,429,272z"/>
				<path fill="#D80980" d="M446.4,275.9c-0.6,0.4-1.4,0.8-2.2,1.2c-1,0.4-2,0.4-3,0.4c-2.2,0-3.9-0.6-4.9-2s-1.6-3.2-1.6-5.3
					c0-2.4,0.6-4.3,1.8-5.5c1.2-1.2,2.8-1.8,4.9-1.8c0.8,0,1.4,0,2,0.2s1.2,0.4,1.8,1c0.6,0.4,1,1,1.2,1.8c0.4,0.8,0.4,1.6,0.4,2.8
					c0,0.4,0,0.8,0,1.2c0,0.4-0.2,1-0.2,1.4h-8.3c0,1.2,0.4,2,1,2.6s1.4,1,2.6,1c0.8,0,1.4-0.2,2-0.4c0.6-0.2,1-0.4,1.4-0.8
					L446.4,275.9z M441.3,265.9c-1,0-1.6,0.2-2.2,0.8c-0.4,0.6-0.8,1.4-0.8,2.2h5.1c0-1,0-1.8-0.4-2.4
					C442.6,266.1,442.1,265.9,441.3,265.9z"/>
				<path fill="#D80980" d="M457,266.7c-0.6-0.2-1.2-0.4-1.6-0.4c-0.6,0-1.2,0.2-1.6,0.6s-0.8,0.8-0.8,1.4v9.1h-3.6v-14h2.8l0.4,1.8
					h0.2c0.4-0.6,0.8-1.2,1.2-1.6c0.6-0.4,1.2-0.6,2-0.6c0.4,0,1,0.2,1.6,0.4L457,266.7z"/>
				<path fill="#D80980" d="M464,270.6l0.4,2.2h0.2l0.4-2.2l2.4-7.3h3.9l-5.7,14h-2.2l-6.1-14h4.1L464,270.6z"/>
				<path fill="#D80980" d="M472.2,259.4c0-0.6,0.2-1,0.6-1.4s1-0.6,1.6-0.6s1.2,0.2,1.8,0.6c0.4,0.4,0.6,0.8,0.6,1.4
					s-0.2,1-0.6,1.4s-1,0.6-1.8,0.6s-1.2-0.2-1.6-0.6S472.2,260,472.2,259.4z M472.8,263.3h3.6v13.8h-3.6V263.3z"/>
				<path fill="#D80980" d="M489.8,276.3c-0.6,0.4-1.2,0.8-2,1s-1.6,0.4-2.4,0.4c-1.2,0-2-0.2-2.8-0.6s-1.4-0.8-2-1.6
					c-0.4-0.6-0.8-1.4-1-2.4s-0.4-2-0.4-3c0-2.4,0.6-4.1,1.6-5.5c1-1.2,2.6-2,4.5-2c1,0,1.8,0,2.6,0.2c0.6,0.2,1.2,0.4,1.8,0.6
					l-0.8,3c-0.4-0.2-0.8-0.4-1.2-0.4c-0.4-0.2-1-0.2-1.4-0.2c-1,0-1.8,0.4-2.4,1s-0.8,1.8-0.8,3.2c0,0.6,0,1.2,0.2,1.6
					c0.2,0.6,0.4,1,0.6,1.4s0.6,0.6,1,0.8c0.4,0.2,1,0.4,1.4,0.4c0.6,0,1.2,0,1.6-0.2s0.8-0.4,1.2-0.6L489.8,276.3z"/>
				<path fill="#D80980" d="M491.8,259.4c0-0.6,0.2-1,0.6-1.4s1-0.6,1.6-0.6s1.2,0.2,1.8,0.6c0.4,0.4,0.6,0.8,0.6,1.4
					s-0.2,1-0.6,1.4s-1,0.6-1.8,0.6s-1.2-0.2-1.6-0.6S491.8,260,491.8,259.4z M492.4,263.3h3.6v13.8h-3.6V263.3z"/>
				<path fill="#D80980" d="M498.9,270.2c0-2.4,0.6-4.1,1.8-5.5c1.2-1.2,2.8-2,4.9-2c1.2,0,2.2,0.2,3,0.6s1.6,0.8,2,1.6
					c0.6,0.6,1,1.4,1.2,2.4s0.4,2,0.4,3c0,2.4-0.6,4.1-1.8,5.5c-1.2,1.2-2.8,2-4.7,2c-1.2,0-2.2-0.2-3-0.6s-1.6-0.8-2-1.6
					c-0.6-0.6-1-1.4-1.2-2.4C498.9,272.4,498.9,271.4,498.9,270.2z M502.6,270.2c0,0.6,0,1.2,0.2,1.8c0.2,0.6,0.2,1,0.6,1.4
					c0.2,0.4,0.6,0.8,0.8,1c0.4,0.2,0.8,0.4,1.4,0.4c1,0,1.6-0.4,2.2-1c0.4-0.6,0.8-1.8,0.8-3.4c0-1.2-0.2-2.4-0.6-3.2
					c-0.4-0.8-1.2-1.2-2.2-1.2s-1.6,0.4-2.2,1C502.8,267.7,502.6,268.6,502.6,270.2z"/>
			</g>
		</g>
		<g>
			<g>
				<path fill="#0097D9" d="M558.8,267.1h7.3v8.7c-0.8,0.6-1.8,1.2-2.8,1.4c-1,0.4-2.2,0.4-3.2,0.4c-1.2,0-2.4-0.2-3.6-0.6
					c-1-0.4-2-1-2.8-1.8s-1.4-2-1.8-3.2c-0.4-1.2-0.6-2.8-0.6-4.5s0.2-3.4,0.8-4.7c0.6-1.4,1.2-2.4,2.2-3.2c0.8-0.8,1.8-1.4,3-1.8
					c1-0.4,2.2-0.6,3.4-0.6s2.2,0,3,0.2s1.6,0.4,2,0.6l-0.8,3.2c-0.4-0.2-1-0.4-1.6-0.4c-0.6-0.2-1.4-0.2-2.2-0.2s-1.6,0.2-2.2,0.4
					c-0.6,0.2-1.2,0.6-1.8,1.2c-0.4,0.6-0.8,1.2-1.2,2.2c-0.2,0.8-0.4,2-0.4,3.2s0.2,2.2,0.4,3s0.6,1.6,1,2.2s1,1,1.6,1.2
					s1.4,0.4,2,0.4c0.4,0,1,0,1.4-0.2s0.8-0.4,1.2-0.6v-3.7l-4.1-0.4L558.8,267.1L558.8,267.1z"/>
				<path fill="#0097D9" d="M568.7,264.1c0.8-0.4,1.6-0.6,2.6-0.8c1-0.2,2.2-0.2,3.2-0.2s1.8,0.2,2.4,0.4c0.6,0.2,1.2,0.6,1.6,1
					c0.4,0.4,0.6,1,0.8,1.6s0.2,1.2,0.2,2s0,1.6,0,2.4s0,1.6-0.2,2.4c0,0.8,0,1.6,0,2.4s0.2,1.4,0.4,2.2h-3l-0.6-2h-0.2
					c-0.4,0.6-0.8,1-1.6,1.6c-0.6,0.4-1.6,0.6-2.6,0.6c-0.6,0-1.2-0.2-1.8-0.4c-0.6-0.2-1-0.4-1.4-0.8s-0.6-0.8-0.8-1.2
					c-0.2-0.4-0.4-1-0.4-1.6c0-0.8,0.2-1.6,0.6-2.2c0.4-0.6,1-1,1.6-1.4c0.8-0.4,1.6-0.6,2.6-0.8c1-0.2,2.2-0.2,3.4-0.2
					c0.2-1,0-1.8-0.2-2.2c-0.2-0.4-1-0.6-1.8-0.6s-1.6,0-2.4,0.2c-0.8,0.2-1.4,0.4-2,0.6L568.7,264.1z M573.2,274.4
					c0.8,0,1.4-0.2,1.8-0.4c0.4-0.4,0.8-0.6,1-1v-1.8c-0.6,0-1.2,0-1.6,0c-0.6,0-1,0.2-1.4,0.2c-0.4,0.2-0.8,0.4-1,0.6
					s-0.4,0.6-0.4,1c0,0.6,0.2,1,0.4,1.2C572.2,274.4,572.6,274.4,573.2,274.4z"/>
				<path fill="#0097D9" d="M590.2,266.7c-0.6-0.2-1.2-0.4-1.6-0.4c-0.6,0-1.2,0.2-1.6,0.6c-0.4,0.4-0.8,0.8-0.8,1.4v9.1h-3.6v-14
					h2.8l0.4,1.8h0.2c0.4-0.6,0.8-1.2,1.2-1.6c0.6-0.4,1.2-0.6,2-0.6c0.4,0,1,0.2,1.6,0.4L590.2,266.7z"/>
				<path fill="#0097D9" d="M592.2,264.1c0.8-0.4,1.6-0.6,2.6-0.8c1-0.2,2.2-0.2,3.2-0.2s1.8,0.2,2.4,0.4c0.6,0.2,1.2,0.6,1.6,1
					c0.4,0.4,0.6,1,0.8,1.6s0.2,1.2,0.2,2s0,1.6,0,2.4s0,1.6,0,2.4s0,1.6,0,2.4s0.2,1.4,0.4,2.2h-3l-0.6-2l0,0
					c-0.4,0.6-0.8,1-1.6,1.6c-0.6,0.4-1.6,0.6-2.6,0.6c-0.6,0-1.2-0.2-1.8-0.4c-0.6-0.2-1-0.4-1.4-0.8s-0.6-0.8-0.8-1.2
					c-0.2-0.4-0.4-1-0.4-1.6c0-0.8,0.2-1.6,0.6-2.2s1-1,1.6-1.4c0.8-0.4,1.6-0.6,2.6-0.8c1-0.2,2.2-0.2,3.4-0.2c0.2-1,0-1.8-0.2-2.2
					c-0.2-0.4-1-0.6-1.8-0.6s-1.6,0-2.4,0.2c-0.8,0.2-1.4,0.4-2,0.6L592.2,264.1z M596.7,274.4c0.8,0,1.4-0.2,1.8-0.4
					c0.4-0.4,0.8-0.6,1-1v-1.8c-0.6,0-1.2,0-1.6,0c-0.6,0-1,0.2-1.4,0.2c-0.4,0.2-0.8,0.4-1,0.6s-0.4,0.6-0.4,1c0,0.6,0.2,1,0.4,1.2
					C595.9,274.4,596.3,274.4,596.7,274.4z"/>
				<path fill="#0097D9" d="M614.7,277.1v-7.9c0-1.2-0.2-2-0.4-2.4c-0.4-0.6-0.8-0.8-1.6-0.8c-0.6,0-1.2,0.2-1.8,0.6
					c-0.4,0.4-0.8,1-1,1.6v9.1h-3.6v-13.8h3l0.4,1.8h0.2c0.4-0.6,1-1.2,1.8-1.6s1.6-0.6,2.8-0.6c0.6,0,1.4,0,1.8,0.2
					c0.6,0.2,1,0.6,1.4,1s0.6,1,0.8,1.8s0.2,1.6,0.2,2.8v8.7L614.7,277.1L614.7,277.1L614.7,277.1z"/>
				<path fill="#0097D9" d="M619.8,263.3h2v-2.6l3.6-1v3.6h3.4v3.2h-3.4v5.3c0,1,0,1.6,0.2,2.2c0.2,0.4,0.6,0.6,1.2,0.6
					c0.4,0,0.8,0,1-0.2c0.2,0,0.6-0.2,1-0.4l0.6,2.8c-0.6,0.2-1,0.4-1.8,0.6c-0.6,0.2-1.4,0.2-2,0.2c-1.2,0-2.2-0.4-2.8-1
					s-1-1.8-1-3.2v-7.1h-2V263.3L619.8,263.3z"/>
				<path fill="#0097D9" d="M631.2,263.3h3.6v13.8h-3.6V263.3z M632.8,257.2h3.7v0.8l-3.2,3.4h-2L632.8,257.2z"/>
				<path fill="#0097D9" d="M638.3,264.1c0.8-0.4,1.6-0.6,2.6-0.8c1-0.2,2.2-0.2,3.2-0.2s1.8,0.2,2.4,0.4c0.6,0.2,1.2,0.6,1.6,1
					c0.4,0.4,0.6,1,0.8,1.6s0.2,1.2,0.2,2s0,1.6,0,2.4s0,1.6,0,2.4s0,1.6,0,2.4s0.2,1.4,0.4,2.2h-3l-0.6-2h-0.2
					c-0.4,0.6-0.8,1-1.6,1.6c-0.6,0.4-1.6,0.6-2.6,0.6c-0.6,0-1.2-0.2-1.8-0.4c-0.6-0.2-1-0.4-1.4-0.8s-0.6-0.8-0.8-1.2
					c-0.2-0.4-0.4-1-0.4-1.6c0-0.8,0.2-1.6,0.6-2.2s1-1,1.6-1.4c0.8-0.4,1.6-0.6,2.6-0.8c1-0.2,2.2-0.2,3.4-0.2c0.2-1,0-1.8-0.2-2.2
					c-0.2-0.4-1-0.6-1.8-0.6s-1.6,0-2.4,0.2c-0.8,0.2-1.4,0.4-2,0.6L638.3,264.1z M642.9,274.4c0.8,0,1.4-0.2,1.8-0.4
					c0.4-0.2,0.8-0.6,1-1v-1.8c-0.6,0-1.2,0-1.6,0c-0.6,0-1,0.2-1.4,0.2c-0.4,0.2-0.8,0.4-1,0.6s-0.4,0.6-0.4,1c0,0.6,0.2,1,0.4,1.2
					C642.1,274.4,642.5,274.4,642.9,274.4z"/>
			</g>
			<g>
				<path fill="#0097D9" d="M577.8,227.4c-29.6-12.4-43.6-46.8-31-76.3c12.4-29.6,46.8-43.6,76.3-31c29.6,12.4,43.6,46.8,31,76.3
					C641.7,225.8,607.4,239.8,577.8,227.4z"/>
				<g>
					<polygon fill="#FFC500" points="599.1,141 594.3,148.9 586.4,143.2 585.1,152.7 575.8,150.3 578.2,159.6 568.5,160.9 
						574.4,168.6 565.9,173.6 574.4,178.5 568.5,186.2 578.2,187.6 575.8,196.8 585.1,194.5 586.4,204.1 594.3,198.2 599.1,206.3 
											"/>
					<path fill="#FFFFFF" d="M599.1,149.3c-13.4,0.2-24.3,10.8-24.3,24.3c0,13.2,10.8,24.1,24.3,24.3V149.3z"/>
					<path fill="#FFE700" d="M599.1,152.1c-11.8,0.2-21.5,9.7-21.5,21.5s9.7,21.5,21.5,21.5V152.1L599.1,152.1z"/>
					<g>
						<path fill="#ACDCE7" d="M630.8,166.3c0.2-0.8,0.4-1.8,0.4-2.8c0-6.1-5.5-11.2-12.2-11.2c-2.4,0-4.7,0.6-6.5,1.8
							c-1.4-4.5-5.5-7.9-10.8-8.5v31H624c1.2,0.8,2.6,1.2,3.9,1.2c3.7,0,6.7-2.8,6.7-6.1C634.8,169.4,633.2,167.2,630.8,166.3z"/>
						<g>
							<path fill="#ACDCE7" d="M612.5,196.6c-0.6-0.2-1.4,0.2-1.6,1c-0.2,0.6,0.2,1.4,1,1.6c0.6,0.2,1.4-0.2,1.6-1
								C613.5,197.4,613.1,196.8,612.5,196.6z"/>
							<path fill="#ACDCE7" d="M615.6,182c0.6,0.2,1.4-0.2,1.6-1c0.2-0.6-0.2-1.4-1-1.6c-0.6-0.2-1.4,0.2-1.6,1
								C614.7,181.3,615.1,181.8,615.6,182z"/>
							<path fill="#ACDCE7" d="M608.5,182.6c-0.6-0.2-1.4,0.2-1.6,1c-0.2,0.6,0.2,1.4,1,1.6c0.6,0.2,1.4-0.2,1.6-1
								C609.7,183.4,609.3,182.8,608.5,182.6z"/>
							<path fill="#ACDCE7" d="M615.1,185.4c-0.6-0.2-1.4,0.2-1.6,1c-0.2,0.6,0.2,1.4,1,1.6c0.6,0.2,1.4-0.2,1.6-1
								C616,186.2,615.6,185.4,615.1,185.4z"/>
							<path fill="#ACDCE7" d="M613.7,190.9c-0.6-0.2-1.4,0.2-1.6,1c-0.2,0.6,0.2,1.4,1,1.6c0.6,0.2,1.4-0.2,1.6-1
								S614.5,191.1,613.7,190.9z"/>
							<path fill="#ACDCE7" d="M607.4,188.4c-0.6-0.2-1.4,0.2-1.6,1c-0.2,0.6,0.2,1.4,1,1.6c0.6,0.2,1.4-0.2,1.6-1
								C608.3,189.1,608,188.4,607.4,188.4z"/>
							<path fill="#ACDCE7" d="M602.6,182.6c-0.4,0-0.8,0-1,0.2v2c0.2,0,0.2,0.2,0.4,0.2c0.6,0.2,1.4-0.2,1.6-1
								C603.8,183.4,603.4,182.8,602.6,182.6z"/>
							<path fill="#ACDCE7" d="M606,193.9c-0.6-0.2-1.4,0.2-1.6,1c-0.2,0.6,0.2,1.4,1,1.6c0.6,0.2,1.4-0.2,1.6-1
								C607.2,194.9,606.8,194.1,606,193.9z"/>
							<path fill="#ACDCE7" d="M601.6,188.4v2.2c0.4-0.2,0.6-0.4,0.6-0.8C602.4,189.1,602.2,188.6,601.6,188.4z"/>
							<path fill="#ACDCE7" d="M625.7,187.6c-0.6-0.2-1.4,0.2-1.6,1c-0.2,0.6,0.2,1.4,1,1.6c0.6,0.2,1.4-0.2,1.6-1
								C626.7,188.6,626.3,187.8,625.7,187.6z"/>
							<path fill="#ACDCE7" d="M618.4,196.6c-0.6-0.2-1.4,0.2-1.6,1c-0.2,0.6,0.2,1.4,1,1.6c0.6,0.2,1.4-0.2,1.6-1
								C619.4,197.4,619,196.8,618.4,196.6z"/>
							<path fill="#ACDCE7" d="M624.3,193.3c-0.6-0.2-1.4,0.2-1.6,1c-0.2,0.6,0.2,1.4,1,1.6c0.6,0.2,1.4-0.2,1.6-1
								C625.5,194.1,625.1,193.5,624.3,193.3z"/>
							<path fill="#ACDCE7" d="M626.9,182c-0.6-0.2-1.4,0.2-1.6,1c-0.2,0.6,0.2,1.4,1,1.6c0.6,0.2,1.4-0.2,1.6-1
								S627.7,182,626.9,182z"/>
							<path fill="#ACDCE7" d="M619.6,190.9c-0.6-0.2-1.4,0.2-1.6,1c-0.2,0.6,0.2,1.4,1,1.6c0.6,0.2,1.4-0.2,1.6-1
								C620.8,191.7,620.2,191.1,619.6,190.9z"/>
							<path fill="#ACDCE7" d="M620.8,185.4c-0.6-0.2-1.4,0.2-1.6,1c-0.2,0.6,0.2,1.4,1,1.6c0.6,0.2,1.4-0.2,1.6-1
								S621.6,185.4,620.8,185.4z"/>
							<path fill="#ACDCE7" d="M623.1,199c-0.6-0.2-1.4,0.2-1.6,1c-0.2,0.6,0.2,1.4,1,1.6c0.6,0.2,1.4-0.2,1.6-1
								C624.1,199.8,623.7,199.2,623.1,199z"/>
							<path fill="#ACDCE7" d="M621.6,182c0.6,0.2,1.4-0.2,1.6-1c0.2-0.6-0.2-1.4-1-1.6c-0.6-0.2-1.4,0.2-1.6,1
								C620.6,181.3,621,181.8,621.6,182z"/>
						</g>
					</g>
				</g>
			</g>
		</g>
	</g>
</g>
</svg>
