<?xml version="1.0" encoding="utf-8"?>
<!-- Generator: Adobe Illustrator 19.1.0, SVG Export Plug-In . SVG Version: 6.00 Build 0)  -->
<svg version="1.1" id="Layer_1" xmlns="http://www.w3.org/2000/svg" xmlns:xlink="http://www.w3.org/1999/xlink" x="0px" y="0px"
	 viewBox="-452.8 -777 4542.2 431.1" style="enable-background:new -452.8 -777 4542.2 431.1;" xml:space="preserve">
<style type="text/css">
	.st0{opacity:0.8;}
	.st1{fill:#FFFFFF;}
	.st2{fill:#EABD06;}
	.st3{opacity:0.5;fill:#FFFFFF;enable-background:new    ;}
	.st4{opacity:0.7;fill:#FFFFFF;enable-background:new    ;}
	.st5{opacity:0.3;fill:#FFFFFF;enable-background:new    ;}
</style>
<g class="st0">
	<polygon class="st1" points="711.3,-534.5 707.4,-512.9 715.4,-512.9 	"/>
	<path class="st1" d="M829.4-714.6h-4v11.2h4c2.6,0,3.6-0.9,3.6-4v-3.8C832.9-713.7,832-714.6,829.4-714.6z"/>
	<polygon class="st1" points="783.8,-534.5 779.9,-512.9 787.8,-512.9 	"/>
	<path class="st1" d="M783.1-655.7c-1.7,0.8-1.8,2.8-1.8,4.4v23.1c0,1.4,0.3,3.7,3.8,3.7c4,0,3.8-3.5,3.8-4.6v-23.2
		c0-1.2-0.2-3.8-3.7-3.8C784.8-656.2,784-656.1,783.1-655.7z"/>
	<path class="st1" d="M680.3-476.8c-1.5-1.4-4-1.3-5.9-1.3h-2.6v32.4h3.5c1.3,0,2.9,0,4.1-0.7c0.9-0.5,1.6-1.2,2.1-3.1
		c0.3-1.6,0.3-6,0.3-10.8c0-3.5,0.1-6.9,0-10.4C681.6-473.8,681.4-475.5,680.3-476.8z"/>
	<path class="st1" d="M708.4-643.5c0.6-0.7,0.6-2.1,0.6-2.9v-4.3c0-1.2,0.2-2.4-0.6-3.3c-0.9-1.2-2.5-0.9-2.9-0.9h-3.8v12.3h3.8
		C707.2-642.7,708-642.8,708.4-643.5z"/>
	<polygon class="st1" points="728,-632.5 733.4,-632.5 730.9,-650.5 	"/>
	<path class="st1" d="M757.8-655.1h-4v11.2h4c2.6,0,3.6-0.9,3.6-4v-3.8C761.4-654.3,760.5-655.1,757.8-655.1z"/>
	<path class="st1" d="M868.7-536.4c-0.5-0.8-1.7-2.1-4-2.1c-0.6,0-2,0.1-3.1,1c-2.1,1.6-2.1,4.4-2.1,9.3v2.9c0,4,0,8.1,0.1,12.1
		c0,3,0,4.8,0.5,6.1c0.5,1.3,1.4,3.1,4.5,3.1c1.7,0,3.3-0.8,4.1-2.4c0.8-1.7,0.9-5.2,0.9-9.9c0.1-1.8,0.1-3.7,0.1-5.6
		c0-2.9,0-5.9-0.1-8.7C869.5-532.3,869.6-534.9,868.7-536.4z"/>
	<polygon class="st1" points="767.1,-573.1 772.5,-573.1 769.9,-591.1 	"/>
	<path class="st1" d="M870.2-477c-0.5-0.8-1.7-2.1-4-2.1c-0.6,0-2,0.1-3.1,1c-2.1,1.6-2.1,4.4-2.1,9.3v2.9c0,4,0,8.1,0.1,12.1
		c0,3,0,4.8,0.5,6.1c0.5,1.3,1.4,3.1,4.5,3.1c1.7,0,3.3-0.8,4.1-2.4c0.8-1.7,0.9-5.2,0.9-9.9c0.1-1.8,0.1-3.7,0.1-5.6
		c0-2.9,0-5.9-0.1-8.7C871-472.9,871-475.4,870.2-477z"/>
	<path class="st1" d="M801.2-715.7c-0.5,0-1.5,0.1-2.5,0.8c-1.7,1.2-1.5,3-1.5,4.7v21.2c0,1.3-0.1,2.8,0.7,3.9
		c0.9,1.3,2.8,1.3,3.1,1.3s1.5-0.1,2.4-0.7c1.4-1,1.4-2.6,1.4-4.3v-21.6c0-0.2,0.2-2.2-0.5-3.3C804.1-714.6,803.1-715.7,801.2-715.7
		z"/>
	<path class="st1" d="M843.4-446.2c0.9-0.5,1.6-1.2,2.1-3.1c0.3-1.6,0.3-6,0.3-10.8c0-3.5,0.1-6.9,0-10.4c-0.1-3.3-0.2-5.1-1.5-6.3
		c-1.5-1.4-4-1.3-5.9-1.3h-2.6v32.4h3.5C840.5-445.5,842.1-445.5,843.4-446.2z"/>
	<path class="st1" d="M859.1-596.8c-0.5,0-1.5,0.1-2.5,0.8c-1.7,1.2-1.5,3-1.5,4.7v21.2c0,1.3-0.1,2.8,0.7,3.9
		c0.9,1.3,2.8,1.3,3.1,1.3c0.3,0,1.5-0.1,2.4-0.7c1.4-1,1.4-2.6,1.4-4.3v-21.6c0-0.2,0.2-2.2-0.5-3.3
		C861.9-595.7,861-596.8,859.1-596.8z"/>
	<path class="st1" d="M843.8-407.1c-0.9-1.8-1.8-2.1-3.8-1.2l-2.9,1.5l4.1,7.8l2.9-1.5c1.8-1,2.2-2,1-4.1L843.8-407.1z"/>
	<polygon class="st1" points="825.9,-382.4 829.8,-383.8 822.9,-396.5 	"/>
	<path class="st1" d="M862.2-418c-0.6-0.8-1.2-1.7-2.3-1.8c-1-0.1-1.8,0.6-2.6,1.2l-2,1.4l13.6,19.2l1.7-1.3c0.5-0.3,0.9-0.7,1.4-1
		c1.4-1.5,0.7-2.8-0.2-4L862.2-418z"/>
	<polygon class="st1" points="771.3,-371.8 775.5,-372 772.8,-386.1 	"/>
	<path class="st1" d="M674.3-410.7l1.6-2.4c1.2-1.7,0.9-2.6-0.8-3.8l-2.6-1.8l-4.9,7.4l2.6,1.8C671.9-408.5,672.9-408.7,674.3-410.7
		z"/>
	<polygon class="st1" points="685.9,-390.1 690.5,-403.6 682.1,-391.9 	"/>
	<path class="st1" d="M764.8-758.8c-46.1,0-88.7,15.4-122.9,41.3c-2.6-33.3-30.4-59.5-64.3-59.5c-23.4,0-43.7,12.4-55.1,31.1
		c-0.1-0.2-0.2-0.3-0.2-0.6c0-0.1,0-0.2-0.1-0.2c-0.1,0.2-0.2,0.3-0.3,0.6c-2.8-2-5.8-2.3-7.4-2.3c-0.1,0-0.5,0-0.6,0
		c-2.3,0.1-10.1,1.2-12.4,11.3c-1,3.6-1.2,6.9-1.3,9.5c0,0.9-0.1,2-0.2,2.9c-0.3,3.7-0.3,7.1-0.1,10.5c-5.2,4.1-7.5,10.2-6.8,18.3
		c0.8,9.3,3.5,18.1,7.8,26.1c0.1,0.2,0.2,0.5,0.5,0.7c0.3,0.5,0.6,1,0.8,1.5c0.3,0.8,0.8,1.7,1.4,2.6c-3.2,7.6-1.6,15.8,4.8,22.4
		c3.3,5.1,7.5,9.2,11.2,12.8l1,1l1.6,1.6c-2.9,4.1-4.3,8.5-4,12.9c0.2,5.5,2.8,10.7,7.5,15.4c3,4.6,6.2,8.7,9.4,12.7l1.5,1.8
		c1.3,2.4,2.9,4.1,4,5.4c0.1,0.1,0.2,0.2,0.3,0.3c1.4,2.8,3.2,4.7,4.5,6.2c0.5,0.5,0.8,0.9,1.2,1.3l5.9,8.2l2.3,3.5l13.5,20.7
		c1,3.1,3,5.2,4,6.3l0.3,0.3c0.5,0.5,0.9,0.9,1.5,1.3c-1.2,3.8-2.2,7.7-3.1,11.7c-1.7,3.3-2.6,6.6-3.5,9.4c-0.5,1.6-0.9,3.1-1.4,4.4
		l-11,27.7L541-448c-2.3,0.1-4.4,0.5-6.2,0.8l-0.9,0.1c-13.5,2.3-19.3,7.9-22.1,21.3c-3.9,10.9-6.8,22.1-9.3,32.1
		c-2.9,7.7-5.6,16.7-1.8,24.9c3.7,7.8,11.6,11.5,19.7,14.3c15.3,5.3,31.1,6.9,44.8,7.8c2,0.6,4,0.9,6.2,0.9c0.8,0,1.6,0,2.4-0.1h0.7
		h4c1.3,0,2.4,0,3.7,0c8.3,0,16.5-0.5,24.5-1.5c0.5,0,1.3,0,1.3,0c6.9,0,13.5-1.2,19-2.3c6.8-1.4,12.8-4.1,17.7-8.1
		c9.8-7.7,9.2-16.6,7.9-21.1c-0.7-2.6-1.4-5.4-2.2-8.1c32.6,22.2,71.9,35.2,114.4,35.2c112.4,0,203.4-91.1,203.4-203.4
		S877.1-758.8,764.8-758.8z M564.1-565.9L564.1-565.9c-0.8-1.3-1.7-2.4-2.5-3.7c-2.1-2.8-4-5.5-6.1-8.3l0,0c-1.7-2.3-4-4-5.2-6.8
		c-1.4-2-3.5-3.5-4.4-5.9c-4.1-5.1-8.4-10-11.9-15.6c-6.6-5.9-6.7-11.4-0.7-17.7c1.4-1.4,4.5-2.3,2.2-5.3l0,0
		c-1.4-1.5-2.6-2.9-4-4.4c-1.2-1.2-2.3-2.3-3.6-3.3c-4-4-8.1-7.9-11.2-12.8c-4.8-4.6-5.3-9.2-1.4-14.2c1.2-1.4,1.3-2.4,0.2-3.7l0,0
		c-2.8-1.8-3.6-5.1-5.2-7.7c-3.7-6.8-5.8-14.2-6.4-21.9c-0.3-3.2-0.1-6.7,2.9-8.9c1.7-1.3,3.5-2.2,4.3,1c1.3,5.1,4,9.5,6.4,14.3l0,0
		l0,0c1.7,2.5,3.5,5.1,5.2,7.7l0,0c2.8,2.2,4.7,5.1,6.8,7.7c3.2,2.8,6.7,5.2,9.4,8.5l0,0c2.4,0.9,4.3,2.5,6,4.3l0,0l0,0
		c2,0.8,3.8,1.8,5.2,3.5l0,0c2.2,0.5,3.6,2.1,5.1,3.5c2.3,1.4,4.6,2.6,6,5.1l0,0l0,0c4,2,6.7,5.3,9.4,8.6c9,8.6,14.4,19.2,16.5,31.5
		l0,0c0.7,3.1,1.8,6.1,1.3,9.3l0,0c0.1,0.3,0.1,0.7,0.2,1l0,0l0,0c0,1.4,0.1,2.9,0.1,4.3c0.2,3.5,0.3,6.9-0.2,10.4l0,0l0,0
		c-0.1,1.8,0.6,3.7-0.5,5.4c-0.3,3.3-0.7,6.6-1,9.9l0,0l0,0c0.3,2.2-0.6,4-1.6,6.7c0-5.3,0-9.8,0-14.4c-0.9-4.7-1.8-9.5-2.8-14.3
		l0,0c-0.2-0.9-0.6-1.7-0.8-2.6c-0.6-1.7-1.2-3.3-1.7-5.1c-1.2-2.4-2.2-4.7-3.3-7.1c-2.8-5.1-5.9-9.9-9.4-14.5c-1-0.5-1.7-1-1.7-2.3
		l0,0c-2.4-1.7-4.5-3.7-6.2-6.2c-0.5-0.3-1-0.6-1.5-0.9c-1.3-0.6-2.9-0.8-3.9-1.8c0,0.2-0.1,0.6-0.2,0.8c1.5,0,1.8,1.5,2.5,2.5
		c0.6,0.7,1,1.4,1.6,2.1c7,6.9,12,15.2,16,24.2c0.8,1.7,1.4,3.7,2.1,5.4l0,0c0.7,0.7,0.8,1.6,0.8,2.5c1.3,4.8,3.2,9.3,3.6,14.4l0,0
		c0.9,1.4,0.6,2.9,0.6,4.4c0.1,1,0.2,2.1,0.3,3.1l0,0c1.2,2.9,0.3,6,0.6,8.9c0,1.7,0.1,3.5,0.1,5.1c0,1.2,0,2.4,0,3.6
		c-0.2,0-0.5,0-0.8,0c0-1.3,0-2.4,0-3.7c-0.2-1.7-0.5-3.5-0.7-5.2l0,0l0,0c-1.6-3-2-6.4-2.5-9.8c-1.3-6.6-4.8-12.2-7.1-18.4l0,0l0,0
		c-0.6-0.9-1.2-1.7-1.7-2.6l0,0c-2.8-3.5-5.9-6.6-9.2-9.5c-0.3-0.3-1-1.3-1.5-0.1c-0.1,0.2,0.2,0.7,0.5,1.2l0,0
		c2.2,1.6,4.1,3.5,5.2,6c1,1.7,2.2,3.5,3.2,5.2l0,0c0.7,0.7,1.2,1.5,1.2,2.5l0,0c1.7,2,2.8,4.3,3.2,6.9c1.3,1.5,1.6,3.2,1.8,5.1
		c-0.1,1.6,1.8,2.5,1.5,4.4c3.2,10,4.5,20.4,5.4,30.7c-0.9,0.6-1.3-0.3-1.8-0.8C573.8-550.9,569-558.4,564.1-565.9z M637.7-366.7
		c-3.8,3.1-8.4,4.9-13.1,5.9c-6.1,1.3-12.3,2.2-18.6,2c-9.1,1.2-18.3,1.7-27.4,1.5l0,0c-1.4,0-2.9,0-4.3,0l0,0l0,0
		c-2.4,0.1-4.7,0.5-7-0.6c-14.7-0.9-29.5-2.4-43.4-7.2c-15.2-5.3-16.8-9.7-11.2-24.9c0-0.1,0.1-0.2,0.1-0.3l0,0
		c2.8-10.9,5.6-21.9,9.5-32.6l0,0l0,0c1.7-9.3,4.1-11.7,13.2-13.3c2.5-0.5,5.1-1,7.6-0.8c2.8,0.1,4.6-0.8,6.1-3l0,0
		c5.3-11,10.5-22.2,15.8-33.3l0,0c3.7-9.3,7.5-18.6,11.2-28.1c1.8-4.6,2.5-9.5,5.1-13.8c3.1-13.8,8.2-27.2,10.7-41.1
		c1-5.8,2-11.4,2.9-17.1c1.3-13.6,1.7-27.2-1.6-40.5c-1.6-6.6-4.4-12.5-7.2-18.5l0,0c-3.9-4.8-7.8-9.8-11.7-14.6l0,0l0,0l0,0l0,0
		c-1.6-0.2-2.4-1.4-3.3-2.5c-1.7-1.4-3.6-2.9-5.3-4.3c-4.5-3.1-9-6.3-13.6-9.4c-1.6-0.6-3-1.4-4.3-2.6c-4.1-2.3-7.9-4.9-11.4-8.2
		l0,0c-1.2-0.9-2.3-1.8-3.3-2.8c-1.5-0.8-2.5-2-3.5-3.3c-0.8-0.5-1.4-0.9-1.6-1.8c-0.9-1.2-1.8-2.2-2.8-3.3
		c-9.4-10.9-16-22.9-14.3-38c0.3-3.6,0.1-7.1,1-10.6c0.3-1.4,0.5-3.1,2.2-3.2c1.7-0.1,2,1.7,2.5,3c1.4,3.5,1.4,7.2,1.7,10.9
		c0.8,10.2,2.1,20.5,6.3,30c1.7,3.8,4.5,6.8,6.9,10.1c3.1,2.3,5.2,6.1,9.4,6.9c2.6,0.8,2.8,0.7,2.4-2c-0.6,0-1.2-0.1-1.6-0.5
		c-2.1-2.5-4.1-5.2-6.3-7.7l0,0c-1.5-1.5-2.3-3.3-3.2-5.2l0,0c-1.6-2.1-2.4-4.5-3.1-6.9c-2-3.5-2.5-7.2-2.8-11.2
		c-2.4-14.7,1.5-27.7,10.2-39.6c4.1-5.6,9.2-10.2,15.4-13.5c3-1.8,6-3.5,9.4-4.3c2.8,0.9,3.9,3,4.4,5.8l0,0c1.4,2.8,0.8,5.8,0.8,8.6
		l0,0c0.6,0,1.4-0.8,1.5,0.3c0,0.5,1,1.7-0.7,1.5c-3.7,3.2-4.7,7.2-4.1,12c0.3,0.5,0.9,0.8,1,1.3c0.2,3.2-0.5,6.6,2.3,9.3
		c1.4,1.4-0.2,3.8,0.1,5.6c1.7,1.2,1.5,3.6,3.5,4.6c2.5,1.4,3.5,3.9,4.4,6.3c0.3,1,0.2,2.2,1.5,2.8l0,0c2.3-2.8-0.7-6.4,1.5-9.4
		c0.6-0.8-0.7-1.4-1.6-1c-1.5,0.6-2.9,0.5-3.6-1c-0.8-1.8,0.6-3.2,1.6-4.5c1.2-1.5,2.5-1.3,4.1-0.8c3.7,1.2,5.5,3.6,5.8,7.4
		c1.8-1.6,1.5-6.1,5.8-4.5l0,0c1.7-2.4,4.4-2.9,7-3.2c1.8-1.2,3.5-0.2,5.1,0.5c0.1,0.1,0.2,0.3,0.2,0.5c0.6-0.1,1.3,0,1.4-0.9
		c0.5-4.3,3.6-0.9,5.2-1.7c0.1,1.2,0.3,2.3,0,3.5c0.7-0.3,0.7-1.2,0.9-1.8c-0.5-0.2-0.5-0.7-0.3-1.2c0.1-0.1,0.2-0.2,0.3-0.3
		c2-0.6,1.8-2.1,1-3.3c-0.9-1.5-0.8-2.9-0.8-4.5c0-1.4,1.2-3.7-2.2-3c-1,0.2-1.3-0.7-1.2-1.7c0.3-2-0.8-3.5-2.2-4.7l0,0
		c-1.4-0.9-3.2-0.8-3.3,0.8c-0.2,3.7-3.2,4.5-6.2,6.4c1.6-2.8-0.7-4.3-1-6.2l0,0c-0.7-0.9-1.5-1.8-2.2-2.8c-1.7-2.5,0-3.5,2-4.1
		c1.5-0.5,3.1-0.5,4.6-0.1c1.4,1.4,2.3,0,3.3-0.6c1.6,0.3,2.1-0.7,2.9-1.7c1.7-2.4,3.6-2.3,4.9,0.5c0.9,1.8,1.5,3.9,1.4,6
		c-0.5,1.7-2.2,0.9-3.3,1.4c1.2,0.6,2.2,1.5,3.3,2h0.1c-0.2-0.8-0.7-1.6-0.8-2.4c0.9,0.1,1.5,0.3,2,0.8c-0.7-3.8-1.6-7.5-4.3-10.6
		c-0.9-1-1.5-2.2-0.1-3.2c-1-1.4-3,2-3.8-0.7c-0.1-0.6,0-0.8,0.3-1.2c-1.7,0.7-2,2-0.9,3.7c0.3,0.7,0.6,1.4,0.9,2.1
		c-4.4,0-5.2-2.8-5.2-6.3c0.1-0.3,0.3-0.7,0.6-0.9c-1.2,0.5-2.4,0.7-3.2,1.8c-2.5,1.2-4.7,1.3-5.9-1.7c-4.5-0.1-6.2-3.9-8.6-6.8
		c-0.7-0.3-1.3-0.8-2.9-1.7c2.9,0,4.7-0.5,6.3,0.7c2.9,0.5,5.8,0.6,8.4,2.1l0,0l0,0c3,0.1,5.4,1.8,7.7,3.5l0,0
		c1.4,0.8,2.6,1.7,3.3,3.2c0,0,0,0,0.1,0v0.1c2.1,1.4,4.8,0.8,6.8,2.5l0,0l0,0c3.8,3.2,7.5,6.6,10.1,10.8c1.7,2.6,2,5.4-0.7,7.7
		c-1.2,1-0.7,2.8-1.7,3.7c0,2.6,0.5,5.1,3.5,6.1c1.7-1.5,3.3-3.3,6-2.5l0,0c3.9,8.2,3.5,16.7,2.1,25.3c-0.3,2.2-0.9,4.5-1.7,6.6
		c-1,3.1-1.7,6.4-6.1,6.9c-2.4,0.2-3.1,3-4.6,4.6c-0.5,1-1.6,2.2-1.4,3c1.7,7-3.8,9.3-7.8,12.5c-2.9,2.3-6,4.3-9.5,5.3l0,0
		c-5.3,2.9-10.9,4.1-16.8,4.3c-0.2,0.1-0.6,0.2-0.8,0.2c-2.8,0.6-5.4,0.6-8.2-0.2l0,0c-2.1,0.1-4,0.1-6-0.8l0,0
		c-2.6,0.5-5.2-1.6-8.2-0.6c3.1,3.5,7.4,4.9,10.8,7.5l0,0l0,0c3.3,0.7,5.2,3.5,7.7,5.3c5.3,3.1,9.8,7.2,13.7,12
		c14.2,12.9,23.9,28.4,29.2,46.7c1.8,6.4,3.2,13,3.3,19.7l0,0c1,1.6,0.5,3.5,0.5,5.2l0,0c0.1,0.9,0.2,1.7,0.3,2.6l0,0l0,0
		c0,0.8,0.1,1.6,0.1,2.4l0,0c0.9,7.5,0.9,15.1,0,22.6c-0.1,8.3-1,16.5-2.6,24.6l0,0c-2.2,15.2-5.3,30.1-9.7,44.9
		c-0.3,1.4-0.9,2.6-1.4,3.9l0,0l0,0l0,0l0,0c0,1.3-0.1,2.4-0.9,3.5c-1.7,6.2-3.7,12.4-5.1,18.6c-0.9,4-2.8,6.4-6.9,7.2
		c-1.7,0.3-3.5,0.8-5.2,1.3c-5.8,2-12,1.4-17.8,3.2c3,2.1,6.4,1.6,9.5,1.6c6.9,0,13.8-1.2,20.4-3.7c7.6-2.9,19.8,3.2,22.1,10.9
		c2.1,7,4,14.2,6,21.3c2.5,9.3,5.2,18.5,7.7,27.8C642.9-372.2,640.8-369.1,637.7-366.7z M643.3-405.4l-4.6-4l18.6-21.4l-4.6-4
		l3.1-3.6l13.9,12.1l-3.1,3.6l-4.6-4L643.3-405.4z M762.2-704.4v6.3h-11.9v12.9h13.2v6.4h-20.9v-42H763v6.3h-12.5v9.9L762.2-704.4
		L762.2-704.4z M772.4-684.2c0.5,0.2,0.9,0.3,1.4,0.3c0.3,0,1-0.1,1.6-0.6c0.9-0.7,1.2-1.7,1.2-3.8v-32.3h7.8v32.4
		c0,0.3,0,2.6-0.5,4.5c-1.7,6.2-9,6-10.2,6c-0.7,0-4.4,0-6.9-1.8c-0.7-0.5-1.6-1.4-2.3-3.2c-0.5-1.5-0.6-3-0.6-3.5v-5.6h7.1v4
		C771-685.9,771.4-684.8,772.4-684.2z M816.6-630.1v-31.2h7.8v32.4c0,2.5-0.2,4.6-2,6.7c-3,3.9-8.6,3.7-9.7,3.7
		c-3.1,0-6.3-0.7-8.5-3c-0.5-0.5-1.3-1.4-1.7-2.9c-0.6-1.5-0.8-3.1-0.8-4.6v-32.3h7.7v31.2c0,1.2,0,2.3,0.5,3.2
		c0.8,1.7,2.8,1.7,3.2,1.7c0.3,0,1.4,0,2.3-0.7C816.8-626.6,816.6-628.6,816.6-630.1z M842.3-678.6h-8.1l-6-18.6h-2.9v18.6h-7.7v-42
		h15.4c5.1,0,7.6,2.4,7.6,7.5v7.6c0,4.1-1.3,6.1-4.9,7.1L842.3-678.6z M849.3-644.9v6.3h-11.9v12.9h13.2v6.4h-21.1v-42H850v6.3
		h-12.5v9.9L849.3-644.9L849.3-644.9z M874.9-521.9c0,2.5-0.2,4.9-0.2,7.5c0,1.3,0,2.5-0.1,3.8c-0.2,3-0.7,6.7-3.1,8.7
		c-1.4,1.2-3.5,2.2-7.2,2.2c-1.2,0-5.6,0.2-8.2-3.3c-0.3-0.5-0.9-1.3-1.3-2.6c-0.7-2.3-0.7-7.1-0.7-13.2c0-3.8,0.1-7.6,0.1-11.4
		c0.1-4.8,0.8-7.1,2.3-9.1c1.3-1.6,3.8-3.5,8.5-3.5c1.3,0,6.4,0.1,8.6,4.6c0.6,1.2,0.9,2.4,1,3.8C875-531.6,875-524.8,874.9-521.9z
		 M875-478.9c0.6,1.2,0.9,2.4,1,3.8c0.3,3,0.3,9.8,0.3,12.7c0,2.5-0.2,4.9-0.2,7.5c0,1.3,0,2.5-0.1,3.8c-0.2,3-0.7,6.7-3.1,8.7
		c-1.4,1.2-3.5,2.2-7.2,2.2c-1.2,0-5.6,0.2-8.2-3.3c-0.3-0.5-0.9-1.3-1.3-2.6c-0.7-2.3-0.7-7.1-0.7-13.2c0-3.8,0.1-7.6,0.1-11.4
		c0.1-4.8,0.8-7.1,2.3-9.1c1.3-1.6,3.8-3.5,8.5-3.5C867.7-483.5,872.9-483.5,875-478.9z M870.6-568.7c0,2.6-0.5,5.1-2.4,7
		c-2.5,2.3-5.9,2.8-9.1,2.8c-3.1,0-6.2-0.5-8.7-2.4c-1.3-1-1.8-2.1-2.1-2.6c-0.7-1.5-0.9-3.2-0.9-4.8v-23.6c0-0.9-0.2-5.1,2.6-7.6
		c1.5-1.4,4.5-2.8,9.2-2.8c6.1,0,9.3,2.5,10.5,4.9c0.7,1.4,0.9,2.6,0.9,5.6V-568.7z M810.4-440.9h-5.2v-42h7.1l8.5,36.7l-0.7-36.7
		h5.1v42h-7.4l-8.2-36.4L810.4-440.9z M795.8-537.6v-4.7h21.1v4.7h-7.9v37.3h-5.2v-37.3H795.8z M740.5-559.8h-7.2l-6.9-36.4
		l0.6,36.4h-7.6v-42h12.5l4.9,29.3l4.9-29.3h12.4v42h-7.7l0.7-36.4L740.5-559.8z M714.8-585.5v6.3h-11.9v12.9h13.2v6.4h-20.9v-41.9
		h20.4v6.3H703v9.9L714.8-585.5L714.8-585.5z M708.7-542.3h5.2l9.3,42h-5.4l-1.5-8.1h-9.8l-1.4,8.1h-5.4L708.7-542.3z M714.8-482.8
		h5.3v37.3h12.3v4.7h-17.6V-482.8z M728.9-501.5c-0.5-0.3-1.3-1-2-2.2c-1.6-2.4-1.7-5.5-1.7-11.4v-6.7c0-2.4,0-4.7,0.1-7
		c0-3.2,0-7.8,2.2-10.6c1.8-2.5,5.3-3.5,8.3-3.5c3.8,0,5.9,1.5,7,2.6c1.6,1.6,2.2,3.8,2.2,8.4c0,0.9,0,1.8-0.1,2.8h-4.8
		c0-1.5,0-3,0-4.6c-0.1-1.7-0.2-3-1.6-4c-0.5-0.3-1.3-0.8-2.6-0.8c-1.3,0-4,0.3-4.7,3.7c-0.6,2.4-0.6,7.5-0.6,13.8
		c0,3.1,0,6.2,0.2,9.4c0.1,1.6,0,3.9,0.8,5.5c1.2,2.1,3.6,2.1,4.3,2.1c0.5,0,1.6,0,2.8-0.9c2-1.5,2-4.8,2-6.9v-3.1h4.8
		c0,1.5,0,3-0.1,4.5c0,0.3,0,2.2-0.2,3.7c-0.8,4.5-3.1,5.9-4.9,6.6c-2,0.7-4,0.7-4.6,0.7C733-499.7,730.9-500.1,728.9-501.5z
		 M749.6-510.8v-31.5h5.3v27.8c0,3.6-0.1,6.1,0.5,7.6c0.6,1.5,2,2.2,2.5,2.3c0.6,0.2,1,0.3,2.1,0.3c1.6,0,2.8-0.2,3.8-1.5
		c0.2-0.2,0.6-0.7,0.7-1.5c0.2-0.8,0.2-2.9,0.2-5.2v-29.8h5.3v31.3c0,3.9-0.3,7.8-4.3,9.9c-2.5,1.4-5.2,1.3-6.1,1.3
		c-2.5,0-5.8-0.6-7.7-2.4c-0.5-0.5-1.2-1.4-1.7-2.9C749.5-507.3,749.6-510.3,749.6-510.8z M766.2-566.6l-1.2,6.8h-7.7l8.2-42h8.9
		l7.8,42h-7.8l-1-6.8H766.2z M766-605.1l3.8-7.9h9.3l-7.6,7.9H766z M782.2-595.7v-6.1h23.2v6.1h-7.8v35.9h-7.8v-35.9H782.2z
		 M784.5-552.1h6.4l-5.9,6.3h-3.8L784.5-552.1z M781.3-542.3h5.2l9.3,42h-5.4l-1.5-8.1H779l-1.4,8.1h-5.4L781.3-542.3z M779.7-451.4
		v-31.5h5.3v27.8c0,3.6-0.1,6.1,0.5,7.6s2,2.2,2.5,2.3c0.6,0.2,1,0.3,2.1,0.3c1.6,0,2.8-0.2,3.8-1.5c0.2-0.2,0.6-0.7,0.7-1.5
		c0.2-0.8,0.2-2.9,0.2-5.2v-29.8h5.3v31.3c0,3.9-0.3,7.8-4.3,9.9c-2.5,1.4-5.2,1.3-6.1,1.3c-2.5,0-5.8-0.6-7.7-2.4
		c-0.5-0.5-1.2-1.4-1.7-2.9C779.6-447.8,779.7-450.8,779.7-451.4z M808.1-559.8v-42h7.7v42H808.1z M819.8-500.3v-42h5.2v42H819.8z
		 M821.3-564.3c-0.6-1.5-0.6-2.9-0.6-4.4v-22.8c0-0.7,0.1-1.5,0.1-2.2c0.1-2.6,0.8-4.7,3-6.4c1.7-1.4,4-2.4,8.6-2.4
		c2.6,0,5.5,0.3,7.8,2c1.2,0.8,2.1,1.8,2.6,3.1c0.7,1.4,0.7,2.2,0.7,4.7v6.4H836v-5.3c0-3.2-0.6-4.9-4-4.9c-3,0-3.6,1.8-3.6,4.6
		v22.4c0,2.8,0.6,4.7,3.8,4.7c3.5,0,3.8-2,3.8-5.2v-5.5h7.6v6c0,1.6,0,3.5-0.6,4.9c-2.1,5.9-9.8,5.8-10.7,5.8c-1.7,0-3.5-0.3-4-0.5
		C825.2-559.9,822.6-561.3,821.3-564.3z M829.9-521.8c0-2.4,0-4.7,0.1-7c0-3.2,0-7.8,2.2-10.6c1.8-2.5,5.3-3.5,8.3-3.5
		c3.8,0,5.9,1.5,7,2.6c1.6,1.6,2.2,3.8,2.2,8.4c0,0.9,0,1.8-0.1,2.8h-4.8c0-1.5,0-3,0-4.6c-0.1-1.7-0.2-3-1.6-4
		c-0.5-0.3-1.3-0.8-2.6-0.8c-1.3,0-4,0.3-4.7,3.7c-0.6,2.4-0.6,7.5-0.6,13.8c0,3.1,0,6.2,0.2,9.4c0.1,1.6,0,3.9,0.8,5.5
		c1.2,2.1,3.6,2.1,4.3,2.1c0.5,0,1.6,0,2.8-0.9c2-1.5,2-4.8,2-6.9v-3.1h4.8c0,1.5,0,3-0.1,4.5c0,0.3,0,2.2-0.2,3.7
		c-0.8,4.5-3.1,5.9-4.9,6.6c-2,0.7-4,0.7-4.6,0.7c-2.4,0-4.4-0.3-6.3-1.8c-0.5-0.3-1.3-1-2-2.2c-1.6-2.4-1.7-5.5-1.7-11.4v-6.9
		H829.9z M830.6-482.8h7.9c2.5,0,5.1-0.1,7.6,0.9c3.9,1.7,4.5,5.5,4.7,6.8c0.2,1.7,0.3,6.2,0.3,11.2c0,3.1,0,6.2-0.1,9.3
		c0,1.5,0,3.1-0.2,4.6c-0.3,3.3-1.3,6.3-4.4,8.1c-2.5,1.3-5.3,1.2-7.9,1.2h-7.8L830.6-482.8L830.6-482.8z M812.6-687.6
		c0,2.6-0.5,5.1-2.4,7c-2.5,2.3-5.9,2.8-9.1,2.8c-3.1,0-6.2-0.5-8.7-2.4c-1.3-1-1.8-2.1-2.1-2.6c-0.7-1.5-0.9-3.2-0.9-4.8v-23.6
		c0-0.9-0.2-5.1,2.6-7.6c1.5-1.4,4.5-2.8,9.2-2.8c6.1,0,9.3,2.5,10.5,4.9c0.7,1.4,0.9,2.6,0.9,5.6V-687.6z M793.7-659.5
		c0.3,0.3,1.4,1.2,2,2.4c0.7,1.4,0.9,2.5,0.9,5.5v23.6c0,2.9-0.5,3.8-1.2,5.2l4.3,4.4l-4.7,4.7l-5.3-5.4c-0.2,0.1-0.5,0.2-0.7,0.2
		c-0.7,0.2-2.5,0.6-4.5,0.6c-3.1,0-6.4-0.7-8.7-3c-0.9-0.9-1.3-1.7-1.5-2.3c-0.7-1.6-0.7-3.3-0.7-3.9V-652c0-1.8,0.1-3.3,0.9-5.1
		c1.3-2.5,4.5-5.1,10.7-5.1C788.1-662,791.4-661.5,793.7-659.5z M769-653.6v7.6c0,4.1-1.3,6.1-4.9,7.1l6.6,19.7h-8.1l-6-18.6h-2.9
		v18.6H746v-42h15.4C766.6-661.1,769-658.7,769-653.6z M743.1-619.2h-7.8l-1-6.8h-7.1l-1.2,6.8h-7.7l8.2-42h8.9L743.1-619.2z
		 M737.2-678.6h-7.7l0.7-36.4l-6.8,36.4h-7.2l-6.9-36.4l0.6,36.4h-7.6v-42h12.5l4.9,29.3l4.9-29.3h12.4v42H737.2z M709.6-661.1
		c0.2,0,1.3,0,2.1,0.2c2.5,0.6,3.7,2.2,4.1,3c0.9,1.7,0.9,4.5,0.9,6.3v5.5c0,3.9-0.2,5.9-1.5,7.5c-1.3,1.5-3,2.1-6.8,2.1h-6.6v17.5
		h-7.8v-42h15.5V-661.1z M710.3-482.8v4.7h-13.2v12.4h11.6v4.7h-11.6v15.3h13.7v4.7h-18.9v-42L710.3-482.8L710.3-482.8z
		 M692.7-595.7h-7.8v35.9H677v-35.9h-7.7v-6.1h23.4V-595.7z M670.5-542.3l6.2,20.9l6.2-20.9h5.5l-9.2,25v17h-5.4v-17l-8.9-25H670.5z
		 M686.9-464c0,3.1,0,6.2-0.1,9.3c0,1.5,0,3.1-0.2,4.6c-0.3,3.3-1.3,6.3-4.4,8.1c-2.5,1.3-5.3,1.2-7.9,1.2h-7.8v-42h7.9
		c2.5,0,5.1-0.1,7.6,0.9c3.9,1.7,4.5,5.5,4.7,6.8C686.8-473.4,686.9-469,686.9-464z M662.3-391.3l4.4-14.8l-2-1.3l-8.3,12.2
		l-5.1-3.5l18.6-27.5l10.1,6.9c3.3,2.3,3.9,4.9,1.6,8.3l-3.3,4.9c-1.8,2.8-3.5,3.5-6.4,2.5l-4.5,15.8L662.3-391.3z M682.3-379.9
		l1.7-5.2l-5.1-2.5l-3.2,4.4l-5.4-2.8l20.8-26.7l6.2,3.2l-9.5,32.4L682.3-379.9z M745-372l-1.3,9.8l-6.2-0.8l1.3-10.1l-3.2-20.8
		l-12.9,28.3l-6-1.5l1.4-31.1l-16,26.7l-5.8-2.2l5.4-33.4l6.1,2.3l-4.6,21.7l10.5-19.6l5.1,1.8l5.8,1.4l-2.1,22.1l8.2-20.8l5.5,1.4
		l5.3,0.7l1.3,17l5.3-16.2l6.3,0.8L745-372z M751.2-478.9l0.8,38H747v-42h7.8l5.9,37.4l5.8-37.4h7.9v42h-4.8l0.7-38l-6.2,38h-6.6
		L751.2-478.9z M777.5-361.5l-1-5.4l-5.6,0.2l-0.7,5.4l-6.1,0.2l4.8-33.5l7-0.3l7.7,32.9L777.5-361.5z M806.2-365.7l-7.7-21.5
		l1,22.9l-6.4,1.3l-12.7-31.3l6.2-1.3l8.3,23.8l-1.5-25.2l5.6-1.2l8.4,23.8l-1.6-25.2l6.1-1.3l0.5,33.8L806.2-365.7z M834.9-374.5
		l-2.6-4.8l-5.3,2l1,5.4l-5.8,2.2l-5.6-33.4l6.6-2.4l17.5,28.9L834.9-374.5z M856.6-384.9l-11-10.8l-2.1,1l6.9,13l-5.4,2.9
		l-15.4-29.3l10.8-5.8c3.6-1.8,6.1-1.2,8.1,2.4l2.8,5.3c1.5,2.9,1.4,4.7-0.8,6.9l11.9,11.4L856.6-384.9z M878.4-400.3
		c-0.8,1.7-2.2,2.9-3.7,3.9l-8.1,5.6l-19.2-27.2l9.2-6.4c0.7-0.5,2.3-1.5,4.7-1.3c3,0.2,4.5,2.2,6.1,4.4l9,12.7c0.3,0.5,0.7,1,1,1.5
		C879.3-404,879.1-401.7,878.4-400.3z M893.3-410.5c-1.7,1.6-3.8,3-6.3,3.2c-1.4,0.1-2.3-0.2-2.8-0.5c-0.9-0.5-1.5-0.7-2.8-2.1
		l-3.2-3.6l4.5-4.1l2.6,2.9c0.8,0.9,1.7,2,3.1,1.7c0.5-0.1,1-0.3,1.7-0.9c0.8-0.7,1-1.3,1.2-1.8c0.2-1.2-0.8-2.2-2.3-3.9
		c-0.2-0.3-1.3-1.5-2.5-1.8c-0.8-0.2-1.6,0-2,0l-6.9,1c-1.5,0.2-2.3,0.3-3.9-0.1c-1.3-0.3-2.5-1-4.4-3.1c-0.3-0.3-2-2.1-2.5-3.9
		c-1.4-4.3,2.9-8.1,3.3-8.5c0.7-0.7,4.6-4.3,8.9-2.2c0.8,0.3,1.2,0.5,2.3,1.7l2.2,2.4l-4.5,4.1l-2.3-2.5c-0.7-0.7-2-1.5-3.7,0.1
		c-1,0.9-1.6,2.2,0.2,4.3c0.1,0.1,1.4,1.6,2.6,2c0.3,0.1,0.9,0,1.6-0.1l7.1-1c0.5-0.1,2.2-0.2,3.8,0c2.4,0.5,3.2,1.6,4.8,3.3
		c1.7,1.8,2.4,2.6,3.1,3.8C897.5-417.7,897.5-414.3,893.3-410.5z M953-510.8c-3.5,13.3-8.3,25.2-13.1,35.3
		c-4.9,10.1-10.1,18.5-14.7,25.3c-2.3,3.3-4.4,6.3-6.4,8.9c-2,2.5-3.7,4.8-5.1,6.3c-2.6,3.2-4,4.8-4,4.8c-4,4.8-11.3,5.5-16.2,1.5
		c-4.8-4-5.5-11.3-1.5-16.2c0.2-0.3,0.6-0.7,0.9-0.9c0,0,1.6-1.5,4.6-4.4c1.6-1.5,3.1-3.1,5.1-5.1c2-1.8,4-4.4,6.4-7.1
		c4.6-5.6,10.1-12.7,15.4-21.4c5.3-8.7,10.5-19.2,14.6-31.2c4.1-12,7.2-25.5,8.6-40.2c0.2-1.8,0.2-3.7,0.3-5.5l0.1-2.8l0.1-1.4v-0.2
		c0,0.1,0-0.5,0,0.1v-0.3v-0.7c-0.1-3.9-0.2-7.8-0.3-11.9c0-2-0.1-4-0.1-6c-0.2-2-0.5-3.8-0.8-5.8c-0.5-3.9-1-7.8-1.5-11.7
		c-0.9-3.9-1.8-7.8-2.8-11.9c-0.5-2-0.9-4-1.5-6l-2.1-5.9c-1.5-3.9-2.6-7.9-4.4-11.7c-1.8-3.8-3.6-7.6-5.4-11.5L928-651l-1.6-2.8
		l-3.3-5.5l-3.3-5.5c-1-1.8-2.5-3.5-3.8-5.3c-2.6-3.5-5.2-7-7.8-10.4l-8.7-9.7c-2.8-3.3-6.2-6.1-9.3-9.1c-3.2-2.9-6.3-6-9.9-8.4
		c-3.5-2.6-6.9-5.2-10.4-7.8c-3.7-2.3-7.4-4.5-11-6.7c-1.8-1-3.6-2.3-5.5-3.2l-5.8-2.8c-3.9-1.7-7.6-3.9-11.5-5.3
		c-3.9-1.5-7.9-2.9-11.9-4.4l-2.9-1l-3.1-1c-2-0.6-4-1-6-1.5c-2-0.5-3.9-1-6-1.5l-3-0.8l-3-0.5c-4-0.6-7.9-1.2-11.9-1.8
		c-3.9-0.8-7.8-0.8-11.6-1c-3.8-0.2-7.6-0.3-11.4-0.6c-15.2,0-29.2,1.7-42.1,4.6c-12.8,2.9-24.2,7-33.9,11.3
		c-9.8,4.4-17.8,8.9-24.4,13c-6.4,4.1-11.3,7.7-14.5,10.2c-3.2,2.5-4.8,3.9-4.8,3.9h-0.1c-0.8,0.7-2.1,0.6-2.8-0.3
		c-0.7-0.8-0.6-2.1,0.3-2.8l0,0c0,0,1.7-1.4,5.1-3.9c3.3-2.5,8.4-6,15-10.1c6.7-4,15-8.6,25-12.9c9.9-4.3,21.6-8.2,34.5-11.2
		c13-3,27.5-4.7,42.7-4.8c3.8,0.2,7.7,0.3,11.6,0.6c3.9,0.2,7.9,0.2,11.9,0.9c4,0.6,7.9,1.2,12.1,1.7l3,0.5l3,0.7c2,0.5,4,1,6.1,1.5
		s4,1,6.1,1.5l3.1,0.8l3,1c4,1.4,8.1,2.8,12.1,4.3c4,1.4,7.9,3.5,11.9,5.2l6,2.8c2,0.9,3.8,2.2,5.8,3.2c3.8,2.2,7.6,4.5,11.4,6.7
		c3.6,2.5,7.2,5.2,10.8,7.7c3.8,2.4,7,5.5,10.4,8.4c3.3,3,6.9,5.6,9.9,9.1l9.3,9.7c2.9,3.5,5.5,7,8.4,10.5c2.9,3.5,5.3,7.2,7.7,10.9
		l3.7,5.6l1.8,2.8l1.5,3c8.9,15.4,14.4,32.1,18.9,48.4c0.8,4.3,1.5,8.4,2.3,12.5c0.3,2.1,0.7,4.1,1.2,6.2c0.1,2,0.3,4,0.5,6
		c0.3,4,0.6,7.9,0.9,11.7l0.1,0.7v0.3v0.7v1.5v3c0,2,0.1,3.9,0,5.9C959-538.8,956.5-524.1,953-510.8z"/>
	<path class="st1" d="M601.9-561.7c-0.1-0.1-0.1-0.1-0.2-0.2c0,0.1,0,0.2,0,0.3C601.8-561.6,601.9-561.7,601.9-561.7z"/>
	<path class="st1" d="M563.8-673.3c2,1.3,4.3,1.6,6.3,2.4c0.5,0.2,1,0.3,1.5,0.6c1.5-0.5,3-1.4,4.7-1.2c0.2-0.1,0.6-0.2,0.8-0.3
		c0.7-0.2,1.3-0.6,2-0.2c2-2.4,4.4-3.8,7.5-3.5c2.2,0.2,3.7-1,5.2-2.3c1.7-1.4,3.3-3.3,5.9-2.2c0-1.3,0.3-2.3,1.2-3.3
		c-3-0.8-4.3-2.9-4.6-5.9v-0.1c-0.9-0.6-1.7-1.3-1.4-2.4c0.7-2.9-0.8-4.8-2.4-6.8h-0.1c-1.2-1-1.2-2.9-2.6-3.6
		c-2.6-1.8-5.1-4.1-8.4-4.9c0-0.1-0.1-0.1-0.1-0.2c-0.2,0.2-0.6,0.5-0.8,0.3c0.2,2.1-0.9,3.3-2.6,4.3c-1.7,1-3.1,2.3-4.6,3.7
		c0,0,0,0-0.1,0.1c3.6,7.4,1.6,15.1-5.3,21.2c-0.7,0.7-1.6,1.2-2.3,1.7C562.7-674.8,562.8-674,563.8-673.3z"/>
	<path class="st1" d="M513-390.4c0.2,0.2,0.6,0.5,0.8,0.7C513.6-390.1,513.3-390.3,513-390.4z"/>
	<path class="st1" d="M547.5-413.8c-0.9-0.2-4.7-1-7.6,1.2c-1.8,1.4-2.5,3.2-2.9,5.4l-0.9,4.5l6,1.3l0.9-4.4c0.2-1.3,0.7-2.5,2.2-3
		c0.7-0.1,1.5,0,1.6,0c0.2,0,1.2,0.2,1.6,0.8c0.7,0.8,0.6,1.8,0.3,2.9L548-401c-0.2,0.9-0.3,1.6-0.9,2.4c-0.9,1.3-2.3,2.1-3.6,3
		c-0.7,0.5-1.4,0.9-2.1,1.4c-2.8,1.8-5.1,3.2-7.1,5.9c-2.1,2.8-3.1,5.6-3.8,8.9l-0.2,0.9l19.3,3.9l1.2-5.5l-12.2-2.4
		c0.2-1,0.3-1,0.6-1.6c1.2-2.1,3.6-3.5,5.4-4.7c4.4-2.9,7.2-4.7,8.4-6.8c0.6-0.9,0.8-1.5,1.2-3.3l1-4.8c0-0.2,0.3-2.3,0-3.8
		C554.3-412.5,548.3-413.6,547.5-413.8z"/>
	<path class="st1" d="M615.5-500.1C615.5-500.1,615.5-499.9,615.5-500.1C615.5-499.9,615.5-499.9,615.5-500.1L615.5-500.1z"/>
	<path class="st1" d="M620.3-393.2c-0.2-1.4-0.5-2.1-0.7-2.8c-0.6-1.5-2.5-4.1-6.9-3.6c-3.2,0.5-4.7,2.2-5.5,3.1l-1-7.2
		c-0.1-1-0.7-3.6,2.6-4.1c0.2,0,1-0.1,1.7,0.1c1.3,0.5,1.5,1.7,1.6,2.9l0.3,2l6.1-0.9l-0.3-2.5c-0.3-2.4-0.9-3.5-1.8-4.5
		c-1.8-2.1-5.6-2.3-8.2-2c-3.1,0.5-6.7,1.7-7.9,4.8c-0.8,2-0.6,3.9-0.5,4.6l3.1,21.4c0,0.3,0.2,2.2,1,3.6c0.2,0.5,0.8,1.4,2,2.3
		c2.9,2.2,6.8,1.5,7.7,1.4c5.4-0.8,7.6-3.7,8.1-6.1c0.3-1.5,0-3.6-0.1-3.9L620.3-393.2z M615.3-381.5c-0.1,0.6-0.7,1.7-2.3,2
		c-0.5,0.1-1.4,0.2-2.3-0.5c-1-0.8-1.3-2.2-1.5-3.3l-0.9-6.1c-0.2-1.4-0.3-2.4,0.9-3.5c0.7-0.5,1.5-0.7,1.7-0.7
		c0.9-0.1,1.6,0.1,1.8,0.3c0.9,0.5,1.3,1.3,1.6,3.2l1,6.8C615.4-382.6,615.4-382,615.3-381.5z"/>
	<path class="st1" d="M587.1-410.3c-0.9,1.5-1.2,1.8-1.8,2.6c-1.5,1.7-3.8,3-4.4,3.2c-0.6,0.3-1,0.3-1.4,0.5l0.1,5.2
		c2.3-0.5,3.9-1.4,4.7-1.8c0.3-0.2,0.6-0.5,0.9-0.7l1,28.5l6.6-0.2l-1.4-37.4L587.1-410.3z"/>
	<path class="st1" d="M567.3-411c-1-0.1-5.3-0.3-7.9,2.8c-1.3,1.5-1.7,3-2,4.8c0,0.6-0.1,1-0.1,1.6l-1.4,19.3
		c-0.1,2.2,0,3.1,0.2,4.1c0.3,1.5,1,2.4,1.5,2.9c1.8,2.1,4.6,2.6,7.2,2.9c1.7,0.1,2.9,0,3.5-0.1c4-0.8,5.4-3.9,5.9-5.3
		c0.3-1,0.5-1.8,0.6-3l1.4-20c0.1-2.3,0-3.2-0.2-4.3C575.2-407.9,573-410.7,567.3-411z M569.7-401.7l-1.5,20.2
		c-0.1,1.3-0.2,2.5-1.4,3.3c-0.3,0.2-1,0.5-2,0.3c-3-0.2-2.6-2.9-2.6-3.7l1.5-21.1c0-0.8-0.1-3.9,3.3-3.7c1.3,0.1,2.3,0.6,2.5,2
		C569.9-403.4,569.7-401.8,569.7-401.7z"/>
</g>
<g class="st0">
	<g>
		<path class="st1" d="M1400.5-635v-60.9h5.7v56h32.6v4.9H1400.5z"/>
		<path class="st1" d="M1446.2-635l23.9-60.9h6.5L1500-635h-5.9l-7-19.1h-27.7l-7.2,19.1H1446.2z M1461.2-659h23.9l-11.9-32
			L1461.2-659z"/>
		<path class="st1" d="M1514.8-653.2c0.9,10.9,8.2,14.9,17.5,14.9c10.9,0,15.5-5.9,15.5-12.6c0-18.9-37.1-6.3-37.1-30.3
			c0-8.5,7-16.3,20.6-16.3c13.7,0,20.6,8.3,20.5,18.2h-5.5c0-9.3-7.2-13.3-15-13.3c-11.7,0-15.9,7.2-14.9,13.4
			c2.6,15.7,37.1,4.4,37.1,28c0,11.2-8.2,17.8-22.3,17.8c-12.7,0-22.1-6.6-22.1-19.8L1514.8-653.2L1514.8-653.2L1514.8-653.2z"/>
		<path class="st1" d="M1595.8-635v-60.9h8.8l20,53.7h0.2l19.6-53.7h8.7v60.9h-5.7v-54.3h-0.2l-20,54.3h-5.4l-20-54.3h-0.2v54.3
			H1595.8z"/>
		<path class="st1" d="M1670.7-635v-60.9h40.5v4.9h-34.8v22h31.4v4.9h-31.4v24.2h35.6v4.9L1670.7-635L1670.7-635z"/>
		<path class="st1" d="M1727.4-654.2c-0.1,7.6,0.3,15.6,11,15.6c7.9,0,10.8-4.7,10.8-13.2v-44.1h5.8v44.2c0,11.8-5.4,18.3-17.2,18.3
			c-13.7,0-16.1-10.1-16.1-20.9H1727.4z"/>
		<path class="st1" d="M1798.8-697.5c19,0,28.7,14.3,28.7,32.2c0,17.5-9.6,32-28.4,32c-18.8,0-28.3-14.5-28.3-32
			C1770.7-683.1,1780.6-697.5,1798.8-697.5z M1821.7-665.3c0-16.9-8.7-27.2-22.8-27.2c-15.6,0-22.5,13.1-22.5,27.2
			c0,14.4,6.8,27.1,22.7,27.1C1815-638.3,1821.7-651.1,1821.7-665.3z"/>
		<path class="st1" d="M1848.8-662.6v27.7h-5.8v-60.9h23.9c13.4,0,20.7,4.7,20.7,16c0,7.7-2.9,11.8-9.9,14.9
			c7.2,2.5,7.6,10.1,7.8,16.5c0.3,9.2,1,11.8,2.5,12.9v0.6h-6.3c-2.4-4.1-1.8-15.6-2.7-20.2c-1.3-6.6-6.3-7.5-12.1-7.5L1848.8-662.6
			L1848.8-662.6L1848.8-662.6z M1866.7-667.5c8.5,0,15.1-3.5,15.1-12.1c0-9.1-7.1-11.3-14.8-11.3h-18.3v23.4H1866.7L1866.7-667.5z"
			/>
		<path class="st1" d="M1903.7-635v-60.9h40.5v4.9h-34.8v22h31.4v4.9h-31.4v24.2h35.6v4.9L1903.7-635L1903.7-635z"/>
		<path class="st1" d="M1962-653.2c0.9,10.9,8.2,14.9,17.5,14.9c10.9,0,15.5-5.9,15.5-12.6c0-18.9-37.1-6.3-37.1-30.3
			c0-8.5,7-16.3,20.6-16.3c13.7,0,20.6,8.3,20.5,18.2h-5.5c0-9.3-7.2-13.3-15-13.3c-11.7,0-15.9,7.2-14.9,13.4
			c2.6,15.7,37.1,4.4,37.1,28c0,11.2-8.2,17.8-22.3,17.8c-12.7,0-22.1-6.6-22.1-19.8L1962-653.2L1962-653.2z"/>
	</g>
	<g>
		<path class="st1" d="M1400.7-420.3v-65.4h9.4l21.4,57.6h0.2l21.1-57.6h9.3v65.4h-6.2v-58.3h-0.2l-21.4,58.3h-5.8l-21.5-58.3h-0.2
			v58.3H1400.7z"/>
		<path class="st1" d="M1481.2-420.3v-65.4h43.5v5.3h-37.3v23.6h33.7v5.3h-33.7v26h38.2v5.3L1481.2-420.3L1481.2-420.3L1481.2-420.3
			z"/>
		<path class="st1" d="M1561.5-449.2l-19,28.9h-7l22.5-33.6l-21.6-31.8h7.2l17.9,27.5l18-27.5h7.2l-21.4,31.8l22.4,33.6h-7.1
			L1561.5-449.2z"/>
		<path class="st1" d="M1603.5-420.3v-65.4h6.2v65.4H1603.5z"/>
		<path class="st1" d="M1677.4-466.7c-2.5-11.2-9.4-15.4-20.6-15.4c-15.8,0-22.6,13.5-22.6,29c0,14.6,5.3,29.3,23.1,29.3
			c11.3,0,18.2-7.6,20.7-18h6.4c-2.9,12.6-10.8,23.2-28.3,23.2c-20.2,0-28.1-15.9-28.1-34.4c0-25,13.1-34.4,30.4-34.4
			c13.4,0,23.2,7.2,25.3,20.7H1677.4L1677.4-466.7z"/>
		<path class="st1" d="M1695.2-420.3l25.7-65.4h7l25,65.4h-6.3l-7.5-20.5h-29.8l-7.7,20.5H1695.2L1695.2-420.3z M1711.3-446.1h25.6
			l-12.8-34.3L1711.3-446.1z"/>
		<path class="st1" d="M1772.5-477.3h-0.2v57h-6.2v-65.4h7l37.8,57.1h0.2v-57.1h6.2v65.4h-7.2L1772.5-477.3z"/>
		<path class="st1" d="M1830.4-420.3l25.7-65.4h7l25.1,65.4h-6.4l-7.5-20.5h-29.8l-7.7,20.5H1830.4L1830.4-420.3z M1846.6-446.1
			h25.6l-12.8-34.3L1846.6-446.1z"/>
		<path class="st1" d="M1904-439.8c1,11.7,8.8,16,18.8,16c11.7,0,16.6-6.4,16.6-13.5c0-20.2-39.9-6.8-39.9-32.5
			c0-9.1,7.5-17.5,22.2-17.5c14.7,0,22.1,8.9,22,19.5h-5.9c0-10-7.7-14.2-16.1-14.2c-12.5,0-17.1,7.7-16,14.4
			c2.8,16.9,39.9,4.7,39.9,30c0,12-8.8,19.1-23.9,19.1c-13.6,0-23.7-7.1-23.7-21.2L1904-439.8L1904-439.8z"/>
	</g>
	<g>
		<path class="st1" d="M1452.7-582.9h-37.2v14.7h34.2v12.4h-34.2v18.2h38.9v12.4h-53.3v-70.2h51.6L1452.7-582.9L1452.7-582.9z"/>
		<path class="st1" d="M1542.8-525.2h-13.7v-58.6h-0.2l-13.1,58.6h-14.4l-12.8-58.6h-0.2v58.6h-13.7v-70.2h21.4l12.7,55.3h0.2
			l12.5-55.3h21.2L1542.8-525.2L1542.8-525.2z"/>
		<path class="st1" d="M1580.7-525.2h-14.7v-70.2h32.1c13.6,0,21.8,8.7,21.8,22.5c0,6.3-3.5,22.4-22.4,22.4h-16.8L1580.7-525.2
			L1580.7-525.2L1580.7-525.2z M1594.3-562.6c10.9,0,10.9-7.8,10.9-10.9c0-6.8-3.8-9.7-12.9-9.7h-11.6v20.6H1594.3z"/>
		<path class="st1" d="M1640.5-595.3h35.5c18.7,0,22.1,13.8,22.1,19.8c0,7.7-3.9,14.4-10.8,16.7c5.8,2.5,8.9,4.7,8.9,17.8
			c0,10.2,0,12.8,3.1,14v1.9H1683c-1-3.3-1.6-6.9-1.6-14.2c0-9.6-0.6-13.3-11.4-13.3h-15.2v27.5h-14.4V-595.3z M1672-564.5
			c7.6,0,11.3-2.6,11.3-9.6c0-3.7-1.7-9.2-10.3-9.2h-18.3v18.8L1672-564.5L1672-564.5z"/>
		<path class="st1" d="M1771.8-582.9h-37.2v14.7h34.2v12.4h-34.2v18.2h38.9v12.4h-53.3v-70.2h51.6V-582.9z"/>
		<path class="st1" d="M1805.1-546.8c0.1,3.9,2.1,11.3,14.9,11.3c6.9,0,14.6-1.7,14.6-9.1c0-5.5-5.3-6.9-12.7-8.7l-7.5-1.8
			c-11.3-2.7-22.3-5.2-22.3-20.6c0-7.8,4.2-21.6,27-21.6c21.5,0,27.3,14.1,27.4,22.7h-14.1c-0.4-3.1-1.6-10.5-14.4-10.5
			c-5.6,0-12.2,2-12.2,8.4c0,5.5,4.5,6.6,7.4,7.3l17.1,4.2c9.6,2.3,18.4,6.2,18.4,18.9c0,21.1-21.5,23-27.7,23
			c-25.6,0-30-14.8-30-23.5L1805.1-546.8L1805.1-546.8L1805.1-546.8z"/>
		<path class="st1" d="M1879-525.2h-15.5l25-70.2h16.9l24.7,70.2h-15.9l-4.5-14.5h-25.9L1879-525.2z M1887.8-551.8h17.9l-8.7-27.8
			h-0.2L1887.8-551.8z"/>
		<path class="st1" d="M1959.2-546.8c0.1,3.9,2.1,11.3,14.9,11.3c6.9,0,14.7-1.7,14.7-9.1c0-5.5-5.3-6.9-12.7-8.7l-7.5-1.8
			c-11.3-2.7-22.3-5.2-22.3-20.6c0-7.8,4.2-21.6,27-21.6c21.5,0,27.3,14.1,27.4,22.7h-14.1c-0.4-3.1-1.6-10.5-14.4-10.5
			c-5.6,0-12.2,2-12.2,8.4c0,5.5,4.5,6.6,7.4,7.3l17.1,4.2c9.6,2.3,18.4,6.2,18.4,18.9c0,21.1-21.5,23-27.7,23
			c-25.6,0-30-14.8-30-23.5L1959.2-546.8L1959.2-546.8L1959.2-546.8z"/>
	</g>
	<path class="st1" d="M1317.3-526.2c19.2,8.4,39.4,30.7,39.4,30.7v-58.9h-80.9c0,0-66.1-1.9-71.1,70.8
		c-4.5,65.5,52.8,76.2,59.3,76.7c60,4.9,68.9-41.1,69-62.1c0.3-48.8-82.6-61.4-73.9-8.7c12.2-19.2,38-8.7,38,5.2
		c0,7-0.8,38.3-41.1,23.4c-24.4-9.1-19.2-42.5-16.7-50.2c5.1-16.1,16.7-24.2,30-29.3C1290.1-536.7,1314.2-527.6,1317.3-526.2z"/>
	<path class="st1" d="M1317.3-596.6c19.2-8.4,39.4-30.7,39.4-30.7v58.9h-80.9c0,0-66.1,1.9-71.1-70.8c-4.5-65.5,52.8-76.2,59.3-76.7
		c60-4.9,68.9,41.1,69,62.1c0.3,48.8-82.6,61.4-73.9,8.7c12.2,19.2,38,8.7,38-5.2c0-7-0.8-38.3-41.1-23.3
		c-24.4,9.1-19.2,42.5-16.7,50.2c5.1,16.1,16.7,24.2,30,29.3C1290.1-586.2,1314.2-595.3,1317.3-596.6z"/>
	<path class="st1" d="M1082.8-526.2c-19.2,8.4-39.4,30.7-39.4,30.7v-58.9h80.9c0,0,66.1-1.9,71.1,70.8c4.5,65.5-52.8,76.2-59.3,76.7
		c-60,4.9-68.9-41.1-69-62.1c-0.4-48.8,82.7-61.4,73.9-8.7c-12.2-19.2-38-8.7-38,5.2c0,7,0.8,38.3,41.1,23.4
		c24.4-9.1,19.2-42.5,16.7-50.2c-5.1-16.1-16.7-24.2-30-29.3C1109.9-536.7,1085.9-527.6,1082.8-526.2z"/>
	<path class="st1" d="M1082.8-596.6c-19.2-8.4-39.4-30.7-39.4-30.7v58.9h80.9c0,0,66.1,1.9,71.1-70.8c4.5-65.5-52.8-76.2-59.3-76.7
		c-60-4.9-68.9,41.1-69,62.1c-0.4,48.8,82.7,61.4,73.9,8.7c-12.2,19.2-38,8.7-38-5.2c0-7,0.8-38.3,41.1-23.3
		c24.4,9.1,19.2,42.5,16.7,50.2c-5.1,16.1-16.7,24.2-30,29.3C1109.9-586.2,1085.9-595.3,1082.8-596.6z"/>
</g>
<g>
	<polygon class="st2" points="258.1,-435.1 -452.8,-435.1 -452.8,-687.8 258.1,-687.8 328.8,-561.4 	"/>
	<g>
		<path class="st1" d="M-398.2-589.1v-49.4h9.1v42.1h20.7l-0.3,7.3H-398.2L-398.2-589.1z"/>
		<path class="st1" d="M-340-588.4c-7.4,0-13.3-2.3-17.6-6.8c-4.3-4.5-6.5-10.7-6.5-18.7c0-8,2.2-14.2,6.5-18.7
			c4.3-4.5,10.2-6.7,17.6-6.7c7.4,0,13.3,2.2,17.6,6.7c4.3,4.5,6.4,10.7,6.4,18.7c0,7.9-2.2,14.1-6.5,18.6
			C-326.7-590.6-332.6-588.4-340-588.4z M-350.8-600.5c2.4,3.1,6.1,4.7,10.9,4.7c4.8,0,8.4-1.6,10.8-4.7c2.4-3.1,3.7-7.5,3.7-13.2
			c0-5.8-1.2-10.2-3.7-13.4c-2.4-3.2-6-4.8-10.8-4.8c-4.8,0-8.4,1.6-10.9,4.8c-2.5,3.2-3.7,7.6-3.7,13.4
			C-354.5-608-353.3-603.6-350.8-600.5z"/>
		<path class="st1" d="M-252.1-573c-1.9-1.3-4-3.6-6.3-6.7c-2.3-3.1-4.3-6.1-5.7-8.9c-1.2,0.1-2.1,0.1-2.7,0.1
			c-7.4,0-13.3-2.3-17.6-6.8c-4.3-4.5-6.5-10.7-6.5-18.7c0-8,2.2-14.2,6.5-18.7c4.3-4.5,10.2-6.7,17.6-6.7s13.3,2.2,17.6,6.7
			c4.3,4.5,6.4,10.7,6.4,18.7c0,5.7-1.1,10.5-3.4,14.5c-2.3,4-5.5,6.9-9.6,8.7c3.4,5.6,6.7,9.7,9.6,12.5L-252.1-573z M-277.7-600.5
			c2.4,3.1,6.1,4.7,10.9,4.7c4.8,0,8.4-1.6,10.8-4.7c2.4-3.1,3.7-7.5,3.7-13.2c0-5.8-1.2-10.2-3.7-13.4c-2.4-3.2-6-4.8-10.8-4.8
			c-4.8,0-8.4,1.6-10.9,4.8c-2.5,3.2-3.7,7.6-3.7,13.4C-281.4-608-280.2-603.6-277.7-600.5z"/>
		<path class="st1" d="M-214.9-588.4c-6.5,0-11.4-1.6-14.7-4.8c-3.3-3.2-5-7.8-5-13.6v-31.6h9.2v30.8c0,4.1,0.8,7.1,2.5,9
			c1.7,1.9,4.4,2.8,8.2,2.8c3.8,0,6.5-0.9,8.2-2.8c1.7-1.9,2.5-4.9,2.5-9v-30.8h9.1v31.7c0,5.8-1.7,10.3-5.1,13.6
			C-203.5-590-208.4-588.4-214.9-588.4z"/>
		<path class="st1" d="M-184.7-589.1v-49.4h29.9l-0.4,7.2h-20.4v12.7h19.4v7.2h-19.4v14.9h21.2l-0.3,7.3H-184.7L-184.7-589.1z"/>
		<path class="st1" d="M-127.6-589.1v-49.4h9.7c1.8,2.7,5.3,8.3,10.7,16.6c5.4,8.3,8.6,13.4,9.8,15.2c0.3,0.5,0.9,1.4,1.7,2.6
			c0.8,1.2,1.4,2.1,1.7,2.6c-0.2-7.7-0.2-11.7-0.2-12v-25h8.3v49.4h-9.8l-22.3-34.7l-1.6-2.7c0.2,5.9,0.3,10.1,0.3,12.5v24.9
			L-127.6-589.1L-127.6-589.1z"/>
		<path class="st1" d="M-53.1-588.4c-7.4,0-13.3-2.3-17.6-6.8c-4.3-4.5-6.5-10.7-6.5-18.7c0-8,2.2-14.2,6.5-18.7
			c4.3-4.5,10.2-6.7,17.6-6.7s13.3,2.2,17.6,6.7c4.3,4.5,6.4,10.7,6.4,18.7c0,7.9-2.2,14.1-6.5,18.6S-45.7-588.4-53.1-588.4z
			 M-64-600.5c2.4,3.1,6.1,4.7,10.9,4.7s8.4-1.6,10.8-4.7c2.4-3.1,3.7-7.5,3.7-13.2c0-5.8-1.2-10.2-3.7-13.4
			c-2.4-3.2-6-4.8-10.8-4.8c-4.8,0-8.4,1.6-10.9,4.8c-2.5,3.2-3.7,7.6-3.7,13.4C-67.6-608-66.4-603.6-64-600.5z"/>
		<path class="st1" d="M-6.6-588.4c-6,0-11.3-1.4-16-4.1l2.2-7.2c2.1,1.2,4.4,2.1,6.9,2.8c2.5,0.7,4.9,1.1,7.3,1.1
			c2.9,0,5.1-0.6,6.6-1.9c1.5-1.2,2.2-3,2.2-5.4c0-3.1-2.1-5.2-6.2-6.4c-0.3-0.1-1.1-0.3-2.5-0.7c-1.3-0.4-2.6-0.8-3.8-1.1
			c-1.2-0.4-2-0.7-2.5-0.9c-6.6-2.3-9.9-6.7-9.9-13.1c0-4.5,1.6-7.9,4.8-10.4c3.2-2.4,7.4-3.6,12.7-3.6c6,0,11.1,1.2,15.4,3.7
			L7.7-629c-4.4-2-8.5-3-12.3-3c-2.7,0-4.8,0.5-6.2,1.4c-1.4,1-2.1,2.5-2.2,4.8c0,2.7,1.4,4.5,4.1,5.4c0.5,0.2,1.9,0.6,4,1.3
			c2.1,0.7,3.5,1.1,4.1,1.3c4.5,1.5,7.7,3.3,9.7,5.5c1.9,2.2,2.9,5.3,2.9,9.2c0,4.7-1.7,8.3-5,10.8C3.6-589.7-0.9-588.4-6.6-588.4z"
			/>
		<path class="st1" d="M37.9-589.1v-49.4h9.1v20.2h22.3v-20.2h9.1v49.4h-9.1v-22H47.1v22H37.9L37.9-589.1z"/>
		<path class="st1" d="M83.7-589.1l18.2-49.4h9.9l17.9,49.4h-9.4l-4.9-14H98.2l-4.9,14H83.7z M100.5-609.8h12.7
			c-4-13-6.1-19.7-6.2-20.1L100.5-609.8z"/>
		<path class="st1" d="M156.1-588.4c-7.2,0-12.9-2.3-17.2-6.8c-4.2-4.5-6.3-10.8-6.3-18.8c0-7.6,2.2-13.7,6.6-18.3
			s10.2-6.9,17.3-6.9c5.8,0,10.7,1.3,14.7,4l-2.9,6.9c-3.8-2.4-7.7-3.5-11.6-3.5c-4.5,0-8.1,1.6-10.8,4.9c-2.6,3.3-4,7.7-4,13.2
			c0,5.7,1.3,10.1,3.8,13.2c2.6,3.1,6.2,4.7,10.9,4.7c4.1,0,8.2-1,12.3-3.1l1.2,7.1C166.5-589.5,161.8-588.4,156.1-588.4z"/>
		<path class="st1" d="M178.4-589.1v-49.4h29.9l-0.4,7.2h-20.4v12.7H207v7.2h-19.4v14.9h21.2l-0.3,7.3H178.4L178.4-589.1z"/>
		<path class="st1" d="M-395.3-484.6v-75.5h21.9c6.6,0,12.5,0.8,17.7,2.3c5.2,1.5,9.7,3.8,13.5,6.8c3.8,3,6.7,7,8.7,11.8
			c2,4.8,3,10.3,3,16.6c0,12.2-3.7,21.6-11,28.2c-7.4,6.6-17.5,9.9-30.6,9.9L-395.3-484.6L-395.3-484.6z M-381.3-495.7h10
			c8.6,0,15.2-2.3,19.7-6.8c4.5-4.5,6.8-11.1,6.8-19.8c0-9.3-2.3-16-7-20.2c-4.6-4.2-11.6-6.3-21-6.3h-8.5V-495.7z"/>
		<path class="st1" d="M-316.9-484.6v-75.5h14v75.5H-316.9z"/>
		<path class="st1" d="M-286.2-484.6v-75.5h44.7l-0.5,11.1h-30.3v21.4h28.8v11h-28.8v32L-286.2-484.6L-286.2-484.6z"/>
		<path class="st1" d="M-229.4-484.6v-75.5h45.8l-0.6,11.1h-31.2v19.5h29.7v11.1h-29.7v22.7h32.4l-0.5,11.1L-229.4-484.6
			L-229.4-484.6z"/>
		<path class="st1" d="M-170.3-484.6v-75.7h28c3.8,0,7.1,0.2,9.9,0.5c2.8,0.3,5.5,1,8,1.9c2.5,0.9,4.6,2.1,6.1,3.7s2.8,3.6,3.7,6.1
			s1.4,5.4,1.4,8.8c0,10-4.6,16.6-13.7,19.8c1.9,2.1,4.2,6,6.9,11.7l11.2,23.3H-124l-8.8-19.7c-3.3-7.1-5.4-11.3-6.2-12.6
			c-0.6,0-2.5,0-5.8,0l-11.7-0.1v32.5L-170.3-484.6L-170.3-484.6L-170.3-484.6z M-141.1-527c5.4,0,9.2-1,11.5-2.9
			c2.3-1.9,3.5-5,3.5-9.2c0-3.7-1.2-6.4-3.6-8.2c-2.4-1.8-6-2.6-10.9-2.6h-16v22.8c0.5,0,3.1,0,7.7,0
			C-144.2-527-141.6-527-141.1-527z"/>
		<path class="st1" d="M-98.7-484.6v-75.5h45.8l-0.6,11.1h-31.2v19.5H-55v11.1h-29.7v22.7h32.4l-0.5,11.1L-98.7-484.6L-98.7-484.6z"
			/>
		<path class="st1" d="M-39.3-484.6v-75.5h14.8c2.7,4.2,8.1,12.6,16.3,25.4c8.2,12.7,13.2,20.5,15,23.2c0.5,0.8,1.4,2.1,2.7,4
			c1.3,1.9,2.1,3.2,2.7,4c-0.2-11.8-0.4-17.9-0.4-18.4v-38.2h12.7v75.5H9.6l-34.1-53.1l-2.5-4.1c0.3,9.1,0.4,15.5,0.4,19.1v38.1
			L-39.3-484.6L-39.3-484.6z"/>
		<path class="st1" d="M55.5-484.6v-64.4h-22v-11.2h58v11.2H69.5v64.4L55.5-484.6L55.5-484.6z"/>
		<path class="st1" d="M99.5-484.6v-75.5h45.8l-0.6,11.1h-31.2v19.5h29.7v11.1h-29.7v22.7h32.4l-0.5,11.1L99.5-484.6L99.5-484.6z"/>
		<path class="st1" d="M180.1-483.5c-9.1,0-17.3-2.1-24.5-6.3l3.4-11.1c3.2,1.8,6.7,3.2,10.5,4.3c3.8,1.1,7.5,1.6,11.1,1.6
			c4.4,0,7.8-1,10.1-2.9c2.3-1.9,3.4-4.6,3.4-8.2c0-4.7-3.2-8-9.5-9.8c-0.4-0.1-1.7-0.5-3.8-1.1c-2.1-0.6-4-1.2-5.8-1.8
			c-1.8-0.6-3.1-1-3.9-1.3c-10.1-3.6-15.2-10.2-15.2-20c0-6.8,2.4-12.1,7.3-15.8c4.9-3.7,11.3-5.6,19.4-5.6c9.1,0,17,1.9,23.6,5.6
			l-4.2,10.2c-6.7-3-13-4.5-18.8-4.5c-4.2,0-7.3,0.7-9.4,2.2c-2.1,1.5-3.2,3.9-3.4,7.3c0,4.2,2.1,6.9,6.2,8.2c0.8,0.3,2.9,1,6.1,2
			c3.2,1,5.3,1.7,6.3,2c6.9,2.3,11.8,5.1,14.8,8.5c3,3.4,4.5,8.1,4.5,14.1c0,7.2-2.5,12.7-7.6,16.6
			C195.6-485.5,188.8-483.5,180.1-483.5z"/>
	</g>
</g>
<g class="st0">
	<path class="st1" d="M2813.8-501.1l93.7-25.6c0,0-91.2,110.7-212.5,81.7c-17.5-5.5-85.7-31.6-36.1-129.8
		c17.5-31.6,98.5-139,251.4-140.9c24.4,0.4,115.9,10.1,107.9,103.3c5.3-90.2-98.1-87.9-111.6-86.4c-16.7,0.8-159.5,14.8-204.1,144.6
		c-24.5,76.7,50.4,117.4,154.1,59.9C2836.4-496.8,2813.8-501.1,2813.8-501.1z"/>
	<path class="st3" d="M2790.8-628.5l42.1,7.1l-92.8,25.9c0,0,54.5-71,143.9-84.9c46.6-9.8,156.3,0.7,110.1,121
		c-20.5,50.2-108.7,138.9-226,150.9c-16,2-145.8,14-139.8-102.2c-4.8,95.2,108,88.8,121.5,86.2c30.3-2,161.6-33.1,193.2-141.3
		c4.9-9.8,19.5-75.2-35.1-85.7C2908-651.5,2852.1-665,2790.8-628.5z"/>
	<polygon class="st1" points="2792.3,-588.7 2760.8,-588.7 2751.8,-533.1 2783.7,-533.1 2786,-545.5 2768.4,-545.5 2769.9,-554.8 
		2786.5,-554.8 2788.7,-566.8 2772.4,-566.8 2773.9,-576.3 2790.7,-576.3 	"/>
	<path class="st1" d="M2830-574.8l7.3-10.8c0,0-28.4-15.5-37.8,11.5c-3.4,14.8,8,16.8,8,16.8s13,2.8,11.5,8.3c0,0-2,7.5-11.5,4.8
		c-2-0.7-8.3-4.8-8.3-4.8l-8,11c0,0,7.3,7.8,21.8,6.5c22.8-2.5,21.8-21.4,21.8-22.7c-0.2-3.4,0.2-10-15-13.9
		c-10.5-4.5-3-8.5-2.3-9.3C2818.3-578.1,2827.8-579.3,2830-574.8z"/>
	<path class="st1" d="M2885.9-572.5c1.3-14.5-11.8-16.2-11.8-16.2h-26.9l-8.8,55.6l14.7-0.1l3.2-21.1l10.3,20.9h18.2
		c0,0-9.6-15-14.1-22.4C2877.8-556.6,2885.7-564.7,2885.9-572.5z M2870.3-570.9c-0.9,8.5-9.4,7-12.6,7l2.1-13.3
		C2859.8-577.2,2871.3-579.3,2870.3-570.9z"/>
	<g>
		<polygon class="st1" points="3102,-638.5 3104.2,-651.2 3071.5,-651.2 3061.3,-593.6 3094.1,-593.6 3096.3,-606.3 3078.5,-606.3 
			3080.3,-616.2 3097.1,-616.2 3099.4,-628.9 3082.5,-628.9 3084.2,-638.5 		"/>
		<polygon class="st1" points="3130.6,-593.6 3152.7,-632.9 3152.9,-632.9 3154.9,-594.9 3162.3,-594.9 3157.9,-654.9 
			3132.6,-609.5 3118.4,-654.9 3099.3,-594.9 3106.7,-594.9 3118,-632.9 3118.2,-632.9 		"/>
		<path class="st1" d="M3186.4-617.8h4.1c10.9,0,20.7-4.7,22.2-16.8c1.3-10.5-3.5-16.6-21.2-16.6h-8.2l-7.1,57.6h7.2L3186.4-617.8
			L3186.4-617.8z M3189.7-644.8h1.9c7.1,0,15.5,1.1,14.4,10.1c-1.1,9.2-9.2,10.5-16.6,10.5h-2.3L3189.7-644.8L3189.7-644.8z"/>
		<path class="st1" d="M3239.2-618.7c8.4-1,14.8-7.9,15.8-16.1c0.7-5.5-1.4-10.9-5.9-13.7c-4.3-2.6-9.7-2.7-14.9-2.7h-8.7l-7.1,57.6
			h7.2l3-24.3h3l14,24.3h8.7L3239.2-618.7L3239.2-618.7z M3232-644.8h1.9c7.1,0,15.5,1.3,14.4,10.3c-1.1,9.2-9.2,10.5-16.6,10.5
			h-2.3L3232-644.8L3232-644.8z"/>
		<polygon class="st1" points="3264.9,-593.6 3295.8,-593.6 3296.7,-600.2 3272.9,-600.2 3275.6,-622 3298.6,-622 3299.4,-628.5 
			3276.4,-628.5 3278.4,-644.6 3302.1,-644.6 3302.9,-651.2 3272,-651.2 		"/>
		<path class="st1" d="M3342-644.9c-2.4-5.6-7.3-8.7-13.7-8.7c-8.7,0-17.6,5.6-18.8,14.9c-1,8,4.5,11.8,10.7,14.6l3.8,1.7
			c4.7,2.1,9.4,4.7,8.6,10.9c-0.7,6-5.8,11.2-12,11.2c-6.2,0-10.7-4.6-9.8-10.9l-7.4,1.5c0.1,9.2,6.5,16.1,15.8,16.1
			c10.3,0,19.3-7.5,20.6-17.9c1.2-9.6-4.4-14.1-12.1-17.3l-3.9-1.6c-3.4-1.4-7.6-3.7-7-8.2c0.6-5,6-8.2,10.6-8.2
			c4.4,0,6.9,1.8,8.6,5.4L3342-644.9L3342-644.9z"/>
		<path class="st1" d="M3381.8-608.1l4.8,14.4h7.7l-20.1-60l-34.9,60h7.7l8.3-14.4H3381.8L3381.8-608.1z M3379.6-614.6h-20.5
			l13.1-23.3L3379.6-614.6L3379.6-614.6z"/>
	</g>
	<g>
		<path class="st1" d="M3106.9-569.1c-4.5-2.9-11.2-4.7-16.9-4.7c-11.4,0-20.9,7.5-22.9,19.1c-1.9,11,3.7,13.4,12.5,16
			c3,0.9,8.5,2.3,7.8,6.5c-0.7,4-4.7,5.7-8.2,5.7c-5,0-8.9-2.6-12.1-5.9l-8.4,11.9c5.1,4.1,11.7,6.5,18.8,6.5
			c5.7,0,11.9-1.6,17.1-5.3c5.2-3.8,7.6-9.6,8.6-15.3c1.6-9.2-3.8-13.2-11.3-15.5l-3.6-1.1c-2.4-0.8-6.2-2.1-5.6-5.4
			c0.6-3.2,4.4-4.7,7.2-4.7c3.6,0,6.8,1.5,9.1,3.8L3106.9-569.1L3106.9-569.1z"/>
		<path class="st1" d="M3141.3-573.2c-16.3,0-31.4,13.3-33.4,29.6c-2.1,16.9,9.7,29.6,26.1,29.6s31.3-12.7,33.4-29.6
			C3169.4-559.9,3157.5-573.2,3141.3-573.2L3141.3-573.2z M3134.8-520.6c-12.3,0-21.4-10-19.8-23c1.5-12.5,12.2-23,25.5-23
			c13.3,0,21.4,10.5,19.8,23C3158.7-530.7,3147.1-520.6,3134.8-520.6L3134.8-520.6z"/>
		<path class="st1" d="M3223.7-569.4c-4-2.6-8.9-3.8-13.8-3.8c-16.7,0-31.8,13.1-33.9,29.9c-2,16.4,9.8,29.3,26,29.3
			c5,0,10.7-1.4,15.4-4l1-8.4c-4.7,3.8-10.3,5.9-15.8,5.9c-12.7,0-21-10.6-19.5-23c1.5-12.6,12.6-23.2,25.3-23.2
			c5.3,0,10.7,2,14.3,5.6L3223.7-569.4L3223.7-569.4z"/>
		<polygon class="st1" points="3241.8,-570.8 3234.8,-570.8 3227.8,-514 3234.9,-514 		"/>
		<path class="st1" d="M3284.3-528.3l4.7,14.2h7.6l-19.8-59.2l-34.4,59.2h7.6l8.2-14.2H3284.3L3284.3-528.3z M3282.2-534.7H3262
			l12.9-23L3282.2-534.7L3282.2-534.7z"/>
		<polygon class="st1" points="3317,-570.8 3309.9,-570.8 3302.9,-514 3327.2,-514 3328,-520.5 3310.8,-520.5 		"/>
		<polygon class="st1" points="3363.9,-514 3385.7,-552.7 3385.8,-552.7 3387.9,-515.2 3395.2,-515.2 3390.8,-574.4 3365.9,-529.7 
			3351.8,-574.4 3333,-515.2 3340.3,-515.2 3351.5,-552.7 3351.7,-552.7 		"/>
		<polygon class="st1" points="3411,-514 3441.5,-514 3442.3,-520.5 3418.9,-520.5 3421.5,-542 3444.3,-542 3445.1,-548.4 
			3422.3,-548.4 3424.3,-564.3 3447.7,-564.3 3448.5,-570.8 3418,-570.8 		"/>
		<polygon class="st1" points="3450.6,-516.4 3457.7,-516.4 3462.9,-558.7 3500,-514 3507.3,-573.1 3500.2,-573.1 3495,-531.2 
			3457.9,-575.8 		"/>
		<polygon class="st1" points="3532.8,-564.3 3546.3,-564.3 3547.1,-570.8 3513.1,-570.8 3512.3,-564.3 3525.8,-564.3 3519.6,-514 
			3526.7,-514 		"/>
		<polygon class="st1" points="3550.7,-514 3581.2,-514 3582,-520.5 3558.6,-520.5 3561.2,-542 3584,-542 3584.7,-548.4 
			3562,-548.4 3564,-564.3 3587.4,-564.3 3588.2,-570.8 3557.7,-570.8 		"/>
	</g>
	<g>
		<path class="st1" d="M3095-457.5c8.4-1.4,14-8.3,15.4-16.2c2.2-12.2-5.5-17.6-16.8-17.6h-22.3l-10.1,57.3h14.9l3.9-22h0.1l10.2,22
			h18.5L3095-457.5L3095-457.5z M3084.2-479.9h1.4c4.9,0,10.2,0.9,9.1,7.1c-1.1,6.2-6.7,7.1-11.6,7.1h-1.4L3084.2-479.9
			L3084.2-479.9z"/>
		<polygon class="st1" points="3112.5,-434 3143.2,-434 3144,-440.6 3120.4,-440.6 3123.1,-462.2 3146,-462.2 3146.8,-468.8 
			3123.9,-468.8 3125.8,-484.8 3149.5,-484.8 3150.3,-491.3 3119.5,-491.3 		"/>
		<path class="st1" d="M3190.3-485.1c-2.4-5.5-7.3-8.7-13.7-8.7c-8.7,0-17.5,5.5-18.7,14.8c-1,8,4.5,11.7,10.7,14.5l3.7,1.7
			c4.7,2,9.3,4.7,8.5,10.9c-0.7,6-5.8,11.2-11.9,11.2c-6.2,0-10.6-4.6-9.8-10.9l-7.4,1.5c0.1,9.2,6.5,16,15.7,16
			c10.3,0,19.2-7.5,20.5-17.9c1.2-9.6-4.4-14.1-12.1-17.3l-3.9-1.6c-3.4-1.4-7.5-3.7-7-8.2c0.6-5,6-8.1,10.6-8.1
			c4.3,0,6.8,1.8,8.5,5.4L3190.3-485.1L3190.3-485.1z"/>
		<path class="st1" d="M3205.9-458h4.1c10.9,0,20.6-4.6,22.1-16.7c1.3-10.5-3.4-16.6-21.1-16.6h-8.2l-7,57.3h7.1L3205.9-458
			L3205.9-458z M3209.2-484.9h1.9c7.1,0,15.4,1.1,14.3,10c-1.1,9.1-9.2,10.5-16.5,10.5h-2.3L3209.2-484.9L3209.2-484.9z"/>
		<path class="st1" d="M3272.1-493.8c-16.4,0-31.7,13.5-33.7,29.9c-2.1,17,9.8,29.9,26.4,29.9c16.6,0,31.6-12.8,33.7-29.9
			C3300.5-480.3,3288.5-493.8,3272.1-493.8L3272.1-493.8z M3265.6-440.7c-12.4,0-21.6-10.1-20-23.2c1.6-12.6,12.3-23.2,25.7-23.2
			c13.4,0,21.6,10.6,20,23.2C3289.7-450.8,3278-440.7,3265.6-440.7L3265.6-440.7z"/>
		<polygon class="st1" points="3304.7,-436.4 3311.8,-436.4 3317.1,-479.1 3354.5,-434 3361.9,-493.7 3354.7,-493.7 3349.5,-451.3 
			3312,-496.4 		"/>
		<path class="st1" d="M3404.3-485.1c-2.4-5.5-7.3-8.7-13.7-8.7c-8.7,0-17.6,5.5-18.7,14.8c-1,8,4.5,11.7,10.7,14.5l3.7,1.7
			c4.7,2,9.3,4.7,8.6,10.9c-0.7,6-5.8,11.2-11.9,11.2c-6.2,0-10.6-4.6-9.8-10.9l-7.4,1.5c0.1,9.2,6.5,16,15.7,16
			c10.3,0,19.2-7.5,20.5-17.9c1.2-9.6-4.4-14.1-12.1-17.3l-3.9-1.6c-3.4-1.4-7.5-3.7-7-8.2c0.6-5,6-8.1,10.6-8.1
			c4.3,0,6.8,1.8,8.5,5.4L3404.3-485.1L3404.3-485.1z"/>
		<path class="st1" d="M3445.5-448.4l4.8,14.4h7.7l-20-59.7l-34.7,59.7h7.7l8.3-14.4H3445.5L3445.5-448.4z M3443.3-454.9H3423
			l13-23.2L3443.3-454.9L3443.3-454.9z"/>
		<path class="st1" d="M3477.5-484.9h2c6.7,0,12,1.4,11,9.4c-1,8.2-6.7,9.6-13.5,9.6h-1.8L3477.5-484.9L3477.5-484.9z M3474.5-460.2
			h4.4c6.4,0,14.4,1.7,13.4,9.7c-1,8.1-8.2,10.1-14.8,10.1h-5.5L3474.5-460.2L3474.5-460.2z M3464.1-434h13.4
			c10.1,0,20.5-4.6,21.9-16c0.8-6.7-3.1-13.3-9.7-14.5l0-0.2c4.1-1.8,7-6.7,7.5-10.9c1.6-12.9-8.3-15.7-19-15.7h-7L3464.1-434
			L3464.1-434z"/>
		<polygon class="st1" points="3520.5,-491.3 3513.4,-491.3 3506.4,-434 3530.9,-434 3531.7,-440.6 3514.3,-440.6 		"/>
		<polygon class="st1" points="3540.6,-434 3571.4,-434 3572.2,-440.6 3548.6,-440.6 3551.2,-462.2 3574.2,-462.2 3575,-468.8 
			3552,-468.8 3554,-484.8 3577.6,-484.8 3578.4,-491.3 3547.6,-491.3 		"/>
	</g>
</g>
<g class="st0">
	<path class="st4" d="M3915.4-644.1c10.2-1.6,16.5-14.4,14.3-28.6c-2.3-14.2-12.3-24.4-22.4-22.8c-10.2,1.6-16.6,14.4-14.3,28.6
		C3895.3-652.7,3905.3-642.5,3915.4-644.1z M4001.1-643.6c-0.6-0.1-1.3-0.1-2-0.1l-2.1,0.2c-20.2,1.3-40.3,4.4-59.7,10.2
		c1.9,1.6,3.2,3.9,3.4,6.5c0.2,2.6-0.7,5.1-2.4,6.9c-1,1.1-2.2,1.9-3.7,2.4l-1.7,0.6l-6.3,2.1c-6.1,1.8-12.1,3.8-18.1,6
		c0.4,1.9-0.3,3.9-2,5l-1.8,1.3c-0.5,0.4-1,0.7-1.7,0.8l-1,0.1l-6.3,3.1c-3.1,1.2-6,2.8-8.8,4.5c9.4-4.4,18.9-8.4,28.5-12.2
		c-11,7.6-21.2,16.1-30.6,25.5c3.7,0.3,7.1,2.9,8.1,6.8c0.3,1,0.4,2,0.3,3c-0.1,1.1-0.3,2.2-0.8,3.2l-1,2.2c-0.7,1.6-1.9,3-3.4,4
		l-7.6,5c-2.9,1.8-5.8,3.8-8.7,5.7c-3,2.1-6,4.2-8.9,6.4c0,0,0,0,0,0c2.6,4.3,8.4,5.7,12.7,3.1l2.8-1.8c8.9-5.3,18.3-9.5,27.9-13.1
		c-15,13.2-28,28.5-36.9,46.4l-0.7,1.8c-0.1,0.4-0.2,0.8-0.3,1.1c-1,4.4,1.4,8.8,5.4,10.5c-7.8,6.7-15.1,13.9-21.3,22.3
		c-3,4.1-2.2,9.9,1.9,13c4.1,3.1,9.9,2.2,13-1.9c11.4-15.5,27.3-26.4,42.1-38.2l5.4-4.3c2.7-2.4,3.7-6,2.7-9.4
		c-1.4-5-6.5-7.9-11.4-6.5l-2,0.6c-2.2,0.2-4.4,0.5-6.6,0.9c13.9-18.1,32-32.9,51.2-45l7.6-4.9c1.5-1,2.6-2.4,3.4-4l0.9-2.2
		c0.9-1.9,1-4.2,0.4-6.2c-1.4-4.9-6.4-7.8-11.4-6.5l-2.6,0.7c-13.5,3.5-27.1,7.3-40.4,11.9c25-22.2,55.8-38,87.8-47.1l8.1-2.7
		c1.7-0.6,3.2-1.7,4.2-3.1c1.3-1.7,2.1-3.9,1.9-6.2C4008.8-639.5,4005.4-643,4001.1-643.6z"/>
	<path class="st5" d="M3806-637.4c10.1-1.7,20.2-10.1,20.2-10.1l1.1-1.6c3.3,12.1,12.4,20.3,21.5,18.8c10.2-1.6,16.6-14.4,14.3-28.6
		c-1.6-10.3-7.4-18.6-14.4-21.6l1.1-1.6c0,0-5.9-6.7-19.4,0c-13.5,6.7-14.3,22.8-22.7,32.9c-8.4,10.1-26.9,10.1-26.9,10.1
		S3796-635.7,3806-637.4z M3937.3-633.3c-1.8-1.5-4.1-2.3-6.5-2.1l-2.1,0.2c-26.5,1.7-52.9,6.5-77.7,16.4
		c-28.2,11.3-57.4,21.2-81.7,39.5c-3.9,3.3-4.3,9.2-1,13c3.4,3.9,9.2,4.3,13.1,0.9c5.4-5.6,12.8-8.2,19.7-11.7
		c15.2-7.8,30.4-14.5,46.1-20.7c-19.6,13.5-37,30-50.8,49.7l-1.8,2.7c-1.7,2.9-1.6,6.4,0.2,9.4c2.6,4.3,8.4,5.8,12.7,3l2.8-1.7
		c8.9-5.3,18.3-9.5,27.9-13.1c-15,13.3-28.1,28.5-37,46.5l-0.7,1.8c-0.1,0.4-0.2,0.8-0.3,1.1c-1,4.4,1.4,8.8,5.4,10.5
		c-7.8,6.7-15.1,14-21.3,22.3c-3.1,4.1-2.2,9.9,1.9,13c4.1,3.1,9.9,2.2,13-1.9c11.4-15.5,27.3-26.4,42-38.2l5.4-4.3
		c2.6-2.4,3.7-6,2.8-9.4c-1.4-4.9-6.5-7.8-11.4-6.5l-2,0.6c-2.2,0.2-4.4,0.5-6.6,0.9c9.6-12.4,21.1-23.3,33.6-32.8
		c2.9-2.2,5.9-4.4,8.9-6.4c2.9-2,5.8-3.9,8.7-5.7l7.6-5c1.5-1,2.6-2.4,3.4-4l1-2.2c0.5-1,0.7-2.1,0.8-3.2c0.1-1,0-2-0.3-3
		c-1.1-3.8-4.4-6.4-8.1-6.8c-1.1-0.1-2.2,0-3.3,0.3l-2.6,0.8c-4.8,1.2-9.5,2.5-14.3,3.8l2.5-2.4c0,0.1-0.1,0.1-0.1,0.2
		c6.2-5.9,12.5-11.6,19.7-16c2.8-1.7,5.7-3.2,8.8-4.5l6.3-3.1l1-0.1c0.7-0.2,1.2-0.5,1.7-0.8l1.8-1.3c1.6-1.1,2.4-3.1,2-5
		c6-2.2,12-4.2,18.1-6l6.3-2.2l1.7-0.6c1.4-0.5,2.7-1.4,3.7-2.4c1.7-1.8,2.6-4.3,2.4-6.9C3940.5-629.4,3939.2-631.7,3937.3-633.3z"
		/>
	<path class="st1" d="M3861.5-423.6c-13.1,0-25.8-1.7-38-4.7c23.2,13.9,50.3,22,79.4,22c85.2,0,154.3-69,154.3-154.3
		c0-72.1-49.5-132.7-116.3-149.5c26.1,15.7,47.2,38.9,60.2,66.6c4.3,0.6,7.7,4.1,7.9,8.5c0.2,2.3-0.5,4.5-1.9,6.2
		c5.6,15.9,8.6,33.1,8.6,50.9C4015.8-492.7,3946.6-423.6,3861.5-423.6z M3741.1-496.7l-11.5,4.3l0,0l10.2-7.9l-1.3-3.7l-12.9,0.4
		l0,0l11.6-4.1l-1.4-3.9l-15,5.5l2.2,6.1l11.2-0.3l0,0l-8.8,6.8l2.3,6.3l15-5.5L3741.1-496.7z M3727.5-511.4
		c4.9-1.2,7.4-4.7,6.1-9.8c-1.3-5.1-5-7-10-5.8c-5,1.2-7.4,4.7-6.1,9.8C3718.8-512.1,3722.5-510.2,3727.5-511.4z M3720.6-517.9
		c-0.6-2.5,1.4-4.1,4.1-4.7c2.6-0.6,5.2-0.2,5.8,2.3c0.6,2.5-1.5,4.1-4.1,4.7C3723.7-515,3721.2-515.4,3720.6-517.9z M3730.2-536.4
		c-0.8-5.4-3.4-9.1-9.4-8.2c-6.1,0.9-7.3,5-6.5,10.5l0.9,5.8l15.8-2.3L3730.2-536.4z M3717.7-533l-0.2-1.6c-0.5-3.1,0.9-5.2,4.1-5.6
		c3.1-0.5,5,1.1,5.5,4.2l0.2,1.6L3717.7-533z M3728-559.1l-3,0.2l0.4,7.3l-3.6,0.2l-0.4-6.6l-3,0.2l0.4,6.6l-3.3,0.2l-0.4-7l-3,0.2
		l0.7,11.3l16-1L3728-559.1z M3728.1-572.1l-3.2,0l-0.1,6.6l-12.8-0.1l0,4.3l16,0.2L3728.1-572.1z M3720.1-573.6
		c5.1,0.5,8.5-2,9-7.2c0.5-5.2-2.4-8.3-7.5-8.8c-5.1-0.5-8.5,2-9,7.2C3712.1-577.1,3715-574.1,3720.1-573.6z M3721.2-585.2
		c2.6,0.2,5,1.5,4.8,4.1c-0.2,2.6-2.8,3.4-5.4,3.1c-2.8-0.3-5-1.5-4.8-4.1C3716-584.6,3718.4-585.4,3721.2-585.2z M3732.3-602.8
		c1.2-5.3,0.1-9.7-5.7-11.1c-6-1.4-8.6,2-9.9,7.4l-1.3,5.7l15.6,3.6L3732.3-602.8z M3729.2-603.6l-0.4,1.6l-9.4-2.2l0.4-1.6
		c0.7-3,2.7-4.5,5.8-3.7C3728.8-608.8,3730-606.7,3729.2-603.6z M3738.6-624.7l-2.9-0.9l-2.3,6.9l-3.4-1.1l2.1-6.3l-2.9-0.9
		l-2.1,6.3l-3.1-1l2.2-6.7l-2.9-0.9l-3.5,10.7l15.2,5L3738.6-624.7z M3746.6-643.2l-2.8-1.3l-3,6.6l-3.3-1.5l2.8-6l-2.8-1.3l-2.8,6
		l-3-1.4l2.9-6.4l-2.7-1.3l-4.7,10.2l14.5,6.7L3746.6-643.2z M3740.2-648.5c4.4,2.5,8.6,1.7,11.2-2.9l0.1-0.2l3.7-1l2.4-4.2l-5,1.5
		c0.3-2.9-1.3-5.5-4.5-7.2c-4.5-2.5-8.6-1.7-11.2,2.9C3734.3-654.9,3735.7-651,3740.2-648.5z M3739.7-658c1.3-2.3,3.8-2,6.2-0.6
		c2.3,1.3,3.9,3.4,2.7,5.7c-1.3,2.2-3.9,1.9-6.2,0.6C3739.9-653.7,3738.4-655.7,3739.7-658z M3760.2-665.3c2.4-3.4,2.4-6.9-1.2-9.4
		l-8.1-5.7l-2.5,3.5l7.5,5.3c1.7,1.2,2.9,2.7,1.6,4.5c-1.2,1.8-3,1.2-4.8,0l-7.5-5.3l-2.5,3.5l8.1,5.7
		C3754.5-660.7,3757.8-661.9,3760.2-665.3z M3768.3-676.4l-12.4-10.1l-2.7,3.3l12.4,10.1L3768.3-676.4z M3773.9-682.8
		c3.7-4,4.9-8.3,0.6-12.4c-4.5-4.2-8.5-2.6-12.3,1.5l-4,4.2l11.7,10.9L3773.9-682.8z M3764.6-691.6c2.1-2.3,4.6-2.5,6.9-0.3
		c2.3,2.2,2.3,4.6,0.1,6.9l-1.1,1.2l-7.1-6.6L3764.6-691.6z M3784-693l-1.3-3.4l4.5-3.9l3.1,1.8l3.5-3.1l-15.2-8l-3.9,3.4l5.9,16.1
		L3784-693z M3779-705.4l5.5,3.5l-3,2.6L3779-705.4L3779-705.4z M3799.6-705.6c4.5-3.1,6.5-7.2,3.1-12.1c-3.6-5.1-7.8-4.2-12.3-1
		l-4.8,3.4l9.2,13.1L3799.6-705.6z M3792.2-716.1c2.5-1.8,5-1.5,6.9,1.1c1.8,2.6,1.3,5-1.3,6.8l-1.4,1l-5.6-7.9L3792.2-716.1z
		 M3819.8-718.1c4.9-2.5,7.5-6.2,4.8-11.5c-2.8-5.5-7.1-5.3-12-2.8l-5.2,2.7l7.3,14.2L3819.8-718.1z M3814.1-729.5
		c2.8-1.4,5.2-0.8,6.6,2c1.4,2.8,0.6,5.1-2.2,6.6l-1.5,0.7l-4.4-8.6L3814.1-729.5z M3840.7-727.3l-1.1-2.8l-6.7,2.7l-1.3-3.4
		l6.2-2.5l-1.1-2.8l-6.1,2.5l-1.2-3.1l6.5-2.6l-1.1-2.8l-10.5,4.2l6,14.9L3840.7-727.3z M3857.3-732c1.4-0.4,3.4-0.9,5.8-2.3
		l-2.2-8.6l-6.4,1.7l0.8,2.9l2.4-0.6l0.8,3.1c-0.3,0.3-0.8,0.5-1.4,0.6c-3,0.8-5.6-0.5-6.4-3.5c-0.9-3.6,1.5-5.7,4.8-6.6
		c1-0.3,2.5-0.4,4,0l-0.5-3.5c-1.7-0.2-3.8,0.3-4.9,0.5c-5.7,1.5-9.2,4.8-7.7,10.6C3847.9-731.8,3853.2-731,3857.3-732z
		 M3876.9-736.1l-0.5-3l-7.2,1.2l-0.6-3.6l6.5-1.1l-0.5-3l-6.5,1.1l-0.5-3.3l6.9-1.1l-0.5-3l-11.1,1.8l2.6,15.8L3876.9-736.1z
		 M3882.9-736.7l-0.9-10.9h0.1l6.3,10.5l5.3-0.4l-1.1-16l-3.9,0.3l0.8,10.8l0,0l-6.2-10.5l-5.4,0.4l1.1,16L3882.9-736.7z
		 M3907.6-740.2l-7.3-0.1l0.1-3.6l6.6,0.1l0.1-3l-6.6-0.1l0.1-3.3l7,0.1l0.1-3l-11.3-0.2l-0.3,16l11.5,0.2L3907.6-740.2z
		 M3914.4-742.9l0.9,0.1c1.6,0.2,2,0.9,2.6,3.7l0.6,3l4.4,0.5l-1.1-4.5c-0.6-2-0.6-3.2-1.9-3.7l0,0c2.1-0.3,3.3-1.6,3.5-3.7
		c0.3-2.7-1.9-4.3-4.7-4.6l-7.6-0.8l-1.7,15.9l4.2,0.5L3914.4-742.9z M3915.1-749.5l1.1,0.1c1.6,0.2,3.1,0.6,2.9,2.1
		c-0.2,1.8-1.9,1.7-3.3,1.5l-1.1-0.1L3915.1-749.5z M3931.4-733.8c5.1,1,8.5-1.5,9.5-6.5c1-5-1.1-8.6-6.2-9.7
		c-5.2-1-8.5,1.5-9.5,6.5C3924.2-738.5,3926.3-734.8,3931.4-733.8z M3929.5-742.6c0.5-2.7,2-4.8,4.6-4.3c2.5,0.5,3.1,3,2.5,5.7
		c-0.5,2.6-2,4.8-4.6,4.3C3929.5-737.4,3929-740,3929.5-742.6z M3952.7-732.5c2.1,0.7,4.4-0.5,5.1-2.5c0.7-2.1-0.5-4.4-2.6-5
		c-2.1-0.7-4.4,0.5-5,2.5S3950.7-733.2,3952.7-732.5z M3973-733.7L3973-733.7l-1.8,12.8l3.5,1.7l9-9.3l0,0l-5.4,11l3.8,1.8l7-14.4
		l-5.8-2.8l-7.8,8l0,0l1.6-11l-6-2.9l-7,14.4l3.8,1.8L3973-733.7z M3993.6-708.3l1.6-2.6l-6.2-3.8l1.9-3.1l5.6,3.5l1.6-2.6l-5.6-3.5
		l1.7-2.8l6,3.7l1.6-2.6l-9.6-5.9l-8.4,13.6L3993.6-708.3z M3999.6-714c-3.6,4.9-0.9,9.5,2.5,12.1c1.2,0.9,2.8,2,5.4,3.1l5.3-7.1
		l-5.3-4l-1.8,2.4l2,1.5l-1.9,2.5c-0.4-0.1-0.9-0.3-1.4-0.7c-2.5-1.9-3.2-4.7-1.3-7.2c2.2-3,5.4-2.5,8.1-0.4
		c0.8,0.6,1.9,1.7,2.5,3.2l2.4-2.6c-0.9-1.4-2.6-2.8-3.5-3.5C4008-718.1,4003.2-718.8,3999.6-714z M4014.5-697l-2.9-2.5l-2.4,2.8
		l2.9,2.5L4014.5-697z M4017.4-700.4l2.4-2.8l-2.9-2.5l-2.4,2.8L4017.4-700.4z M4015.8-695l-2.1,2.2l8.4,8l2.1-2.2l-4.6-4.4l1.5,0.1
		c2,0.1,6.6,0.2,8.8-2.1c2.2-2.3,1.4-5.2-1.2-7.6c-0.7-0.6-1.8-1.6-4.1-2.6l-2.2,2.5c1.1,0.3,2.8,1.2,3.8,2.1c0.9,0.9,1.2,2,0.2,3
		C4025-694.4,4020.1-694.8,4015.8-695z M4027.3-678.7c3.5,3.9,7.2,1.9,10.3-0.9c3.1-2.8,5.5-6.2,2-10.1c-3.5-3.9-7.2-1.9-10.3,0.9
		C4026.2-686.1,4023.7-682.7,4027.3-678.7z M4032-685.8c1.9-1.7,4.1-3.5,5.4-2c1.3,1.4-0.7,3.4-2.6,5.1c-1.9,1.7-4.1,3.5-5.4,2
		C4028.1-682.1,4030.1-684.1,4032-685.8z M4035.9-668.4c3.2,4.2,7.1,2.4,10.3-0.1c3.3-2.5,6-5.8,2.8-10c-3.2-4.2-7.1-2.4-10.3,0.1
		C4035.3-675.8,4032.6-672.6,4035.9-668.4z M4041.1-675.1c2-1.5,4.4-3.2,5.5-1.6c1.2,1.5-1,3.4-3,4.9c-2,1.5-4.4,3.2-5.5,1.6
		C4037-671.7,4039.1-673.5,4041.1-675.1z M4053.9-662.8c-1.1,0.7-2.4-0.4-2.9-1.2c-0.3-0.5-0.6-0.9-1-1.6l-2.4,1.6
		c0.3,0.4,0.6,0.9,1,1.5c0.6,0.8,1.4,2.5,0.1,3.4c-1.4,0.9-2.8-0.5-3.5-1.6c-0.8-1.3-1.5-2.5-1.5-3.7l-2.9,1.7
		c0.3,1.2,1.1,2.7,2.1,4.2c1.7,2.6,4.7,5.3,8,3.1c1.7-1.1,2-2.8,1.3-4.7l0,0c1.4,1.2,3,1.5,4.5,0.5c2.9-1.9,1.9-5.2,0.2-7.7
		c-1-1.5-1.9-2.5-3.1-3.5l-2.5,1.9c0.8,0.5,1.8,1.6,2.6,2.8C4054.7-665,4055.2-663.6,4053.9-662.8z M4056.9-643c1,2,3.4,2.7,5.4,1.7
		c2-1,2.7-3.4,1.7-5.4c-1-2-3.4-2.7-5.4-1.7C4056.7-647.4,4055.9-645,4056.9-643z M4060.6-625.5l11.5-4.2l0,0l-10.2,7.8l1.3,3.7
		l12.9-0.3l0,0l-11.6,4.1l1.4,3.9l15.1-5.4l-2.2-6.1l-11.2,0.3l0,0l8.9-6.8l-2.3-6.3l-15.1,5.4L4060.6-625.5z M4074.2-610.7
		c-4.9,1.2-7.4,4.7-6.2,9.8c1.2,5.1,5,7,9.9,5.8c5-1.2,7.4-4.6,6.1-9.8C4082.9-610,4079.2-611.9,4074.2-610.7z M4081-604.1
		c0.6,2.5-1.4,4.1-4.1,4.7c-2.6,0.6-5.2,0.2-5.8-2.3c-0.6-2.5,1.6-4.1,4.1-4.7C4077.9-607.1,4080.4-606.6,4081-604.1z M4071.3-585.7
		c0.8,5.4,3.4,9.1,9.3,8.2c6.1-0.9,7.3-5,6.5-10.5l-0.8-5.8l-15.8,2.3L4071.3-585.7z M4083.8-589.1l0.2,1.6c0.4,3.1-0.9,5.2-4.1,5.6
		c-3.2,0.5-5-1.1-5.5-4.2l-0.2-1.6L4083.8-589.1z M4073.4-563l3-0.2l-0.4-7.3l3.6-0.2l0.4,6.6l3-0.2l-0.4-6.6l3.3-0.2l0.4,7l3-0.2
		l-0.6-11.3l-16,0.9L4073.4-563z M4073.4-560.9l-0.2,10.9l3.2,0.1l0.1-6.6l12.8,0.2l0.1-4.3L4073.4-560.9z M4081.3-548.5
		c-5.1-0.5-8.5,2-9,7.2c-0.5,5.2,2.4,8.3,7.4,8.8c5.1,0.5,8.5-1.9,9-7.2C4089.2-544.9,4086.4-548,4081.3-548.5z M4080.1-536.9
		c-2.6-0.3-5-1.5-4.7-4.1c0.3-2.6,2.8-3.4,5.4-3.1c2.8,0.3,5,1.5,4.7,4.1C4085.3-537.4,4082.9-536.6,4080.1-536.9z M4068.9-519.3
		c-1.3,5.3-0.2,9.7,5.7,11.1c6,1.4,8.6-2,9.9-7.4l1.3-5.7l-15.6-3.7L4068.9-519.3z M4072-518.5l0.4-1.6l9.4,2.2l-0.4,1.6
		c-0.7,3-2.8,4.5-5.9,3.7C4072.5-513.3,4071.3-515.4,4072-518.5z M4062.5-497.4l2.9,1l2.3-6.9l3.4,1.1l-2.1,6.3l2.9,1l2.1-6.3l3.1,1
		l-2.2,6.7l2.9,1l3.5-10.7l-15.2-5L4062.5-497.4z M4054.5-479l2.7,1.3l3.1-6.6l3.3,1.5l-2.8,6l2.7,1.3l2.8-6l3,1.4l-2.9,6.4l2.7,1.3
		l4.7-10.2l-14.5-6.7L4054.5-479z M4060.9-473.7c-4.4-2.5-8.6-1.7-11.2,2.8l-0.1,0.2l-3.7,1l-2.4,4.2l5-1.5
		c-0.3,2.9,1.3,5.5,4.4,7.3c4.5,2.6,8.5,1.7,11.2-2.8C4066.7-467.2,4065.3-471.1,4060.9-473.7z M4061.3-464.2
		c-1.3,2.2-3.8,2-6.2,0.6c-2.3-1.3-3.9-3.4-2.6-5.7c1.3-2.2,4-1.9,6.2-0.6C4061.1-468.5,4062.6-466.4,4061.3-464.2z M4040.8-456.9
		c-2.4,3.4-2.5,6.9,1.1,9.4l8.1,5.8l2.5-3.5l-7.5-5.3c-1.7-1.2-2.8-2.7-1.6-4.5c1.3-1.8,3.1-1.2,4.8,0l7.5,5.3l2.5-3.5l-8.1-5.8
		C4046.4-461.5,4043.2-460.3,4040.8-456.9z M4032.6-445.9l12.4,10.1l2.7-3.3l-12.4-10.1L4032.6-445.9z M4027-439.5
		c-3.7,4-5,8.3-0.6,12.4c4.5,4.3,8.4,2.6,12.3-1.4l4-4.2l-11.6-11L4027-439.5z M4036.2-430.7c-2.1,2.3-4.6,2.5-6.9,0.3
		c-2.3-2.2-2.3-4.6-0.1-6.9l1.1-1.2l7,6.6L4036.2-430.7z M4016.8-429.4l1.3,3.4l-4.5,3.9l-3.1-1.8l-3.5,3.1l15.1,8.1l4-3.4
		l-5.9-16.1L4016.8-429.4z M4021.8-416.9l-5.5-3.5l3-2.6L4021.8-416.9L4021.8-416.9z M4001.2-416.9c-4.5,3.1-6.6,7.1-3.1,12
		c3.5,5.1,7.7,4.3,12.3,1.1l4.8-3.3l-9.2-13.1L4001.2-416.9z M4008.5-406.3c-2.6,1.8-5,1.5-6.8-1.1c-1.8-2.6-1.3-5,1.3-6.8l1.4-0.9
		l5.5,7.9L4008.5-406.3z M3980.9-404.4c-4.9,2.5-7.5,6.1-4.8,11.5c2.8,5.5,7.1,5.3,12,2.8l5.2-2.6l-7.2-14.3L3980.9-404.4z
		 M3986.6-392.9c-2.8,1.4-5.2,0.8-6.6-2.1c-1.4-2.8-0.6-5.1,2.3-6.6l1.5-0.7l4.4,8.6L3986.6-392.9z M3960-395.3l1.1,2.8l6.8-2.7
		l1.3,3.4l-6.2,2.4l1.1,2.8l6.2-2.5l1.2,3.1l-6.5,2.6l1.1,2.8l10.5-4.2l-5.9-14.9L3960-395.3z M3943.3-390.6
		c-1.4,0.4-3.4,0.9-5.8,2.2l2.2,8.6l6.4-1.6l-0.7-2.9l-2.4,0.6l-0.8-3.1c0.3-0.3,0.9-0.5,1.4-0.6c3-0.8,5.6,0.5,6.4,3.6
		c0.9,3.6-1.5,5.7-4.8,6.6c-1,0.2-2.6,0.4-4,0l0.5,3.5c1.7,0.2,3.8-0.2,4.9-0.5c5.7-1.4,9.2-4.7,7.8-10.6
		C3952.8-390.8,3947.5-391.7,3943.3-390.6z M3923.7-386.6l0.5,3l7.2-1.1l0.6,3.6l-6.5,1l0.5,3l6.5-1l0.5,3.3l-6.9,1.1l0.5,3
		l11.1-1.8l-2.5-15.8L3923.7-386.6z M3917.7-386.1l0.9,10.9l0,0l-6.3-10.6l-5.3,0.3l1,16l3.9-0.3l-0.8-10.8h0l6.1,10.5l5.4-0.4
		l-1-16L3917.7-386.1z M3893-382.7l7.3,0.2l-0.1,3.6l-6.6-0.2l-0.1,3l6.6,0.2l-0.1,3.3l-7-0.2l-0.1,3l11.3,0.3l0.4-16l-11.5-0.3
		L3893-382.7z M3886.2-380l-0.9-0.1c-1.6-0.2-2-0.9-2.6-3.7l-0.6-3l-4.4-0.5l1.1,4.5c0.6,2,0.5,3.2,1.9,3.8l0,0
		c-2.1,0.3-3.3,1.6-3.5,3.7c-0.3,2.7,1.9,4.3,4.7,4.6l7.6,0.8l1.8-15.9l-4.2-0.5L3886.2-380z M3885.5-373.4l-1.1-0.1
		c-1.6-0.2-3.1-0.6-2.9-2.1c0.2-1.8,1.9-1.7,3.3-1.5l1.1,0.1L3885.5-373.4z M3869.2-389.3c-5.1-1.1-8.5,1.5-9.5,6.5
		c-1,5,1,8.7,6.2,9.7c5.2,1.1,8.5-1.5,9.5-6.5C3876.4-384.5,3874.3-388.2,3869.2-389.3z M3871.1-380.4c-0.6,2.7-2,4.8-4.6,4.3
		c-2.5-0.5-3.1-3-2.5-5.7c0.5-2.6,2-4.8,4.6-4.3C3871.1-385.7,3871.6-383,3871.1-380.4z M3847.9-390.6c-2.1-0.7-4.4,0.4-5.1,2.5
		c-0.7,2.1,0.4,4.4,2.5,5c2.1,0.7,4.3-0.4,5-2.5C3851.1-387.6,3850-389.9,3847.9-390.6z M3827.5-389.5L3827.5-389.5l1.9-12.9
		l-3.5-1.7l-9.2,9.3l0,0l5.5-11.1l-3.8-1.9l-7.1,14.5l5.9,2.9l8-8l0,0l-1.7,11.1l6.1,3l7.1-14.5l-3.8-1.9L3827.5-389.5z
		 M3806.8-415.2l-1.6,2.6l6.2,3.9l-1.9,3.1l-5.7-3.6l-1.6,2.6l5.7,3.6l-1.8,2.8l-6-3.8l-1.6,2.6l9.6,6l8.6-13.7L3806.8-415.2z
		 M3800.7-409.6c3.7-4.9,1-9.6-2.4-12.2c-1.2-0.9-2.8-2.1-5.4-3.2l-5.4,7.2l5.3,4l1.8-2.4l-2-1.5l1.9-2.5c0.4,0.1,0.9,0.4,1.4,0.7
		c2.5,1.9,3.1,4.8,1.2,7.3c-2.3,3-5.4,2.4-8.2,0.3c-0.8-0.6-1.9-1.8-2.5-3.2l-2.4,2.6c0.9,1.4,2.6,2.9,3.5,3.5
		C3792.2-405.4,3797.1-404.7,3800.7-409.6z M3782.8-423.4l-2.5,2.8l2.9,2.5l2.5-2.8L3782.8-423.4z M3785.8-426.9l2.9,2.5l2.5-2.8
		l-2.9-2.5L3785.8-426.9z M3784.5-428.8l2.2-2.2l-8.4-8.2l-2.1,2.2l4.6,4.5l-1.5-0.1c-2-0.1-6.7-0.2-8.9,2c-2.2,2.3-1.5,5.2,1.1,7.7
		c0.7,0.7,1.9,1.6,4.1,2.7l2.2-2.5c-1.1-0.3-2.8-1.2-3.8-2.2c-0.9-0.9-1.2-2-0.2-3.1C3775.3-429.5,3780.2-429.1,3784.5-428.8z
		 M3773.1-445.4c-3.5-4-7.3-2-10.4,0.8c-3.1,2.8-5.7,6.2-2.1,10.2c3.5,4,7.3,2,10.4-0.8C3774.1-437.9,3776.6-441.3,3773.1-445.4z
		 M3768.2-438.3c-1.9,1.7-4.2,3.5-5.5,2c-1.3-1.5,0.8-3.5,2.7-5.2c1.9-1.7,4.2-3.5,5.5-2C3772.2-442,3770.1-440,3768.2-438.3z
		 M3764.5-455.9c-3.2-4.3-7.1-2.5-10.4,0c-3.4,2.5-6.1,5.8-2.9,10c3.2,4.3,7.1,2.5,10.4,0C3764.9-448.4,3767.7-451.6,3764.5-455.9z
		 M3759.1-449.2c-2.1,1.5-4.4,3.1-5.6,1.6c-1.2-1.5,1-3.4,3.1-5c2.1-1.5,4.4-3.1,5.6-1.6C3763.3-452.6,3761.1-450.7,3759.1-449.2z
		 M3746.3-461.7c1.1-0.7,2.4,0.4,2.9,1.3c0.3,0.5,0.6,0.9,0.9,1.6l2.4-1.5c-0.3-0.4-0.6-0.9-1-1.5c-0.6-0.9-1.4-2.6,0-3.5
		c1.4-0.9,2.8,0.6,3.5,1.6c0.8,1.3,1.5,2.6,1.5,3.8l3-1.7c-0.3-1.2-1.1-2.8-2.1-4.3c-1.7-2.7-4.7-5.4-8-3.2
		c-1.7,1.1-2.1,2.8-1.4,4.7l0,0c-1.4-1.2-3-1.6-4.6-0.6c-3,1.9-1.9,5.2-0.3,7.7c1,1.5,1.9,2.6,3.1,3.6l2.6-1.9
		c-0.8-0.6-1.8-1.6-2.6-2.8C3745.6-459.5,3745-460.9,3746.3-461.7z M3743.6-481.7c-1-2-3.4-2.8-5.4-1.8c-2,1-2.8,3.4-1.8,5.4
		c1,2,3.4,2.8,5.3,1.8C3743.7-477.3,3744.6-479.7,3743.6-481.7z"/>
</g>
<g class="st0">
	<path class="st1" d="M2307.3-700.1c-46.2,3.1-84.5,41.2-88,87.3c-2.7,35.5,11,60.8,28.3,78.1c16.2,16.2,36.9,26.7,65.8,27.6
		c-0.3-4.3-1.2-8-0.8-13c-9.4-2.6-22.2-1.8-29.9-6.1c9.7,0.8,18.6,2.3,29.1,2.3c0-13.5,0-27,0-40.6c-16.6-2.8-34-4.8-47.5-10.7
		c-2,10.3,0.6,24.3,0,32.9c-2.8-10.3-4-22-3.8-35.2c-6.3-2.6-14.5-7.5-16.8-11.5c5.4,3.3,10.9,6.5,17.6,8.4
		c0.5-19.4,6.5-33.4,10.7-49c-8.7-4.3-17.4-8.6-22.2-16.8c7,5.5,14.1,11,24.5,13c4.7-10.6,10.7-22.6,16.8-31.4
		c2-2.9,6.3-5.5,5.4-8.4c-5.6-2.6-14.6-5.8-15.3-10.7c6.2,5,14.7,7.6,26,8.4c12.9,0.9,39.3-1.6,39.1-13
		C2346.1-698.8,2322.2-701.2,2307.3-700.1z"/>
	<path class="st1" d="M2380-656.5c7.7-22.4-15-31.3-28.3-35.2c4,3.4-1.2,7.6-1.5,11.5C2362.5-674.6,2370.4-664.7,2380-656.5z"/>
	<path class="st1" d="M2334.1-672.6c9.2,10.2,16.4,22.3,22.2,36c7.9-2.5,14.3-6.6,18.4-13c-6.7-12.2-16.6-21.2-28.3-28.3
		C2342.6-675.9,2337.6-675,2334.1-672.6z"/>
	<path class="st1" d="M2301.2-672.6c-10.4,11.1-17.5,25.4-23.7,40.6c9.6,3,23.3,5.7,34.5,4.6c0.3-14.8,0.9-29.3,1.5-43.6
		C2309.2-671.5,2305.4-672.2,2301.2-672.6z"/>
	<path class="st1" d="M2315.7-671c1.6,13.5-0.2,30.4,1.5,43.6c13.1-0.2,25-1.5,32.9-6.9c-4.7-14.9-11.8-27.5-20.7-38.3
		C2325.5-671.5,2320.5-671.4,2315.7-671z"/>
	<path class="st1" d="M2401.5-612.9c12.5-18.9-1.2-42.9-13-53.6c0.5,7.4-2.3,11.5-3.8,16.8C2391.9-639,2396.7-625.9,2401.5-612.9z"
		/>
	<path class="st1" d="M2360.1-630.5c3.8,14.8,8.9,28.4,10.7,45.2c9.7-4.3,17.7-10.4,23.7-18.4c-2.6-15.3-8.4-27.3-14.5-39
		C2372.8-639.2,2368-633.3,2360.1-630.5z"/>
	<path class="st1" d="M2275.9-628.2c-6,14.1-9.4,30.9-11.5,49c13.4,4.8,28.5,7.8,46.7,7.7c1.7-14.8,0.3-32.9,0.8-49
		C2299.9-623.1,2286-623.7,2275.9-628.2z"/>
	<path class="st1" d="M2318-571.5c17-1.4,33.2-3.6,45.2-10c-0.7-18.2-4.7-33.1-10.7-45.9c-9.8,4.2-23.4,4.7-35.2,6.9
		C2317.8-604.4,2316.3-586.3,2318-571.5z"/>
	<path class="st1" d="M2409.9-618.2c1,6.7-5.9,11-6.9,18.4c-1.2,9.6,2.2,21.8,0,31.4C2408.8-580.6,2414.6-600.6,2409.9-618.2z"/>
	<path class="st1" d="M2396.1-593.7c-6.8,7-15.7,11.8-24.5,16.8c0.2,15.3-1.3,28.8-5.4,39.8C2387.3-544.2,2404.2-562.4,2396.1-593.7
		z"/>
	<path class="st1" d="M2316.5-524.8c18.3-0.1,32.3-4.4,45.2-10c2.1-10.5,5.4-27.7,1.5-39c-12.9,5.2-28.7,7.5-45.9,8.4
		C2317.6-551.3,2315.9-539.2,2316.5-524.8z"/>
	<path class="st1" d="M2452-573c-5.2,19.6-18,31.5-20.7,53.6C2445.6-526.2,2460.1-548.7,2452-573z"/>
	<path class="st1" d="M2193.2-524c2,1.9,3.3,5.7,6.1,4.6c-3.7-21.1-14.7-34.9-21.4-52.8C2171.1-548,2182.6-534.1,2193.2-524z"/>
	<path class="st1" d="M2358.6-527.1c-0.2-0.6-0.6-0.9-1.5-0.8c-11.3,4.5-24.8,6.8-40.6,6.9c-1.4,3.5-0.5,9.2-0.8,13.8
		C2335.4-508.4,2355.3-509.4,2358.6-527.1z"/>
	<path class="st1" d="M2226.9-492.7c-10.8-13-14.9-38-23.7-51.3c-1.2-1.8-1.6-5.6-3.8-4.6c4.4,14.7,5.7,35.7,13.3,45.9
		c1,1,1.9,2,2.8,3.1c-1-0.9-1.9-1.9-2.8-3.1c-12.3-12.3-32.9-16.3-40.1-33.7C2177.7-509.3,2199.2-494.5,2226.9-492.7z"/>
	<path class="st1" d="M2416.4-502.2c-0.9,1-1.8,1.9-2.7,2.7C2414.6-500.5,2415.5-501.4,2416.4-502.2c3.8-4.4,7.1-11.2,8.8-19.5
		c2-9.5,5.2-22.4,4.6-26.8c0,0.3,0,0.5,0,0.8c-11.7,11.6-14.2,37-23,50.5c-1,1.5-3.3,3.6-2.3,5.4c28.1-4,49.7-18.7,52.8-45.2
		C2450.7-518.5,2429.6-514.3,2416.4-502.2z"/>
	<path class="st1" d="M2389.2-544c-11.1,8.3-29.7,13.1-32.2,27.6C2369.4-523.9,2380.6-532.6,2389.2-544z"/>
	<path class="st1" d="M2276.7-482.7c-27.3-2.3-36.7-26.6-55.9-34.5c9.5,13.4,14.6,31.3,34.5,34.5c-22.2-4.9-55.5-2.7-68.1-14.5
		C2200.7-470.2,2245.7-471,2276.7-482.7z"/>
	<path class="st1" d="M2408.4-517.9c-18.3,12.1-29,31.8-55.1,36c16.2,1.4,33.4,9.3,51.3,7.7c18.5-1.7,32.3-12.2,38.3-24.5
		c-11.1,14.4-43,11.6-63.7,14.7C2396.1-488.1,2402.6-505.6,2408.4-517.9z"/>
	<path class="st1" d="M2327.2-482.7c-4,0.2-8.2,2.3-13,2.3c-4.7,0-9.1-2.1-13-2.3c-32.9-1.9-54.8,27.2-87.3,10
		c7.9,9.1,20.2,15.2,33.7,15.3c20.5,0.1,30.8-13.1,45.2-19.1c3.9-1.6,9.2-4,13.8-0.8c-13.4,6.5-26.1,13.7-35.2,24.5
		c1.7,1.6,4.3,2.4,5.4,4.6c12.1-9.8,22-21.9,38.3-27.6c14.8,6.6,25.7,17.2,36.7,27.6c1.7-2.1,4.8-2.9,6.1-5.4
		c-10.4-9.7-22.7-17.6-36-24.5c23.3-0.8,34.7,21.9,61.2,20.7c12.4-0.6,26.1-7.4,31.4-15.3C2383.4-455.6,2359.5-484.7,2327.2-482.7z"
		/>
	<path class="st1" d="M2238.8-437h-4.2l-8.6,25.3h3.9l1.7-5.3h10.5l1.8,5.3h3.9L2238.8-437z M2232.5-419.9l3.9-12.9
		c0-0.1,0.1-0.2,0.2-0.2s0.1,0.1,0.2,0.1l4.2,12.9L2232.5-419.9L2232.5-419.9L2232.5-419.9z"/>
	<path class="st1" d="M2255-421.8h3.2c2.5,0,5.3-0.1,7.5-1.9c1.1-0.8,2.7-2.5,2.7-5.7c0-2.6-1.1-4.6-3.3-6c-2.3-1.6-5.3-1.8-8.2-1.8
		h-5.8v25.3h3.7L2255-421.8L2255-421.8L2255-421.8z M2255-434.1h2.3c1.8,0,7.2,0,7.2,4.7c0,4.1-3.6,4.6-8.1,4.6c-0.5,0-1,0-1.4,0
		V-434.1L2255-434.1z"/>
	<path class="st1" d="M2288.6-431.3c-1.1-3-3.4-6.1-7.9-6.1c-2,0-4.6,0.4-6.8,3.8c-1.5,2.3-2.2,5.8-2.2,9.7c0,6.8,2.5,13,9,13
		c7.2,0,9-7.3,9-13.4C2289.6-426.1,2289.4-429,2288.6-431.3z M2280.6-414.1c-4.6,0-5.1-6.8-5.1-10c0-2.7,0.3-4.9,0.8-6.4
		c0.8-2.4,2.2-3.9,4.5-3.9c4.7,0,5.1,6.8,5.1,10.2C2285.8-417.8,2284.3-414.1,2280.6-414.1z"/>
	<path class="st1" d="M2303.7-411.7v-10l8.8-15.4h-3.8l-5.5,10.1c-0.2,0.3-0.9,1.9-1.1,2.2h-0.3l-0.2-0.3c0,0-0.8-1.5-0.8-1.7
		l-5.6-10.4h-4.4l9.1,15.5v9.8L2303.7-411.7L2303.7-411.7L2303.7-411.7z"/>
	<path class="st1" d="M2328.5-411.7h3.9l-9-25.3h-4.2l-8.6,25.3h3.9l1.7-5.3h10.5L2328.5-411.7z M2317.1-419.9l4-12.9
		c0-0.1,0.1-0.2,0.2-0.2c0.1,0,0.1,0.1,0.2,0.1l4.2,12.9L2317.1-419.9L2317.1-419.9z"/>
	<path class="st1" d="M2355.1-434.9c0.1,0,0.3,0.1,0.3,0.3v22.8h3V-437h-5.6l-5.5,19.6c0,0.2-0.2,0.3-0.4,0.3
		c-0.1,0-0.3-0.1-0.3-0.3l-5.7-19.7h-5.5v25.3h3v-23c0-0.2,0.2-0.3,0.3-0.3c0.1,0,0.2,0.1,0.3,0.2l6.5,23.1h3l6.4-22.9
		C2354.8-434.8,2354.9-434.9,2355.1-434.9z"/>
	<path class="st1" d="M2380.8-424.3c0-1.8-0.2-4.7-1-7c-1.1-3-3.4-6.1-7.9-6.1c-2,0-4.6,0.4-6.8,3.8c-1.5,2.3-2.2,5.8-2.2,9.7
		c0,6.8,2.5,13,9,13C2379-410.9,2380.8-418.3,2380.8-424.3z M2371.7-414.1c-4.6,0-5.1-6.8-5.1-10c0-2.7,0.3-4.9,0.8-6.4
		c0.8-2.4,2.2-3.9,4.5-3.9c4.8,0,5.1,6.8,5.1,10.2C2376.9-417.8,2375.5-414.1,2371.7-414.1z"/>
	<path class="st1" d="M2403.4-418.5c0-1.9-0.6-2.8-0.9-3.4c-1.1-1.9-3.1-2.9-4-3.3l-5.3-2.3c-0.9-0.4-2.9-1.4-2.9-3.6
		c0-2.5,2.4-3.4,4.1-3.4c3.1,0,4.2,1.7,5.5,4.1l3.1-1.8c-1.6-3.5-4.5-5.4-8.6-5.4c-4.2,0-7.6,2.7-7.6,6.5c0,1.8,0.4,2.9,0.8,3.5
		c0.8,1.4,2.8,2.7,4.4,3.4l4.7,2c2.8,1.2,3.3,2.7,3.3,3.9c0,2.8-2.4,4.1-4.7,4.1c-3.6,0-5.4-2.5-6.1-4.5l-3.2,1.9
		c0.6,1.2,1.3,2.5,3,3.8c1.9,1.5,4.5,2,6.1,2c1.4,0,3.6,0,5.8-1.8C2402.5-414.2,2403.4-416.1,2403.4-418.5z"/>
	<polygon class="st1" points="2158.3,-381.9 2167.6,-381.9 2167.6,-385.1 2158.2,-385.1 2158.2,-392.5 2171,-392.5 2171,-395.6 
		2154.4,-395.6 2154.4,-370.3 2171.7,-370.3 2171.7,-373.5 2158.3,-373.5 	"/>
	<polygon class="st1" points="2180.1,-395.6 2176.4,-395.6 2176.4,-370.3 2192.4,-370.3 2192.4,-373.5 2180.1,-373.5 	"/>
	<path class="st1" d="M2217.5-393.8c-2.3-1.6-5.3-1.8-8.2-1.8h-5.8v25.3h3.7v-10.1h3.2c2.5,0,5.3-0.1,7.5-1.9
		c1.1-0.8,2.7-2.5,2.7-5.7C2220.8-390.4,2219.7-392.4,2217.5-393.8z M2208.8-383.3c-0.5,0-1,0-1.4,0v-9.2h2.3c1.9,0,7.2,0,7.2,4.7
		C2216.8-383.8,2213.2-383.3,2208.8-383.3z"/>
	<path class="st1" d="M2228.8-395.6l-8.6,25.3h3.9l1.7-5.3h10.5l1.8,5.3h3.9l-9-25.3H2228.8z M2226.7-378.5l4-12.9
		c0-0.1,0.1-0.2,0.2-0.2c0.1,0,0.1,0.1,0.2,0.1l4.2,12.9L2226.7-378.5L2226.7-378.5L2226.7-378.5z"/>
	<path class="st1" d="M2258-374.5c-0.3,0.5-1.4,1.9-3.5,1.9c-4.4,0-5.4-5.4-5.4-11c0-0.3,0.1-3.8,1.1-6.1c0.6-1.3,1.7-3.3,4.4-3.3
		c2.9,0,4.1,2.2,4.4,4.7l3.5-0.6c-0.2-1.2-0.5-3.2-2.4-5c-1.6-1.6-3.8-2.1-5.5-2.1c-7.5,0-9.1,7.4-9.1,13.2
		c0,12.2,6.6,13.3,8.7,13.3c1,0,3.6,0,5.9-2.2c1.6-1.5,2.4-3.7,2.5-5.7l-3.6-0.6C2258.9-377.1,2258.8-375.6,2258-374.5z"/>
	<polygon class="st1" points="2264.6,-392.4 2272.4,-392.4 2272.4,-370.3 2276.2,-370.3 2276.2,-392.4 2283.9,-392.4 2283.9,-395.6 
		2264.6,-395.6 	"/>
	<path class="st1" d="M2297.1-396c-2,0-4.6,0.4-6.8,3.8c-1.5,2.3-2.2,5.8-2.2,9.7c0,6.8,2.5,13,9,13c7.2,0,9-7.3,9-13.4
		c0-1.8-0.2-4.7-1-7C2304-392.9,2301.6-396,2297.1-396z M2297-372.6c-4.6,0-5.1-6.8-5.1-10c0-2.7,0.3-4.9,0.8-6.4
		c0.8-2.4,2.2-3.9,4.5-3.9c4.8,0,5.1,6.8,5.1,10.2C2302.3-376.3,2300.8-372.6,2297-372.6z"/>
	<path class="st1" d="M2332.5-376c0,0.2-0.2,0.3-0.4,0.3c-0.1,0-0.3-0.1-0.3-0.3l-5.7-19.7h-5.5v25.3h3v-23c0-0.2,0.2-0.3,0.3-0.3
		s0.2,0.1,0.3,0.2l6.5,23.1h3.1l6.4-22.9c0.1-0.2,0.2-0.2,0.4-0.2c0.1,0,0.3,0.1,0.3,0.3v22.8h3v-25.3h-5.6L2332.5-376z"/>
	<path class="st1" d="M2362.8-379.6c0,1.4-0.1,3.3-0.8,4.7c-0.9,1.7-2.8,2.2-4.1,2.2c-4.3,0-5-3.3-5-6v-16.9h-3.7v16.7
		c0,2.3,0.2,4.3,1.7,6.4c1.9,2.6,4.9,3,6.2,3c2,0,4.5-0.2,6.7-2.3c1.8-1.8,2.4-4.3,2.4-6.8v-17h-3.3V-379.6L2362.8-379.6z"/>
	<path class="st1" d="M2386.8-380.6c0,0.9,0,2.2,0.1,3.8c0,0.3,0.1,2.1,0.1,2.4c0,0.3,0,0.4-0.1,0.5c-0.1,0-0.1,0-0.2,0
		c-0.1-0.4-0.9-2.4-1.1-2.9c0,0-1.1-2.5-1.1-2.5l-7.7-16.3h-4.7v25.3h3.1v-16.8c0-0.2-0.2-4-0.2-4.7c0-0.2,0-0.2,0.2-0.4
		c0,0,0.1,0,0.2,0.1c0.2,0.5,1.2,3.3,2.1,5.4l7.8,16.5h4.6v-25.3h-3V-380.6z"/>
	<path class="st1" d="M2402.1-395.6h-5.8v25.3h5.8c7,0,9.3-2.9,10.4-4.8c1.6-2.7,1.9-5.9,1.9-7.5
		C2414.5-390.7,2410.9-395.6,2402.1-395.6z M2402.8-373.5h-2.8v-18.9h1.8c3.3,0,5.2,0.5,6.7,2.2c1.7,2,2.1,4.9,2.1,7.2
		C2410.6-378.2,2409.2-373.5,2402.8-373.5z"/>
	<polygon class="st1" points="2418.6,-393.3 2422.7,-393.3 2422.7,-372.5 2418.6,-372.5 2418.6,-370.3 2430.5,-370.3 2430.5,-372.5 
		2426.4,-372.5 2426.4,-393.3 2430.5,-393.3 2430.5,-395.6 2418.6,-395.6 	"/>
	<path class="st1" d="M2443.6-395.6l-8.6,25.3h3.9l1.7-5.3h10.5l1.8,5.3h3.9l-9-25.3H2443.6z M2441.5-378.5l4-12.9
		c0-0.1,0.1-0.2,0.2-0.2c0.1,0,0.1,0.1,0.2,0.1l4.2,12.9L2441.5-378.5L2441.5-378.5L2441.5-378.5z"/>
	<polygon class="st1" points="2464.5,-373.5 2464.5,-395.6 2460.9,-395.6 2460.9,-370.3 2476.8,-370.3 2476.8,-373.5 	"/>
	<path class="st1" d="M2164.5-589.5l0.2,0.2c1.7-0.2,3.8-0.3,6.2-0.3l0-1.6c-2-0.1-3.1-0.2-3.3-0.3c-0.2,0-0.3-0.1-0.3-0.2
		c-0.1-0.1-0.1-0.5-0.2-1.2c-0.1-1.2-0.2-2.7-0.2-4.5c0-0.8,0-1.3,0.1-1.3c0.1,0,2.6-0.1,7.6-0.2c2.5,0,5-0.1,7.4-0.1
		c3.4,0,5.4,0,5.9,0.1c0.4,0.1,0.6,0.2,0.8,0.3c0.1,0.1,0.3,0.4,0.3,0.8c0.1,0.8,0.2,1.5,0.2,2.2l1.6,0c-0.1-1.7-0.2-3.9-0.2-6.6
		c0-2.1,0-4,0-5.8l-1.6,0c-0.1,1.8-0.2,2.8-0.3,3c-0.2,0.2-0.7,0.4-1.5,0.5c-0.8,0.1-3.1,0.1-6.7,0.2l-12.6,0.1c-0.6,0-0.9,0-1-0.1
		c-0.1,0-0.1-0.2-0.1-0.5c0-3,0-4.9,0.1-5.9c0.1-0.3,0.1-0.5,0.3-0.6c0.2-0.1,1.3-0.2,3.4-0.4l0-1.5c-2.3-0.1-4.3-0.2-6-0.4
		l-0.3,0.2c0.3,4.6,0.4,8.7,0.5,12.4C2164.7-597.2,2164.6-593.4,2164.5-589.5z"/>
	<path class="st1" d="M2167.1-622.6c0.1-0.1,0.3-0.2,0.5-0.2c0.3,0,2.2,0.3,5.6,1l10,2.1c2.7,0.6,4.4,1,5,1.3
		c0.4,0.2,0.7,0.4,0.8,0.6c0.1,0.2,0,1.2-0.3,2.8l1.5,0.3l1.2-6.2c0.2-1.1,0.5-2.3,0.9-3.6l0.5-2.1l-1.5-0.3c-0.5,1.6-0.8,2.5-1,2.7
		c-0.2,0.2-0.9,0.2-2,0c-1.6-0.3-4-0.7-7.2-1.4l-1.2-0.3c0.4-2,0.8-4.3,1.4-6.9c0.4-1.7,0.7-3.2,1-4.5c4.5,1,7.5,1.7,8.8,2.1
		c0.8,0.2,1.3,0.5,1.4,0.7c0.1,0.3,0.1,1.2-0.2,2.8l1.5,0.3c0.4-2.5,0.9-4.6,1.2-6.4c0.2-0.9,0.5-2,0.8-3.6l0.5-2l-1.5-0.3
		c-0.5,1.6-0.8,2.5-0.9,2.6c-0.2,0.2-0.4,0.3-0.7,0.3c-0.3,0-1.4-0.2-3.3-0.5l-8.3-1.7c-1.6-0.4-3.8-0.9-6.4-1.5
		c-1.7-0.4-2.7-0.7-2.9-0.9c-0.1-0.1-0.2-0.2-0.3-0.4c-0.1-0.3,0-1.2,0.2-2.8l-1.5-0.3c-0.4,2.1-0.7,4-1.1,5.8
		c-0.2,1.1-0.7,3.1-1.5,6.1l1.5,0.3c0.4-1.6,0.8-2.5,1.1-2.7c0.2-0.2,0.7-0.2,1.4-0.1c1.3,0.2,4,0.7,7.9,1.6c-0.2,1.2-0.5,3-1.1,5.4
		c-0.6,2.8-1.1,4.8-1.4,6l-1.5-0.3c-1.8-0.4-3.6-0.8-5.3-1.2c-1.2-0.3-1.9-0.5-2.1-0.7c-0.1-0.1-0.2-0.2-0.3-0.4
		c-0.1-0.3,0-1.2,0.2-2.7l-1.5-0.3c-0.3,1.9-0.7,4-1.2,6.2c-0.3,1.4-0.8,3.4-1.4,5.8l1.5,0.3
		C2166.6-621.4,2166.9-622.4,2167.1-622.6z"/>
	<path class="st1" d="M2176.5-657c0.3-0.1,0.7,0,1.4,0.2c1.3,0.5,3.9,1.6,7.8,3.4c5.7,2.6,9.3,4.4,11,5.4c0.1,0.7,0.2,1.4,0.2,2.1
		l0.9,0.4c0.9-2.1,1.7-4.2,2.6-6c0.7-1.4,1.4-3,2.2-4.7c0.9-1.8,1.4-3,1.7-3.7c0.4-1,0.8-2,1.2-3c-1.8-0.9-3.7-1.9-5.6-3.1l-0.6,1.4
		c1.2,0.9,2.3,1.7,3.2,2.4c-0.5,1.7-1.2,3.5-2.1,5.4l-1.6,3.4c-1.8-0.7-4.3-1.7-7.5-3.2c-0.6-0.3-1.2-0.6-1.8-0.9
		c0.3-0.9,0.6-1.6,0.9-2.2c0.9-2,1.5-3.2,1.9-3.7c0.2-0.2,0.3-0.3,0.5-0.3c0.3,0,1.2,0.3,2.7,0.9l0.7-1.5l-3.9-1.7
		c-0.6-0.3-1.8-0.9-3.7-1.8l-0.7,1.5c1.2,0.6,1.9,1.1,2,1.2c0.2,0.2,0.3,0.4,0.3,0.6c0,0.4-0.4,1.3-1.1,2.9c-0.5,1.1-1,2.2-1.7,3.4
		c-2.1-1-4.8-2.3-8.3-4c0.5-1.3,1-2.4,1.4-3.4c0.9-1.9,1.6-3.3,2.3-4.2c0.3-0.4,0.5-0.6,0.7-0.6c0.1,0,1.1,0.3,2.7,1l0.6-1.3
		c-2-1.1-3.6-2-4.7-2.8l-0.2,0c-0.4,0.8-0.9,1.6-1.3,2.6l-4.1,9.4c-0.7,1.6-1.7,3.6-3,6.3l1.4,0.6
		C2175.7-656.1,2176.2-656.9,2176.5-657z"/>
	<path class="st1" d="M2211.4-678.1c3.7-0.4,7.1-2.5,10.2-6.1c1.2-1.4,2.2-2.8,3-4.2c0.8-1.5,1.7-3.4,2.7-5.9
		c-1.5-1.1-2.5-1.9-3-2.3c-0.7-0.6-1.4-1.3-2.3-2.3c0.1-0.5,0.3-1.1,0.6-1.6l-0.9-0.8c-1.2,1.5-2.3,2.9-3.4,4.1
		c-1.2,1.3-2.5,2.9-4,4.5l1.1,1c1.7-1.8,2.7-2.7,3-2.7c0.3,0,1.2,0.6,2.6,1.8c0.6,0.6,1.3,1.2,2,1.9c-0.6,1.8-1.4,3.3-2.4,4.5
		c-1.9,2.2-4.3,3.4-7.3,3.5c-3,0.1-5.8-1.1-8.6-3.4c-2.6-2.2-4-4.7-4.2-7.4c-0.2-2.7,0.7-5.3,2.8-7.7c1.1-1.3,2.3-2.3,3.4-2.9
		c1.2-0.7,2.4-1,3.6-1c0.8,0.5,1.6,1.1,2.5,1.9l1-1.2c-1.7-1.7-3-3.2-4-4.5l-0.3-0.1c-1.4,0.8-2.8,1.7-4.1,2.8
		c-1.3,1.1-2.6,2.3-3.8,3.7c-3.4,3.9-5.1,7.8-5,11.5s1.6,6.9,4.7,9.6C2204.4-678.7,2207.7-677.7,2211.4-678.1z"/>
	<path class="st1" d="M2214.8-712.8c0.2-0.1,0.4,0,0.5,0c0.3,0.1,1,0.9,2.2,2.3c1.7,1.9,3.4,4,5.2,6.2c2.3,2.8,4.5,5.6,6.5,8.3
		c-0.2,0.7-0.5,1.4-0.8,2.1l0.6,0.8c2-1.7,3.5-3,4.6-3.9l2.4-1.9l5.3-4.2c0.8-0.6,1.6-1.3,2.5-2.2c-1.5-2.2-2.8-4.1-3.7-5.7l-1.3,1
		c0.7,1.4,1.3,2.6,1.8,3.7c-1,1.3-2.4,2.7-4.2,4.2c-0.6,0.5-1.6,1.2-2.9,2.2c-1.5-1.7-2.8-3.2-3.9-4.5l-5.7-7.1
		c-2.3-2.9-3.5-4.5-3.7-4.8c-0.2-0.3-0.2-0.6-0.2-0.7c0.1-0.3,0.8-1,2-2.2l-1-1.2c-1.3,1.2-2.8,2.4-4.3,3.7
		c-1.6,1.3-3.3,2.7-5.2,4.2l1,1.2C2213.9-712.2,2214.6-712.7,2214.8-712.8z"/>
	<path class="st1" d="M2244.5-709.4c3.3,0.9,6.9,0.3,11-1.9c2.7-1.5,4.7-3.2,6-5.3c1.3-2.1,2-4.3,2.1-6.8c0-2.4-0.6-4.9-2-7.5
		c-1.3-2.4-2.9-4.1-4.7-5.2c-1.8-1.1-3.9-1.6-6.2-1.6c-2.3,0.1-4.8,0.8-7.6,2.4c-2.9,1.6-5,3.3-6.3,5.3c-1.3,2-2,4.1-2.1,6.5
		c-0.1,2.3,0.6,4.8,2,7.3C2238.6-712.6,2241.2-710.3,2244.5-709.4z M2239.3-727.9c0.4-2.3,1.9-4.1,4.2-5.3c2.5-1.4,4.8-1.6,6.8-0.8
		c2.5,1,4.7,3.3,6.6,6.8c1.8,3.3,2.5,6.1,2.1,8.5c-0.4,2.3-1.7,4.1-3.9,5.3c-1.8,1-3.4,1.4-4.9,1.3c-1.5-0.1-3-0.8-4.6-2
		c-1.6-1.2-3-3-4.3-5.4C2239.5-722.9,2238.9-725.7,2239.3-727.9z"/>
	<path class="st1" d="M2262.6-741.8c0.2,0.1,0.5,0.6,0.9,1.5c0.6,1.7,1.6,4.5,2.9,8.6c1.7,5.6,2.8,9.3,3.2,11
		c-0.3,0.4-0.7,1-1.2,1.6l0.3,0.8c2.1-0.7,3.5-1.2,4.2-1.4c0.6-0.2,1.4-0.4,2.4-0.7c1-0.3,1.8-0.5,2.3-0.7c2.6-0.8,4.5-1.8,5.7-2.9
		c1.2-1.1,2.1-2.4,2.5-4c0.5-1.5,0.5-3,0-4.4c-0.4-1.2-0.9-2.1-1.7-2.9c-0.8-0.7-1.7-1.2-2.7-1.4c-1-0.2-2.6,0-4.8,0.4l0-0.1
		c1.9-1.1,3.3-2.3,4.1-3.6c0.8-1.3,1-2.8,0.5-4.4c-0.5-1.5-1.4-2.6-2.8-3.1c-1.4-0.5-3.4-0.4-6.1,0.4c-0.7,0.2-1.7,0.6-3.2,1.1
		c-1.6,0.5-2.7,0.9-3.5,1.2l-2.6,0.8l-3.4,1l0.5,1.5C2261.3-741.9,2262.2-742,2262.6-741.8z M2276.5-734.3c0.8,0.2,1.6,0.6,2.2,1.2
		c0.7,0.6,1.2,1.6,1.6,2.8c0.6,1.9,0.6,3.4,0,4.7c-0.6,1.2-1.8,2.1-3.4,2.7c-0.6,0.2-1.3,0.3-2,0.3l-0.3-1l-1.5-4.7l-1.4-4.6
		l-0.1-0.5l1.8-0.6C2274.6-734.3,2275.6-734.4,2276.5-734.3z M2270.3-744.3c1.5-0.5,2.7-0.5,3.6,0c0.9,0.4,1.5,1.3,1.9,2.7
		c0.5,1.5,0.4,2.8-0.2,3.8c-0.6,1-1.9,1.8-3.9,2.4l-0.9,0.3l-0.5-1.6c-0.3-0.8-0.9-3.1-2-6.7
		C2269.1-743.9,2269.7-744.2,2270.3-744.3z"/>
	<path class="st1" d="M2292-725.3c1.8-0.2,3.3-0.3,4.5-0.4l-0.2-1.7c-1.5,0-2.4,0-2.6-0.1c-0.3-0.1-0.4-0.3-0.4-0.6
		c0-0.2,0-0.4,0-0.7c0.2-1.2,0.4-2,0.6-2.6l0.6-2.2c1.3-0.2,2.8-0.4,4.5-0.5c1.9-0.2,3.6-0.4,5.2-0.5l1.6,3c0.7,1.3,1,2,1,2.3
		c0,0.3-0.1,0.5-0.3,0.6c-0.2,0.1-1.1,0.3-2.5,0.5l0.2,1.7c1.9-0.3,4-0.6,6.1-0.8c1.7-0.2,3.5-0.3,5.3-0.5l0,0.5
		c2.6,0.1,4.6,0.2,6,0.3l3,0.3l6.7,0.6c1,0.1,2.1,0.1,3.3,0.1c0.4-2.7,0.9-4.9,1.3-6.7l-1.6-0.1c-0.4,1.5-0.9,2.8-1.3,3.9
		c-1.6,0.2-3.6,0.3-5.9,0.1c-0.8-0.1-2-0.2-3.6-0.4c0.1-2.2,0.2-4.2,0.3-5.9l0.8-9.1c0.3-3.7,0.5-5.7,0.6-6c0.1-0.3,0.2-0.6,0.4-0.7
		c0.3-0.2,1.3-0.2,3-0.2l0.1-1.6c-1.8-0.1-3.7-0.2-5.6-0.3c-2.1-0.2-4.3-0.4-6.7-0.6l-0.1,1.6c1.6,0.3,2.5,0.4,2.7,0.5
		c0.2,0.1,0.3,0.2,0.3,0.4c0.1,0.3,0.1,1.3,0,3.1c-0.1,2.6-0.3,5.3-0.5,8.1c-0.3,3.7-0.6,7.2-1.1,10.5c-0.5,0.3-1.1,0.6-1.7,0.8
		l-0.1-1.1c-1.3,0-2.1,0-2.4-0.2c-0.3-0.2-1.1-1.5-2.4-3.9l-10.5-19.1l-2.7,0.3l-4.9,16.8c-0.9,3-1.6,5.3-2.2,7
		c-0.3,0.9-0.6,1.4-0.7,1.5c-0.3,0.2-1,0.4-2.1,0.6l0.2,1.7C2288.9-724.9,2290.3-725.1,2292-725.3z M2298-745.7l5,9.1
		c-1.3,0.2-2.7,0.4-4.1,0.5c-1.4,0.1-2.6,0.2-3.8,0.3L2298-745.7z"/>
	<path class="st1" d="M2351.1-723c1.8,1.8,4.2,3.3,7.3,4.3c1.6,0.6,3.2,0.9,4.5,1.1c1.4,0.1,2.9,0.1,4.5-0.2
		c0.4-0.5,1.2-2.8,1.6-3.6l-1.1-0.7c-0.5,0.8-0.9,2.4-1.6,2.5c-0.6,0-1.2,0-1.8-0.1c-1.2-0.1-2.4-0.4-3.6-0.8
		c-3.2-1.1-5.4-3-6.6-5.5c-1.3-2.8-1.3-5.9-0.2-9.2c1.1-3.1,2.8-5.2,5-6.4c2.3-1.2,4.8-1.3,7.6-0.3c1.2,0.4,2.2,0.9,3.1,1.5
		c0.9,0.6,1.5,1.2,2,1.9c0.4,0.6,0.6,1.1,0.6,1.3c0,0.2-0.3,1.2-0.8,3.1l1.5,0.5c0.6-1.5,1.2-2.7,1.7-3.7c0.3-0.6,0.6-1.1,1.1-1.7
		l0-0.3c-1.3-1.1-2.6-2-4-2.8c-1.4-0.8-2.8-1.5-4.4-2c-4.6-1.6-8.5-1.7-12-0.2c-3.4,1.4-5.8,4-7,7.6c-0.9,2.5-1.1,5-0.6,7.4
		C2348.2-726.9,2349.3-724.8,2351.1-723z"/>
	<path class="st1" d="M2371.7-717.2c0.9,3.3,3.3,6.1,7.2,8.5c2.6,1.6,5.1,2.4,7.6,2.6c2.5,0.1,4.8-0.4,6.9-1.6
		c2.1-1.2,3.9-3,5.5-5.5c1.4-2.3,2.1-4.5,2.1-6.7c0-2.1-0.6-4.2-1.7-6.1c-1.2-1.9-3.1-3.7-5.9-5.4c-2.8-1.7-5.4-2.7-7.8-2.8
		c-2.4-0.2-4.6,0.3-6.6,1.4c-2.1,1.1-3.9,2.9-5.4,5.4C2371.5-723.9,2370.8-720.5,2371.7-717.2z M2376.4-718.6c0.3-2,1.1-4.1,2.5-6.4
		c1.9-3.2,4-5.1,6.2-5.9c2.2-0.8,4.4-0.4,6.7,1c2.5,1.5,3.8,3.3,4.1,5.5c0.4,2.7-0.5,5.7-2.6,9.1c-2,3.2-4.1,5.2-6.3,6.1
		c-2.2,0.8-4.4,0.6-6.6-0.7c-1.7-1-2.9-2.2-3.5-3.6C2376.3-714.9,2376.1-716.6,2376.4-718.6z"/>
	<path class="st1" d="M2393.9-702.3c-0.4,0-0.9-0.3-1.5-0.9l-0.8-0.7l-1.1,1.1c1.1,1,2.3,2.2,3.6,3.5c0.9,0.9,1.8,1.8,2.6,2.8
		l1.1-1.1c-1.1-1.2-1.6-2-1.6-2.3c0-0.4,0.4-0.9,1.1-1.7c1.8-1.9,5.3-5.3,10.2-10.3l1.8-1.8l-4.9,14c-1.2,3.4-2.3,6.2-3.1,8.4
		l0.9,0.9c1.6-0.7,3.8-1.5,6.5-2.4c6.5-2.3,11.8-4.1,15.9-5.4l-8,7.9c-2.3,2.3-3.8,3.7-4.5,4.3c-0.7,0.6-1.1,0.9-1.4,0.8
		c-0.3,0-0.8-0.3-1.4-0.9l-0.8-0.8l-1.1,1.1c2,1.9,3.6,3.4,4.7,4.5c0.9,0.9,2,2.1,3.1,3.2l-0.6,0.4c2.1,3.2,3.4,5.1,3.8,5.7
		c0.8,1.3,1.8,2.9,2.9,4.8l1.3-0.8c-0.9-1.6-1.4-2.6-1.4-2.9c0-0.2,0-0.4,0.2-0.5c0.2-0.2,1.1-0.9,2.7-1.9c4-2.7,6.4-4.2,7.2-4.7
		c2.3-1.4,5-3.1,8.3-5.1c0.6,0.6,1.1,1.2,1.5,1.8c0.9,1.3,1.1,2.6,0.9,3.8c-0.3,1.2-1.2,2.2-2.6,3.1c-1.3,0.8-2.6,1.1-3.7,0.9
		s-2.1-0.9-2.7-1.9c-0.1-0.2-0.2-0.3-0.3-0.6c-0.1-0.2-0.2-0.4-0.3-0.7l-0.6-0.1c-0.2,0.4-0.5,0.9-0.7,1.3c0.1,0.4,0.3,0.8,0.5,1.1
		c0.1,0.3,0.3,0.6,0.5,0.9c1.4,2.1,3.1,3.5,5.3,4c2.2,0.6,4.3,0.2,6.2-1c1.1-0.7,1.8-1.5,2.3-2.4c0.4-0.9,0.5-2,0.3-3.1
		c-0.2-1.1-0.9-2.6-2.1-4.5c-0.3-0.5-0.8-1.3-1.5-2.3c-1.3-2-2.2-3.4-2.8-4.3c-0.4-0.7-1-1.5-1.6-2.7l-1.1-1.8l-1.3,0.8l0.5,1
		c0.4,0.8,0.6,1.3,0.5,1.6c-0.1,0.3-0.8,0.9-2.2,1.9c-1.4,1-3.8,2.5-7.1,4.7c-1.8,1.1-3.7,2.3-5.6,3.5c-1.9,1.2-3.1,1.8-3.4,1.8
		c-0.2,0-0.4,0-0.5-0.1c-0.2-0.1-0.6-0.5-1.2-1.3l0.6-0.6c-1-1.2-1.6-1.9-1.6-2.1c0-0.2,0-0.4,0-0.6c0.1-0.3,1.1-1.4,2.8-3.1
		c1.7-1.8,3.4-3.4,4.9-5c3.1-3.1,5.3-5.2,6.4-6.2c0.7-0.6,1.2-0.9,1.5-0.9c0.3,0,1,0.6,2.3,1.7l1.1-1.1c-1.1-1-2.2-2.1-3.3-3.2
		c-0.9-1-1.9-2-2.9-3.1c-4.1,1.6-10.6,3.9-19.6,6.9c3.1-8.7,4.8-13.6,5.2-14.8c0.6-1.6,1.2-3.2,1.9-4.8c-1.1-1.1-2.3-2.2-3.5-3.4
		c-1-1-2-2.1-3.1-3.2l-1.1,1.1c1,1.2,1.6,1.9,1.6,2.1c0.1,0.2,0.1,0.4,0,0.6c-0.1,0.3-0.7,1-1.7,2.1c-1.7,1.7-3.2,3.3-4.6,4.6
		c-2.5,2.5-4.9,4.8-7.2,6.9C2395-702.8,2394.3-702.3,2393.9-702.3z"/>
	<path class="st1" d="M2429-660.9c-0.9-0.1-1.5-0.1-1.6-0.3c-0.3-0.2-0.6-0.8-1.2-1.9l-1.6,0.6c0.5,0.9,1,2.2,1.7,3.8
		c0.7,1.7,1.2,3.1,1.6,4.3l1.6-0.6c-0.5-1.4-0.7-2.3-0.7-2.6c0-0.3,0.1-0.5,0.4-0.6c0.2-0.1,0.4-0.1,0.7-0.2
		c1.2-0.1,2.1-0.2,2.7-0.2l2.3,0c0.6,1.2,1.1,2.6,1.8,4.2c0.7,1.8,1.4,3.4,1.9,4.8l-2.4,2.3c-1,1-1.7,1.5-1.9,1.6
		c-0.2,0.1-0.5,0.1-0.6-0.1c-0.2-0.2-0.6-0.9-1.2-2.3l-1.6,0.6c0.8,1.8,1.6,3.6,2.5,5.6c0.7,1.7,1.4,3.5,2.1,5.4l1.6-0.6
		c-0.4-1.2-0.6-2-0.4-2.4c0.1-0.3,1.2-1.5,3.1-3.5l15.4-15.4l-1-2.5l-17.5,0C2433.2-660.8,2430.8-660.8,2429-660.9z M2447.6-658.6
		l-7.4,7.4c-0.6-1.2-1.1-2.5-1.7-3.8c-0.5-1.3-1-2.5-1.4-3.5L2447.6-658.6L2447.6-658.6L2447.6-658.6z"/>
	<path class="st1" d="M2447.6-641c-2.6,0.5-4.9,1.6-6.7,3.2c-1.8,1.6-3.1,3.6-3.8,6c-0.7,2.4-0.7,5.3-0.1,8.5
		c0.3,1.7,0.8,3.2,1.3,4.4c0.6,1.3,1.4,2.5,2.4,3.8c0.7,0.1,1.4,0.3,2,0.5l0.3-0.5c-0.9-1.2-1.7-2.4-2.1-3.5
		c-0.5-1.1-0.9-2.3-1.1-3.6c-0.7-3.4-0.2-6.2,1.5-8.5c1.8-2.5,4.4-4.1,7.9-4.8c3.2-0.6,5.9-0.3,8.1,1.1c2.1,1.4,3.5,3.5,4.1,6.5
		c0.2,1.2,0.3,2.4,0.2,3.5c-0.1,1.1-0.3,2-0.6,2.6c-0.3,0.7-0.6,1.1-0.8,1.2c-0.2,0.1-1.2,0.4-3.1,0.8l0.3,1.5
		c1.6-0.2,2.9-0.3,4-0.4c0.6,0,1.3,0,2,0.1l0.3-0.2c0.3-1.6,0.4-3.3,0.4-4.9c0-1.6-0.2-3.2-0.5-4.8c-0.9-4.8-2.9-8.2-5.8-10.5
		C2454.8-641,2451.4-641.8,2447.6-641z"/>
	<path class="st1" d="M2465.5-591.4c-0.3-4.6-0.4-8.7-0.5-12.4c-0.1-3.7,0-7.5,0.1-11.5l-0.2-0.2c-1.7,0.2-3.8,0.3-6.2,0.3l0,1.6
		c2,0.1,3.1,0.2,3.3,0.3c0.2,0,0.3,0.1,0.3,0.2c0.1,0.1,0.1,0.5,0.2,1.2c0.1,1.2,0.2,2.7,0.2,4.5c0,0.9,0,1.3-0.1,1.3
		c-0.1,0-2.6,0.1-7.6,0.2c-2.5,0-5,0.1-7.4,0.1c-3.4,0-5.4,0-5.9-0.1c-0.4-0.1-0.7-0.2-0.8-0.3c-0.1-0.1-0.3-0.4-0.3-0.8
		c-0.1-0.8-0.2-1.5-0.2-2.2l-1.6,0c0.1,1.7,0.2,3.9,0.2,6.6c0,2.1,0,4,0,5.8l1.6,0c0.1-1.8,0.2-2.8,0.4-3c0.2-0.2,0.7-0.4,1.5-0.5
		c0.8-0.1,3.1-0.1,6.7-0.2l12.6-0.1c0.6,0,0.9,0,1,0.1c0.1,0,0.1,0.2,0.1,0.5c0.1,3,0,4.9-0.1,5.9c0,0.3-0.1,0.5-0.3,0.6
		c-0.2,0.1-1.3,0.2-3.4,0.4l0,1.6c2.3,0.1,4.3,0.2,6,0.4L2465.5-591.4z"/>
</g>
</svg>
