<?xml version="1.0" encoding="utf-8"?>
<!-- Generator: Adobe Illustrator 16.0.0, SVG Export Plug-In . SVG Version: 6.00 Build 0)  -->
<!DOCTYPE svg PUBLIC "-//W3C//DTD SVG 1.1//EN" "http://www.w3.org/Graphics/SVG/1.1/DTD/svg11.dtd">
<svg version="1.1" id="Layer_1" xmlns="http://www.w3.org/2000/svg" xmlns:xlink="http://www.w3.org/1999/xlink" x="0px" y="0px"
	  viewBox="0 0 960 560" enable-background="new 0 0 960 560" xml:space="preserve">
<g>
	<path fill="#FFFFFF" d="M412.214,244.397c-5.239-2.781-12.31-4.752-20.77-4.752c-19.879,0-31.824,9.338-36.691,13.106l7.155-42.254
		h-28.126l-19.579,115.63h28.125l10.678-63.053c7.049-5.412,15.655-9.991,24.96-9.991c4.86,0,9.05,1.469,11.808,3.929
		c5.15,4.584,4.195,11.46,2.858,19.327l-8.431,49.79h28.13l9.403-55.524C422.98,263.23,424.949,251.602,412.214,244.397z
		 M486.728,238.659c-32.146,0-43.047,14.419-49.059,22.445l6.723,2.784c4.975-4.421,13.951-12.449,31.927-12.449
		c8.033,0,19.729,2.126,23.304,10.97c1.397,3.497,1.363,7.233,1.004,10.908h0.604l-4.416,26.045h-0.482l-1.651,9.722
		c-5.966,2.784-13.294,6.065-23.229,6.065c-14.17,0-18.158-7.697-16.937-14.906c1.805-10.651,13.658-15.723,26.138-15.723
		c3.833,0,7.114,0.423,10.133,1.063l2.066-12.166c-5.174-1.085-10.398-1.836-17.412-1.836c-25.166,0-47.508,10.81-50.781,30.137
		c-2.554,15.06,9.408,26.854,31.401,26.854c20.091,0,32.048-8.184,37.345-11.952l-1.604,9.502h27.267l8.577-50.614
		c1.304-7.694,2.972-18.828-6.182-27.187C516.163,243.413,505.126,238.659,486.728,238.659z M733.401,318.91
		c-2.109,0-10.564,0-14.399-7.363c-1.642-2.784-2.331-6.221-1.136-13.27l6.464-38.208h30.741l3.02-17.798h-30.737l3.852-22.767
		h-28.13l-3.856,22.767h-29.595l-25.678,41.76l-4.505,7.864c-1.574-4.431-1.653-5.241-3.107-9.173l-14.715-40.452h-9.305
		l-36.507,49.461c-0.782-4.092-1.041-5.076-1.879-8.847l-10.884-40.617H533.64l25.875,84.501h10.358l36.82-48.792l20.287,48.792
		h10.15l43.514-66.703h15.557l-7.041,41.652c-1.25,7.363-1.445,14.743,5.386,20.635c7.161,6.39,18.29,6.877,23.361,6.877
		c13.958,0,22.21-3.769,29.057-6.718l-2.498-5.237C740.952,318.099,737.847,318.91,733.401,318.91z M791.527,273.548
		c-0.375,0.562-1.186,2.325-2.119,7.81c-0.37,2.139-0.557,3.746-0.65,4.968h75.048c1.342-9.173,3.763-24.737-9.252-36.523
		c-11.4-10.159-28.126-11.304-37.426-11.304c-38.277,0-61.958,19.982-66.127,44.549c-4.349,25.711,12.647,46.505,51.557,46.505
		c37.214,0,48.807-17.188,55.008-26.361l-6.54-2.621c-8.652,7.363-17.779,15.064-37.444,15.064
		c-28.663,0-32.503-16.997-33.024-25.749c-0.132-0.344-0.614-2.086,0.339-7.903c0.97-5.931,2.222-8.21,2.47-8.626
		c4.555-9.624,10.65-21.108,30.796-21.108c21.146,0,21.146,13.757,21.138,21.295h-43.771V273.548z M290.935,219.502H262.81
		l-13.922,82.219c-1.25,7.363-1.44,14.744,5.386,20.636c7.168,6.389,18.29,6.876,23.366,6.876c13.956,0,22.209-3.768,29.052-6.718
		l-2.499-5.236c-3.521,0.82-6.619,1.632-11.055,1.632c-2.122,0-10.577,0-14.402-7.363c-1.644-2.784-2.335-6.221-1.145-13.27
		l6.473-38.213h22.762l2.995-17.681h-22.762L290.935,219.502z"/>
	<path fill="#FFFFFF" d="M107.522,162.519C48.137,162.519,0,210.656,0,270.029c0,59.376,48.137,107.508,107.522,107.508
		s107.522-48.132,107.522-107.508C215.045,210.656,166.908,162.519,107.522,162.519z M107.522,356.17
		c-47.583,0-86.155-38.568-86.155-86.143c0-47.575,38.573-86.146,86.155-86.146c47.587,0,86.155,38.568,86.155,86.146
		C193.678,317.602,155.109,356.17,107.522,356.17z M117.929,217.575h-28.13l-13.917,82.219c-1.25,7.363-1.445,14.738,5.383,20.636
		c7.162,6.389,18.292,6.876,23.364,6.876c13.963,0,22.214-3.764,29.052-6.713l-2.494-5.242c-3.521,0.816-6.624,1.646-11.062,1.646
		c-2.112,0-10.575,0-14.403-7.382c-1.644-2.779-2.333-6.222-1.137-13.26l6.468-38.218h22.759l2.995-17.681h-22.759L117.929,217.575z
		"/>
	<path fill="#FFFFFF" d="M878.193,227.353h-7.059v18.23h-5.851v-18.23h-7.059v-4.387h19.968V227.353z M905.424,245.583h-5.851
		v-15.149l-4.172,9.831h-4.008l-4.176-9.831v15.149h-5.508v-22.618h6.787l5.071,11.352l5.04-11.352h6.815V245.583z"/>
	<path fill="#FFFFFF" d="M937.347,345.956h-5.297v13.672h-4.388v-13.672h-5.297v-3.291h14.981V345.956z M960,359.631h-4.387v-11.366
		l-3.128,7.377h-3.005l-3.127-7.377v11.366h-4.131v-16.963h5.086l3.802,8.518l3.782-8.518H960V359.631z"/>
	<path fill="#FFFFFF" d="M529.411,351.046c-2.46,0-4.706,1.697-4.953,3.688c-0.128,1.004,0.244,1.949,0.998,2.65
		c0.754,0.703,1.839,1.102,3.043,1.102c2.45,0,4.637-1.697,4.894-3.749C533.64,352.743,531.812,351.046,529.411,351.046z
		 M520.992,387.341h7.973l3.142-25.564h-7.968L520.992,387.341z M548.837,354.838h-7.968l-0.853,6.938h-4.854l-0.492,4.003h4.854
		l-1.735,14.129c-0.275,2.242-0.252,4.49,1.75,6.286c2.1,1.946,5.254,2.1,6.684,2.1c3.965,0,6.267-1.152,8.17-2.052l-0.768-1.594
		c-0.984,0.25-1.855,0.497-3.118,0.497c-0.595,0-2.995,0-4.156-2.242c-0.497-0.85-0.728-1.898-0.458-4.051l1.607-13.073h7.008
		l0.492-4.003h-7.013L548.837,354.838z M561.427,352.098l-5.155,14.124l2.35,0.453l11.499-14.577H561.427L561.427,352.098z
		 M576.741,364.529c6.051,0,7.239,2.592,7.659,3.487l2.159-0.492c-0.117-1.003-0.295-2.503-1.897-4.047
		c-1.727-1.653-4.697-2.798-8.766-2.798c-8.935,0-13.439,4.495-13.941,8.587c-0.571,4.646,3.866,6.099,5.021,6.441
		c1.327,0.451,2.672,0.694,4.022,0.956c3.807,0.693,5.7,1.346,6.398,2.995c0.127,0.441,0.202,0.845,0.154,1.238
		c-0.029,0.153-0.311,2.503-3.778,3.403c-1.054,0.295-2.081,0.348-3.043,0.348c-3.348,0-6.108-0.943-7.617-2.35
		c-0.754-0.698-1.027-1.401-1.309-2.045l-2.143,0.394c0.028,1.205,0.158,3.056,1.987,4.8c1.176,1.097,4.008,2.945,10.003,2.945
		c8.808,0,13.569-4.145,14.114-8.587c0.267-2.15-0.459-4.047-1.745-5.292c-1.555-1.5-3.82-2.05-5.46-2.4
		c-1.111-0.25-2.218-0.446-3.334-0.648c-2.625-0.604-5.301-1.248-5.021-3.549C570.413,366.271,572.371,364.529,576.741,364.529z
		 M658.946,354.838h-7.968l-0.853,6.938h-4.854l-0.487,4.003h4.859l-1.749,14.129c-0.271,2.242-0.25,4.49,1.749,6.286
		c2.105,1.946,5.259,2.1,6.698,2.1c3.956,0,6.25-1.152,8.16-2.052l-0.768-1.594c-0.989,0.25-1.855,0.497-3.113,0.497
		c-0.595,0-2.995,0-4.161-2.242c-0.497-0.85-0.723-1.898-0.454-4.051l1.604-13.073h7.013l0.487-4.003h-7.008L658.946,354.838z
		 M676.908,364.974l0.389-3.197h-8.021l-3.146,25.564h8.03l2.429-19.818c1.471-0.754,3.394-1.745,6.333-1.745
		c2.218,0,3.704,0.586,5.125,1.19l0.712-5.794c-0.703-0.094-1.476-0.142-2.253-0.142
		C681.048,361.037,678.262,363.68,676.908,364.974z M708.53,381.252c-1.874,1.599-4.067,2.847-6.647,2.847
		c-3.955,0-5.232-2.297-4.819-5.645l2.045-16.678h-8.026l-2.169,17.621c-0.281,2.302-1.073,8.743,9.295,8.743
		c5.522,0,8.208-2.396,9.955-3.938l-0.389,3.142h8.03l3.146-25.565h-8.035L708.53,381.252z M737.649,364.529
		c6.051,0,7.233,2.592,7.658,3.487l2.155-0.492c-0.112-1.003-0.29-2.503-1.902-4.047c-1.707-1.653-4.688-2.798-8.761-2.798
		c-8.931,0-13.435,4.495-13.941,8.587c-0.566,4.646,3.866,6.099,5.025,6.441c1.327,0.451,2.672,0.694,4.022,0.956
		c3.807,0.693,5.7,1.346,6.398,2.995c0.123,0.441,0.202,0.845,0.146,1.238c-0.01,0.153-0.305,2.503-3.772,3.403
		c-1.052,0.295-2.076,0.348-3.034,0.348c-3.359,0-6.117-0.943-7.632-2.35c-0.746-0.698-1.022-1.401-1.298-2.045l-2.155,0.394
		c0.038,1.205,0.173,3.056,1.991,4.8c1.186,1.097,4.014,2.945,10.009,2.945c8.808,0,13.569-4.145,14.119-8.587
		c0.267-2.15-0.464-4.047-1.75-5.292c-1.55-1.5-3.825-2.05-5.46-2.4c-1.106-0.25-2.218-0.446-3.328-0.648
		c-2.626-0.604-5.307-1.248-5.026-3.549C731.316,366.271,733.274,364.529,737.649,364.529z M763.795,354.838h-7.968l-0.859,6.938
		h-4.851l-0.491,4.003h4.854l-1.734,14.129c-0.271,2.242-0.25,4.49,1.744,6.286c2.101,1.946,5.254,2.1,6.693,2.1
		c3.956,0,6.258-1.152,8.17-2.052l-0.768-1.594c-0.989,0.25-1.86,0.497-3.118,0.497c-0.6,0-3,0-4.156-2.242
		c-0.497-0.85-0.732-1.898-0.464-4.051l1.608-13.073h7.008l0.492-4.003h-7.013L763.795,354.838z M798.285,354.838h-7.973
		l-0.85,6.938h-4.859l-0.487,4.003h4.851l-1.735,14.129c-0.271,2.242-0.25,4.49,1.749,6.286c2.096,1.946,5.254,2.1,6.689,2.1
		c3.96,0,6.252-1.152,8.155-2.052l-0.754-1.594c-0.989,0.25-1.86,0.497-3.118,0.497c-0.595,0-2.995,0-4.156-2.242
		c-0.497-0.85-0.732-1.898-0.459-4.051l1.604-13.073h7.013l0.487-4.003h-7.013L798.285,354.838z M832.378,362.43
		c-1.52-0.85-3.54-1.452-5.94-1.452c-5.631,0-8.916,2.854-10.26,3.998l1.584-12.876h-7.973l-4.322,35.246h7.963l2.361-19.219
		c1.941-1.651,4.332-3.056,6.965-3.056c1.378,0,2.583,0.459,3.389,1.205c1.505,1.396,1.318,3.492,1.018,5.888l-1.869,15.182h7.973
		l2.076-16.922C835.627,368.17,836.062,364.628,832.378,362.43z M848.144,351.046c-2.465,0-4.707,1.697-4.954,3.688
		c-0.117,1.004,0.24,1.949,0.994,2.65c0.748,0.703,1.843,1.102,3.038,1.102c2.455,0,4.651-1.697,4.898-3.749
		C852.355,352.743,850.529,351.046,848.144,351.046z M839.719,387.341h7.974l3.137-25.564h-7.974L839.719,387.341z M875.316,361.037
		c-5.818,0-8.774,2.592-10.51,4.092l0.412-3.351h-7.973l-3.142,25.565h7.974l2.33-19.018c1.538-1.304,3.746-3.149,7.041-3.149
		c2.878,0,4.186,1.549,4.486,2.996c0.196,0.85,0.088,1.749-0.02,2.597l-2.035,16.574h8.025l2.124-17.273
		c0.262-2.15,0.394-4.691-1.637-6.693C880.949,361.978,878.488,361.037,875.316,361.037z M912.772,361.776l-0.333,2.75
		c-1.106-1.303-3.192-3.85-8.756-3.85c-7.555,0-13.879,5.148-14.851,13.083c-1.027,8.34,4.982,12.585,11.03,12.585
		c3.3,0,6.624-1.204,8.729-2.704c0.586-0.394,1.121-0.84,1.658-1.347c-0.318,3.104-0.731,6.497-3.974,8.945
		c-0.989,0.741-3.398,2.287-7.467,2.287c-3.36,0-5.798-1.146-7.195-2.443c-0.53-0.55-0.988-1.195-1.706-2.198l-2.007,0.748
		c0.212,1.2,0.517,3.049,2.297,4.692c1.997,1.848,5.779,3.148,10.524,3.148c4.973,0,9.643-1.396,12.412-3.491
		c3.956-2.996,4.52-7.042,4.982-10.347l2.686-21.866h-8.03V361.776z M910.613,379.397c-1.205,1.008-3.596,2.901-7.073,2.901
		c-3.718,0-6.905-2.794-6.196-8.537c0.707-5.793,4.166-9.089,8.602-9.089c3.654,0,5.039,1.954,6.064,3.389L910.613,379.397z
		 M616.378,360.68c-9.118,0-12.056,4.387-13.673,6.845l1.937,0.85c1.363-1.349,3.821-3.797,8.916-3.797
		c2.277,0,5.616,0.648,6.728,3.343c0.501,1.251,0.458,2.598,0.35,3.9c-2.315-0.604-4.176-1.097-7.111-1.097
		c-7.135,0-13.354,3.29-14.07,9.188c-0.566,4.593,2.949,8.184,9.178,8.184c5.694,0,9-2.493,10.451-3.644l-0.348,2.893h7.726
		l1.894-15.433c0.291-2.335,0.644-5.738-2.035-8.282C624.764,362.129,621.586,360.68,616.378,360.68z M619.373,382.147
		c-1.663,0.85-3.703,1.851-6.521,1.851c-4.013,0-5.227-2.35-4.953-4.543c0.398-3.25,3.703-4.8,7.243-4.8
		c2.025,0,3.535,0.451,5.035,0.955L619.373,382.147z"/>
</g>
</svg>
