<?xml version="1.0" encoding="utf-8"?>
<!-- Generator: Adobe Illustrator 19.1.0, SVG Export Plug-In . SVG Version: 6.00 Build 0)  -->
<svg version="1.0" id="Layer_1" xmlns="http://www.w3.org/2000/svg" xmlns:xlink="http://www.w3.org/1999/xlink" x="0px" y="0px"
	 viewBox="-156 150.8 645.3 261.2" enable-background="new -156 150.8 645.3 261.2" xml:space="preserve">
<g>
	<g>
		<path fill="#00874D" d="M-154,335.4c3.4-5,76.2-110,78.1-113s5-5.8,8.6-0.6c3.5,5.1,5.2,8.2,7.3,11.4c2.5,3.8-2.5,7.9-5.9,3.6
			c-3.9-4.9-4.6-10.1-8.9-2.8c-4,6.8-19.8,28.8-23.3,34.1c-2.6,4-2.8,11.8-1,17.7c1.4,4.4,3.9,7.5,5.3,9.3c1.2,1.5,0.6,3.5-1.4,6.1
			c-1.9,2.5-29,42.6-29,42.6s-22.1,0-27.2,0C-157.1,343.8-157,339.9-154,335.4z"/>
		<path fill="#00874D" d="M-117,343.8c0.8-0.3,59-85.5,62.8-91.2c3.8-5.7,9.6-2.1,6.2,3.7c-4.5,7.7-19.8,30.8-22.8,35.2
			c-2.7,4-3,10.1-2,14.7c1.2,5.4,3.8,9.9,7.7,13L-82,343.8H-117z"/>
		<path fill="#00874D" d="M-73.7,343.8c37.6-55.4,37.9-56.5,41.8-61.5c3.3-4.2,8.6-0.6,5.9,3.8c-2.8,4.5-20.3,30.1-22.8,33.9
			c-3,4.5-2.2,15.9,5.9,15.9c8.7-0.1,45.9-0.3,45.9-0.3s-12.8-17.9-16.1-23.5c-3.4-6,3.1-8.1,5.9-4.3c1.8,2.5,16.4,23.8,19.7,28.1
			c2.6,3.5,1.4,7.9-2.7,7.9S-73.7,343.8-73.7,343.8z"/>
	</g>
	<g>
		<polygon points="318.1,343.5 332.3,250 343.9,250 374.8,314.9 406.6,250 417.1,250 429.9,343.5 408.2,343.5 401.8,281.9 
			371.9,343.5 366.6,343.5 337,283.4 330.5,343.5 		"/>
		<path d="M437.4,343.5c0,0,0-88.9,0-90.8c0-1.4,1.5-2.7,2.8-2.7c1.2,0,49.1,0,49.1,0s0,5.4,0,7.7c0,1.8-1.7,3-3.1,3
			c-0.9,0-27.1,0-27.1,0v28.7h30.2c0,0,0,6.3,0,7.7c0,1.7-1.5,2.6-3.1,2.7c-1.2,0-27.4,0-27.4,0v33.1h30.5c0,0,0,5.9,0,8.2
			c0,2-1.6,2.3-3.6,2.3C484.1,343.5,437.4,343.5,437.4,343.5z"/>
		<path d="M143.2,343.5c0,0,0-88.9,0-90.8c0-1.4,1.5-2.7,2.8-2.7c1.2,0,49.1,0,49.1,0s0,5.4,0,7.7c0,1.8-1.7,3-3.1,3
			c-0.9,0-27.1,0-27.1,0v28.7h30.2c0,0,0,6.3,0,7.7c0,1.7-1.5,2.6-3.1,2.7c-1.2,0-27.4,0-27.4,0v43.7H143.2z"/>
		<path d="M206.5,343.5c0,0,0-88.9,0-90.8c0-1.4,1.5-2.7,2.8-2.7c1.2,0,19.6,0,19.6,0l0,93.5H206.5z"/>
		<path d="M262.5,343.5h-23.1c0,0,0-88.9,0-90.8c0-1.4,1.5-2.7,2.8-2.7c1.2,0,33.5,0,33.5,0c6.7,0,28-1.2,27.8,24.3
			c-0.1,11.8-8.6,21-21.2,23c2.8,4.2,28.6,46.2,28.6,46.2s-14.1,0-17.6,0c-6,0-8.2-4.3-10.8-8.2c-2.6-3.9-20.2-35.3-20.2-35.3
			L262.5,343.5z M271.8,293.8c7.3-3.2,11.8-9.5,11.8-17.8c0-10.4-6.3-15.7-11.4-17.5c-2.9-1-10.1-1.1-10.1-1.1v37.8
			C262,295.3,268.9,295.1,271.8,293.8z"/>
		<path d="M102.6,316.8H71.3l-10.7,26.7H48.5L87.6,250h10.3l37.7,93.5c0,0-12.3,0-15.9,0c-6,0-8.8-7-9.8-9.6
			S102.6,316.8,102.6,316.8z M75,308.3h24.7l-12.4-31.7l-12.6,31.7"/>
	</g>
</g>
</svg>
