<?xml version="1.0" encoding="utf-8"?>
<!-- Generator: Adobe Illustrator 19.1.0, SVG Export Plug-In . SVG Version: 6.00 Build 0)  -->
<svg version="1.0" id="Layer_1" xmlns="http://www.w3.org/2000/svg" xmlns:xlink="http://www.w3.org/1999/xlink" x="0px" y="0px"
	 viewBox="0 0 645.3 174.5" enable-background="new 0 0 645.3 174.5" xml:space="preserve">
<g>
	<path fill-rule="evenodd" clip-rule="evenodd" fill="#2E3191" d="M198.6,60.1c1.6-0.3,4-0.6,8.5-0.6c8.4,0,13.4,2.7,13.4,8.5
		c0,5.5-5,9.1-15.5,9.1h-6.4V60.1L198.6,60.1z M180.7,123.5c4,0.6,10.8,1.2,20.4,1.2c16.1,0,25.8-2.4,31.8-6.8
		c5.2-3.8,8.8-9.4,8.8-16.7c0-10.3-7.1-16.7-15.8-19v-0.2c9-3.1,13.1-9.5,13.1-16.2c0-7.6-4.5-12.8-10.3-15.5
		c-5.8-2.9-12.1-3.9-23.8-3.9c-9.4,0-19.7,0.8-24.2,1.7V123.5L180.7,123.5z M198.6,90h6.8c9.6,0,17,2.8,17,10.4
		c0,8.2-7.6,11-16.1,11c-3.5,0-5.9,0-7.8-0.3V90L198.6,90z"/>
	<path fill-rule="evenodd" clip-rule="evenodd" fill="#2E3191" d="M626.6,123.9l-6-9.9c-2.1-3.5-4.3-7.4-5.5-9.7
		c-1,2.3-3.4,6.3-5.5,9.7l-6,9.9h-18.7l21.2-32.3l-18-27.5h18.7l2.9,4.9c2.2,3.5,4.3,7.4,5.5,9.7c1.1-2.2,3.4-6.2,5.5-9.7l2.9-4.9
		h18.6l-18,27.5l21.2,32.3H626.6L626.6,123.9z"/>
	<path fill-rule="evenodd" clip-rule="evenodd" fill="#2E3191" d="M285.1,106.3c-1.7,2.9-5.8,5.5-10.9,5.5c-6.7,0-9.1-3.8-9.1-8
		c0-4.8,3.2-7.5,9.4-7.5c6.1,0,9.8,2.1,10.7,2.5V106.3L285.1,106.3z M300.9,123.9V83.8c0-13.4-9.6-21-25.3-21
		c-11.7,0-19.4,4.8-21.5,6.1l6,10.9c1.3-0.7,7-4.2,15-4.2c7.1,0,9.9,3.4,9.9,7.6v3.2c-1.4-0.6-5.2-2.4-12.2-2.4
		c-12.5,0-23.6,6.6-23.6,19.8c0,14.5,11,21.3,21.7,21.3c8.4,0,12.8-4.2,14.1-5.2v4H300.9L300.9,123.9z"/>
	<path fill-rule="evenodd" clip-rule="evenodd" fill="#2E3191" d="M409.8,106.3c-1.7,2.9-5.8,5.5-10.9,5.5c-6.7,0-9.1-3.8-9.1-8
		c0-4.8,3.2-7.5,9.4-7.5c6.1,0,9.8,2.1,10.7,2.5V106.3L409.8,106.3z M425.5,123.9V83.8c0-13.4-9.5-21-25.2-21
		c-11.7,0-19.4,4.8-21.5,6.1l6.1,10.9c1.3-0.7,7-4.2,15-4.2c7.1,0,9.9,3.4,9.9,7.6v3.2c-1.4-0.6-5.1-2.4-12.2-2.4
		c-12.6,0-23.6,6.6-23.6,19.8c0,14.5,11,21.3,21.7,21.3c8.5,0,12.9-4.2,14-5.2v4H425.5L425.5,123.9z"/>
	<path fill-rule="evenodd" clip-rule="evenodd" fill="#2E3191" d="M349.3,123.9v-34c0-9.6-5-12.2-10.2-12.2
		c-4.9,0-10.3,2.9-10.3,11.9v34.4h-15.7V64.1h15.7v4c1.3-1.1,5.7-5.3,14.5-5.3c12.5,0,21.7,6.7,21.7,23.1v38H349.3L349.3,123.9z"/>
	<path fill-rule="evenodd" clip-rule="evenodd" fill="#2E3191" d="M507.9,123.9V90.5c0-9.5-3.5-12.9-9.6-12.9
		c-5.2,0-9.7,3.2-9.7,12.6v33.7h-15.7V90.5c0-9.3-3.6-12.9-9.6-12.9c-5.6,0-9.7,3.2-9.7,12.6v33.7H438V64.1h15.7v4
		c1.1-1,6-5.3,14.3-5.3c10,0,14.4,6.5,15.3,7.7c1-0.9,7.5-7.7,18.5-7.7c12.6,0,21.8,7.5,21.8,23.5v37.6H507.9L507.9,123.9z"/>
	<path fill-rule="evenodd" clip-rule="evenodd" fill="#2E3191" d="M569.2,87.2h-20.5c0.3-4.8,3.2-10.7,10.2-10.7
		C565.9,76.5,568.7,81.9,569.2,87.2L569.2,87.2z M584.8,94c0-18.4-9.6-31.3-25.5-31.3c-15.2,0-26.7,12.9-26.7,31.3
		c0,18.9,10.9,31.1,28.2,31.1c8,0,16.6-3.5,21.4-9.7l-9.4-8.8c-0.8,0.8-4.6,5.2-11.9,5.2c-6.5,0-11.9-4.6-12.4-12.8h36.1
		C584.7,97.9,584.8,96.3,584.8,94L584.8,94z"/>
	<path fill-rule="evenodd" clip-rule="evenodd" fill="#EC1C24" d="M49.4,113.9c-2.5,1.5-6.1,3.2-10.2,4.8c4.5,4.3,15,12.9,30.8,12.9
		c3.5,0,4.7-1.8,4.7-3.8c0-2.6-2.6-4.1-6.6-5.3c-5.2-1.6-13.9-3.7-13.9-10.4c0-0.7,0.1-1.3,0.3-1.9C53,111.9,51.2,112.9,49.4,113.9
		L49.4,113.9z M97.4,49.1c-1.9,0-3.5,1.7-3.5,3.5c0,1.8,1.1,3.8,2.9,6.2c2.5,3.2,6.5,8.1,6.5,12.6c0,2.8-1.7,4.7-2.7,5.4
		c0.9-0.2,1.8-0.2,2.6-0.2c3.2,0,8.8,0.8,14.6,2.3c-1.1-6.1-4.6-19.3-17.3-28.5C99.4,49.4,98.3,49.1,97.4,49.1L97.4,49.1z
		 M91.6,116.2c0.6,2.8,1.1,6.7,1.4,11.2c3.8-2.1,10.5-6.3,16-13.8c3.9-5.8,6.1-11.3,6.1-13.6c0-2.7-2.2-3.7-3.6-3.7
		c-2,0-3.9,1.9-6,4.9c-3.1,4.4-7.9,12.1-14.2,10c-0.6-0.2-1.2-0.5-1.7-0.9C90.8,112.1,91.2,114.2,91.6,116.2L91.6,116.2z M89.3,91.1
		c2.6-8,5.6-11.8,8.6-13.4c-3.9,0.5-9.4-2-15.6-6.6c-6.8-4.9-9.4-8.9-10.1-12.3c-0.7,3.9-4.9,8.4-11,12.9
		c-6.8,4.9-11.4,6.2-14.9,5.8c3.5,1.9,6.4,7.2,8.8,14.5c1.4,4.3,2,7.7,2,10.3c0,2.3-0.4,4.2-1.1,5.6c2.9-2.7,8.8-3.9,16.5-3.9
		c8.5,0,12.9,1.7,15.5,4.1c-0.6-1.3-0.9-3.1-0.9-5C87,99.8,87.8,95.7,89.3,91.1L89.3,91.1z M93.6,144.7c0,12.6-14,13.6-22,13.6
		c-7.5,0-16.8-1.4-24-4.8c-8.6-3.9-11.2-7.9-11.2-18.1c0-5.3,0.4-12,0.6-15.8c-4.4,1.8-9.3,3.5-14.1,5c-12,4-17.3-9.1-19.7-16.7
		C0.8,100.8,0,93.8,0,88.1c0-13.2,4.1-17.6,14-20.9c5.1-1.6,11.5-3.3,15.2-4.3c-3-3.6-6.2-7.8-9.1-11.9c-1.8-2.4-2.5-4.8-2.5-7
		c0-7.3,7.4-13.3,12.3-16.9c6.1-4.4,17.9-11,28.1-11c5.6,0,9.3,2.5,13.9,8.8c3.1,4.3,6.7,9.9,8.8,13.1c2.5-4,5.5-8.3,8.4-12.4
		c2.7-3.7,6-5.1,9.4-5.1c6.1,0,12.3,4.1,16.4,7c6.1,4.5,12.8,11.1,16.6,18c2.2,3.8,3.3,6.8,3.3,9.8c0,3.5-1.6,6.9-4.8,11.4
		c-3.1,4.3-7.3,9.4-9.8,12.4c4.6,1.2,9.6,2.7,14.4,4.2c6.6,2.2,8.5,7.3,8.5,12.6c0,10.6-7,25.9-14.4,34c-4.2,4.5-7.6,6.7-12.3,6.7
		c-2.4,0-5.1-0.5-8.5-1.6c-5.1-1.6-11.3-4-14.8-5.4C93.5,134.5,93.6,139.7,93.6,144.7L93.6,144.7z M72.6,39.7
		c-7.1,0-16.5,1.6-25.7,8.1c-1.8,1.3-2.4,2.6-2.4,3.7c0,1.1,0.9,3.6,4,3.6c4.4,0,10.3-3.8,16.3-3.8c5.7,0,7,4.1,7.2,4.7
		c0.2-2.6,2.5-8.3,7.3-15.8C77.7,39.9,75.3,39.7,72.6,39.7L72.6,39.7z M30.8,64.9c-2.7,5.6-7.6,18.3-2.8,33.2c1.1,3.3,3.2,4,5,3.3
		c2.5-0.8,3.1-3.7,3-7.9c-0.1-5.4-0.7-14.4,5.6-16.5c0.7-0.2,1.3-0.4,2-0.3C40.6,75.4,36.2,71.2,30.8,64.9L30.8,64.9z"/>
</g>
</svg>
