<?xml version="1.0" encoding="utf-8"?>
<!-- Generator: Adobe Illustrator 19.1.0, SVG Export Plug-In . SVG Version: 6.00 Build 0)  -->
<svg version="1.0" id="Layer_1" xmlns="http://www.w3.org/2000/svg" xmlns:xlink="http://www.w3.org/1999/xlink" x="0px" y="0px"
	 viewBox="-156 150.8 645.3 261.2" enable-background="new -156 150.8 645.3 261.2" xml:space="preserve">
<g>
	<path fill="#EC1C24" d="M184.2,225.7v-57.2c0-3.2,0.6-5.4,1.8-6.4c1.2-1,3.7-1.5,7.5-1.5c9.6,0,16.2,2.3,20,6.8
		c3.7,4.5,5.6,13.1,5.6,25.7c0,11.6-2.5,20-7.4,25.1c-5,5-13,7.6-24,7.6H184.2L184.2,225.7z M184.2,232.6c13.9,0.1,24,3.2,30.2,9.4
		c6.2,6.2,9.2,16.3,9.2,30.4c0,11-2.3,19.1-6.9,24.4c-4.6,5.3-11.7,7.9-21.1,7.9c-4.2,0-7.1-0.8-8.8-2.5c-1.7-1.7-2.6-4.7-2.6-9.1
		V232.6L184.2,232.6z M143.6,225.7H140c-11.1,0-19.1-2.5-24-7.6c-4.9-5.1-7.4-13.4-7.4-25.1c0-12.6,1.9-21.1,5.6-25.7
		c3.7-4.5,10.4-6.8,20-6.8c3.8,0,6.3,0.5,7.5,1.5c1.2,1.1,1.8,3.2,1.8,6.4V225.7L143.6,225.7z M143.6,232.6v60.3
		c0,4.4-0.9,7.4-2.6,9.1c-1.7,1.7-4.6,2.5-8.8,2.5c-9.5,0-16.5-2.6-21.1-7.9c-4.6-5.3-6.9-13.4-6.9-24.4c0-14.1,3.1-24.2,9.2-30.4
		C119.6,235.8,129.6,232.7,143.6,232.6L143.6,232.6z M192.2,153.3h-56.7h-1.6c-20.3,0-36.1,2.1-47.5,8.6
		C75,168.3,69,177.8,69.3,189.1c0.5,21.9,8,29.9,31.4,37.7c-26.9,5.8-37.7,17.3-37.7,42.4c0,13.8,6.4,24.4,18,31.7
		c11.7,7.3,28.6,10.9,50.7,10.9h3.9h56.7h3.9c22.1,0,39-3.6,50.7-10.9c11.7-7.3,18-17.9,18-31.7c0-25.1-10.9-36.6-37.7-42.4
		c23.3-7.9,30.8-15.9,31.4-37.7c0.3-11.3-5.7-20.8-17.1-27.2c-11.4-6.4-27.2-8.6-47.5-8.6H192.2L192.2,153.3z"/>
	<path fill="#A44685" d="M489.3,377c0,5.5-1,10.5-3.2,15.1c-2.1,4.5-5.2,8.3-9.2,11.4c-2,1.5-4.2,2.7-6.6,3.6
		c-2.5,0.8-4.9,1.3-7.5,1.3c-2.5,0-5-0.4-7.5-1.3c-2.5-0.8-4.7-2-6.6-3.6c-4-3.2-7.1-7-9.2-11.5c-2.1-4.5-3.1-9.5-3.1-15
		c0-5.5,1-10.5,3.1-15c2.1-4.5,5.2-8.3,9.2-11.5c2-1.5,4.2-2.7,6.6-3.5c2.4-0.8,4.9-1.2,7.6-1.2c2.6,0,5.1,0.4,7.5,1.2
		c2.5,0.8,4.6,2,6.6,3.5c4,3.1,7.1,6.9,9.2,11.4C488.3,366.4,489.3,371.4,489.3,377L489.3,377z M462.9,348.4c-3.6,0-6.1,2-7.5,6
		c-1.4,4-2.2,11.6-2.2,22.7c0,10.8,0.7,18.2,2.2,22.2c1.5,4,4,6,7.5,6c3.5,0,6-2,7.5-6c1.4-4,2.2-11.4,2.2-22.2
		c0-11.1-0.7-18.7-2.2-22.7C468.9,350.4,466.4,348.4,462.9,348.4L462.9,348.4z"/>
	<path fill="#A44685" d="M430,399.3c0,1.5,0.3,2.5,0.9,3.1c0.6,0.6,1.7,1,3.2,1.1v2.8H413v-2.8c1.6-0.2,2.7-0.5,3.3-1.2
		c0.6-0.6,0.9-1.6,0.9-3.1v-46.5c0-1.5-0.3-2.5-0.9-3.1c-0.6-0.6-1.7-1-3.3-1.2v-2.8h21.1v2.8c-1.6,0.2-2.6,0.6-3.2,1.2
		c-0.6,0.6-0.9,1.7-0.9,3.2V399.3L430,399.3z"/>
	<path fill="#A44685" d="M396.5,352.7c0-1.6-0.4-2.6-1.2-3.3c-0.8-0.6-2.2-0.9-4.3-0.9v-2.9h22.1v2.9c-1.5,0-2.5,0.3-3,0.9
		c-0.6,0.6-0.9,1.7-0.9,3.2v39.7c0,3-0.2,5.4-0.6,7c-0.4,1.7-1.1,3.1-2.1,4.3c-1.5,1.8-3.5,3.2-6.1,4.2c-2.6,1-5.5,1.6-8.6,1.6
		c-4.2,0-7.7-1-10.5-3c-2.8-2-4.1-4.4-4.1-7.4c0-2.1,0.6-3.8,1.9-5c1.3-1.2,3.1-1.8,5.3-1.8c1.9,0,3.5,0.5,4.7,1.5
		c1.2,1,1.8,2.3,1.8,3.9c0,1.5-0.6,2.8-1.9,3.8c-1.2,1-2.8,1.5-4.6,1.5c-0.3,0-0.7-0.1-1.3-0.3c-0.2-0.1-0.3-0.1-0.3-0.1l-0.3,0.3
		c0.8,0.9,1.7,1.6,2.9,2.1c1.2,0.5,2.5,0.8,3.9,0.8c2.6,0,4.4-0.9,5.6-2.7c1.2-1.8,1.7-4.7,1.7-8.9V352.7L396.5,352.7z"/>
	<path fill="#A44685" d="M348.5,386.5h13l-6.4-23.7L348.5,386.5L348.5,386.5z M335.2,406.8v-2.7c1.4-0.1,2.7-0.7,3.7-1.9
		c1-1.2,1.9-3.1,2.7-5.6l14.4-50.9h6.6l14.3,52c0.7,2.3,1.4,3.9,2.4,4.9c0.9,1,2.1,1.5,3.6,1.5v2.7h-21.8v-2.7
		c1.5-0.1,2.5-0.3,3.2-0.7c0.7-0.4,1-1.1,1-2c0-0.4,0-0.9-0.1-1.4c-0.1-0.5-0.2-1.1-0.4-1.6l-2.3-8.3h-14.9l-2,7.3
		c-0.1,0.4-0.2,0.8-0.2,1.2c-0.1,0.4-0.1,0.8-0.1,1.3c0,1.4,0.4,2.4,1.3,3.1c0.8,0.7,2.2,1,4.1,1.2v2.7H335.2L335.2,406.8z"/>
	<path fill="#A44685" d="M285,406.1v-3.6c2-0.2,3.4-0.7,4.2-1.5c0.8-0.8,1.2-2.1,1.2-4v-60.2c0-1.9-0.4-3.2-1.2-4.1
		c-0.8-0.8-2.2-1.3-4.2-1.5v-3.6h25.7c8.9,0,15.9,1.6,20.9,4.8c5,3.2,7.5,7.6,7.5,13.2c0,5-2,9.2-5.9,12.6
		c-3.9,3.4-9.5,5.7-16.8,6.9c8.2,1.1,14.5,3.4,18.8,6.8c4.3,3.4,6.5,7.8,6.5,13.1c0,6.8-2.6,12.1-7.7,15.7
		c-5.2,3.6-12.6,5.4-22.3,5.4H285L285,406.1z M306.5,366.8v29.8c0,2.2,0.4,3.7,1.1,4.5c0.7,0.8,2,1.3,3.9,1.3c4.2,0,7.3-1.3,9.3-3.9
		c2-2.6,3-6.6,3-12.1c0-7-1.3-12-4.1-15C317.1,368.4,312.6,366.9,306.5,366.8L306.5,366.8z M306.5,363.4h1.6c4.9,0,8.4-1.3,10.6-3.8
		c2.2-2.5,3.3-6.6,3.3-12.4c0-6.2-0.8-10.5-2.5-12.7c-1.6-2.2-4.6-3.4-8.8-3.4c-1.7,0-2.8,0.3-3.3,0.8c-0.5,0.5-0.8,1.6-0.8,3.2
		V363.4L306.5,363.4z"/>
	<path fill="#A44685" d="M216.8,406.2v-2.7c1.7-0.2,2.8-0.5,3.5-1.1c0.7-0.6,1-1.6,1-3v-45.2c0-1.4-0.3-2.4-1-3
		c-0.7-0.6-1.8-1-3.5-1.2v-2.7h23.3l-0.1,2.7c-2.1,0.1-3.5,0.5-4.3,1.1c-0.8,0.6-1.2,1.6-1.2,3.1v45.6c0,1.4,0.3,2.4,0.9,2.9
		c0.6,0.5,1.7,0.8,3.1,0.8c3.7,0,6.9-1.4,9.7-4.1c2.8-2.7,5.3-6.9,7.5-12.6h3.2l-1.2,19.3H216.8L216.8,406.2z"/>
	<path fill="#A44685" d="M171.6,406.2v-2.7c1.7-0.2,2.9-0.5,3.6-1.1c0.7-0.6,1-1.6,1-3v-45.2c0-0.9-0.1-1.6-0.3-2.1
		c-0.2-0.5-0.6-0.9-1.1-1.2c-0.4-0.3-0.8-0.5-1.3-0.6c-0.5-0.1-1.2-0.2-1.9-0.3v-2.7h42.1l0.3,17.1h-3.5c-1.4-5-3.4-8.7-6-10.9
		c-2.6-2.3-6-3.4-10.2-3.4c-1.7,0-2.9,0.2-3.5,0.7c-0.6,0.5-0.9,1.7-0.9,3.5v19.9c2.8-0.2,5.1-1.2,6.9-2.9c1.8-1.7,3-4.3,3.6-7.6
		h3.6v25.3h-3.6c-0.4-3.5-1.6-6.3-3.4-8.3c-1.8-2.1-4.2-3.3-7.1-3.5v22.8c0,1.4,0.3,2.4,0.9,2.9c0.6,0.5,1.7,0.8,3.3,0.8
		c3.9,0,7.2-1.3,10-4c2.8-2.7,5.1-6.8,7-12.3h3.4l-0.4,19H171.6L171.6,406.2z"/>
	<path fill="#A44685" d="M140.2,399.1c0,1.9,0.3,3.1,0.9,3.6c0.6,0.5,1.7,0.8,3.3,0.8c4.4,0,7.5-1.7,9.2-5.2
		c1.7-3.4,2.6-11.2,2.6-23.1c0-9.8-0.9-16.4-2.6-19.9c-1.7-3.5-4.7-5.3-8.9-5.3c-1.7,0-2.9,0.3-3.5,1c-0.7,0.7-1,1.8-1,3.5V399.1
		L140.2,399.1z M121.8,406.2v-2.7c1.7-0.2,2.9-0.5,3.6-1.1c0.7-0.6,1-1.6,1-3v-45.2c0-1.4-0.4-2.4-1-3c-0.7-0.6-1.9-1-3.6-1.2v-2.7
		H139c4.9,0,8.8,0.3,11.8,0.9c2.9,0.6,5.6,1.7,8,3.1c4.1,2.6,7.3,6,9.5,10.3c2.2,4.3,3.3,9.3,3.3,14.9c0,9.4-2.7,16.7-8.1,21.8
		c-5.4,5.1-13.1,7.7-22.9,7.7H121.8L121.8,406.2z"/>
	<path fill="#A44685" d="M90.9,377.6c0,5.3-1,10.2-3.1,14.5c-2,4.4-5,8.1-9,11c-1.9,1.5-4.1,2.6-6.5,3.5c-2.4,0.8-4.8,1.2-7.3,1.2
		c-2.5,0-4.9-0.4-7.3-1.2c-2.4-0.8-4.6-2-6.5-3.5c-4-3.1-7-6.8-9-11.1c-2-4.3-3.1-9.2-3.1-14.5c0-5.3,1-10.2,3.1-14.5
		c2-4.3,5-8,9-11.1c1.9-1.5,4.1-2.6,6.4-3.4c2.4-0.8,4.8-1.2,7.4-1.2c2.5,0,5,0.4,7.4,1.2c2.4,0.8,4.5,1.9,6.4,3.4c4,3,7,6.7,9,11
		C89.9,367.3,90.9,372.2,90.9,377.6L90.9,377.6z M65.1,350c-3.5,0-6,1.9-7.4,5.8c-1.4,3.9-2.1,11.2-2.1,21.9
		c0,10.4,0.7,17.6,2.1,21.4c1.4,3.9,3.9,5.8,7.3,5.8c3.4,0,5.9-1.9,7.3-5.8c1.4-3.9,2.1-11,2.1-21.4c0-10.7-0.7-18.1-2.1-21.9
		C71,352,68.5,350,65.1,350L65.1,350z"/>
	<path fill="#A44685" d="M33.1,388.6h4.4v1.2c0,6-1.7,10.5-5.1,13.5c-3.4,3-8.5,4.5-15.4,4.5c-8.3,0-14.7-2.6-19.4-7.7
		c-4.7-5.2-7-12.4-7-21.6c0-9.4,2.4-16.9,7.3-22.6c4.9-5.7,11.2-8.5,19-8.5c1.7,0,3.3,0.2,4.9,0.6c1.6,0.4,3.1,1,4.6,1.8h2.1
		l3.8-2.3h4l0.2,19.2H32c-2-5.5-4.1-9.6-6.5-12.4c-2.4-2.8-4.9-4.2-7.7-4.2c-3.6,0-6.2,2.1-7.7,6.3c-1.5,4.2-2.3,11.6-2.3,22.2
		c0,9.5,0.9,16.2,2.8,20c1.9,3.8,5,5.7,9.4,5.7c4.1,0,7.3-1.3,9.6-3.9c2.3-2.6,3.5-6.3,3.5-11V388.6L33.1,388.6z"/>
	<path fill="#A44685" d="M-48.8,360v37.1c0,2.6,0.5,4.3,1.4,5.3c0.9,1,2.6,1.6,4.9,1.8v2.6h-17.2v-2.6c2.3-0.2,3.9-0.8,4.8-1.8
		c0.9-1,1.3-2.7,1.3-5.3V355c0-1.4-0.4-2.4-1.3-2.9c-0.8-0.5-2.6-0.9-5.2-1.1v-2.7h19.2l22.3,37.1V358c0-2.6-0.4-4.3-1.3-5.2
		c-0.9-0.9-2.5-1.5-4.8-1.8v-2.7h17.2v2.7c-2.4,0.3-4,0.9-4.9,1.8c-0.9,1-1.4,2.7-1.4,5.2v49.8H-20L-48.8,360L-48.8,360z"/>
	<path fill="#A44685" d="M-95,387.3h14.4l-7.1-22.9L-95,387.3L-95,387.3z M-109.6,406.9v-2.6c1.6-0.1,2.9-0.7,4.1-1.9
		c1.2-1.2,2.1-3,3-5.4l15.9-49.1h7.3l15.8,50.2c0.7,2.2,1.6,3.8,2.6,4.7c1,0.9,2.3,1.4,4,1.5v2.6h-24.2v-2.6
		c1.6-0.1,2.8-0.3,3.5-0.7c0.7-0.4,1.1-1.1,1.1-1.9c0-0.4,0-0.9-0.1-1.4c-0.1-0.5-0.2-1-0.4-1.6l-2.6-8h-16.5l-2.2,7.1
		c-0.1,0.4-0.2,0.8-0.2,1.2c-0.1,0.4-0.1,0.8-0.1,1.2c0,1.4,0.5,2.4,1.4,3c0.9,0.6,2.5,1,4.5,1.1v2.6H-109.6L-109.6,406.9z"/>
	<path fill="#A44685" d="M-156,406.5v-3.7c1.9-0.2,3.3-0.7,4.1-1.5c0.8-0.8,1.2-2.1,1.2-4v-61.5c0-1.9-0.4-3.3-1.2-4.2
		c-0.8-0.8-2.1-1.4-4.1-1.6v-3.6h24.8c8.6,0,15.4,1.6,20.2,4.9c4.9,3.3,7.3,7.8,7.3,13.5c0,5.1-1.9,9.4-5.7,12.8
		c-3.8,3.4-9.2,5.8-16.2,7.1c7.9,1.2,14,3.5,18.1,7c4.2,3.5,6.3,8,6.3,13.4c0,7-2.5,12.3-7.4,16c-5,3.7-12.2,5.5-21.6,5.5H-156
		L-156,406.5z M-135.3,366.4v30.5c0,2.2,0.4,3.8,1.1,4.6c0.7,0.9,2,1.3,3.7,1.3c4,0,7-1.3,9-4c2-2.7,2.9-6.8,2.9-12.3
		c0-7.1-1.3-12.3-3.9-15.4C-125.1,368-129.4,366.4-135.3,366.4L-135.3,366.4z M-135.3,362.9h1.5c4.7,0,8.1-1.3,10.2-3.8
		c2.1-2.6,3.1-6.8,3.1-12.7c0-6.4-0.8-10.7-2.4-13c-1.6-2.3-4.4-3.4-8.5-3.4c-1.6,0-2.7,0.3-3.2,0.8c-0.5,0.5-0.8,1.6-0.8,3.3V362.9
		L-135.3,362.9z"/>
</g>
</svg>
