<?xml version="1.0" encoding="utf-8"?>
<!-- Generator: Adobe Illustrator 19.1.0, SVG Export Plug-In . SVG Version: 6.00 Build 0)  -->
<svg version="1.0" id="Layer_1" xmlns="http://www.w3.org/2000/svg" xmlns:xlink="http://www.w3.org/1999/xlink" x="0px" y="0px"
	 viewBox="0 0 645.3 174.5" enable-background="new 0 0 645.3 174.5" xml:space="preserve">
<g>
	<g>
		<path fill="#002F87" d="M283.9,131V71.1h17.4c2.9,0,5.8,0.3,8.3,1c2.5,0.6,4.8,1.7,6.6,3.3c1.2,1,2.2,2.3,3,3.9
			c1,2,1.5,4.5,1.5,7.3c0,3.1-0.7,5.6-1.9,7.6c-1.2,2-2.9,3.4-4.9,4.5c-0.4,0.2-0.8,0.5-1.3,0.6c1,0.3,1.9,0.7,2.9,1.1
			c1.8,0.8,3.5,2,4.7,3.6c0.9,1,1.6,2.2,2.2,3.6c0.7,1.8,1.1,4,1.1,6.5c0,3.3-0.7,6.1-2,8.4c-1.3,2.3-3.1,4.2-5.5,5.5
			c-1.5,0.9-3.2,1.6-5.2,2c-2.5,0.6-5.3,1-8.2,1H283.9 M302.5,125.3c2.4,0,4.6-0.3,6.5-0.9c1.9-0.6,3.5-1.4,4.8-2.6
			c0.8-0.8,1.5-1.7,2-2.7c0.7-1.4,1.1-3.1,1.1-5.2c0-2.4-0.5-4.2-1.3-5.8c-0.8-1.5-2-2.7-3.7-3.6c-1.1-0.6-2.3-1.1-3.7-1.4
			c-1.9-0.5-4.1-0.7-6.6-0.7h-11.2v22.8H302.5z M301,96.8c2.2,0,4.1-0.2,5.8-0.7c1.8-0.5,3.3-1.2,4.4-2.2c0.8-0.7,1.4-1.4,1.9-2.4
			c0.6-1.3,1-2.8,1-4.8c0-2.2-0.5-3.9-1.2-5.3c-0.8-1.3-1.9-2.3-3.3-3c-0.9-0.5-2-0.9-3.2-1.1c-1.6-0.3-3.3-0.5-5.2-0.5h-10.9v20
			H301z"/>
		<path fill="#002F87" d="M363.1,92.6c-0.6-1.3-1.3-2.4-2.3-3.3c-1.4-1.4-3.2-2.3-5.3-2.9c-2-0.6-4.4-0.8-6.9-0.8
			c-8.6,0-13.4,2.5-16.6,4.3c2.3,4.9,4.8,3.7,8,2.3c2.4-1,5.2-1.5,8.2-1.5c1.4,0,2.9,0.3,4.3,0.6c0.9,0.2,1.6,0.5,2.3,0.9
			c1,0.6,1.8,1.4,2.3,2.5c0.5,1,0.8,2.4,0.8,4.2v6.4c-3.2-0.7-6.5-1-10.2-1c-2.6,0-5,0.3-7.2,0.8c-1.6,0.4-3.1,0.9-4.5,1.7
			c-2,1.1-3.7,2.6-4.8,4.5c-1.2,1.9-1.7,4.2-1.7,6.8c0,2.1,0.4,4.1,1.1,5.8c1.1,2.5,3,4.5,5.4,5.8c2.4,1.3,5.2,2,8.4,2c0,0,0,0,0,0
			c3.7,0,6.6-0.7,9.1-1.9c1.7-0.8,3.2-1.8,4.5-3.1c0,0.6,0.1,1.1,0.1,1.5c0.1,0.5,0.2,0.9,0.4,1.3c0.1,0.3,0.3,0.6,0.6,0.8
			c0.4,0.3,0.8,0.5,1.3,0.6c0.5,0.1,1,0.2,1.6,0.2h2.2V98.6C364.2,96.3,363.8,94.3,363.1,92.6 M358,119.8c-1.6,1.8-3.2,3.4-5.2,4.4
			c-2.1,1.1-4.5,1.8-7.9,1.8c-1.3,0-2.6-0.2-3.8-0.5c-0.8-0.2-1.6-0.6-2.2-1c-1-0.6-1.7-1.5-2.3-2.6c-0.6-1.2-0.9-2.6-0.9-4.4
			c0-1.5,0.3-2.7,0.9-3.7c0.5-0.8,1-1.4,1.7-2c1-0.9,2.4-1.5,4.1-1.9c1.6-0.4,3.5-0.6,5.6-0.6c3.7,0,7,0.5,10,1.1V119.8z"/>
		<path fill="#002F87" d="M404.5,131V98.5c0-1.8-0.2-3.2-0.7-4.2c-0.5-1-1.1-1.7-1.8-2.2c-0.5-0.3-1.1-0.6-1.8-0.8
			c-0.9-0.2-2-0.3-3.2-0.3c-3,0-5.9,0.8-8.8,2.1c-2.6,1.2-5.2,2.9-7.5,4.6V131h-6.2V86h3c0.3,0,0.6,0,0.9,0.1c0.3,0,0.6,0.1,0.9,0.3
			c0.2,0.1,0.4,0.3,0.5,0.4c0.2,0.2,0.4,0.5,0.5,0.8c0.1,0.4,0.3,0.9,0.3,1.3c0.1,0.7,0.1,1.4,0.1,2.4v0.5c2.1-1.5,4.4-2.9,7-4
			c3.3-1.4,6.9-2.3,10.9-2.3c1.8,0,3.5,0.2,5.1,0.7c1.6,0.5,3,1.4,4.2,2.7c0.8,0.9,1.4,1.9,1.9,3.1c0.6,1.7,1,3.7,1,6v33H404.5"/>
		<path fill="#002F87" d="M467,127.9c-3.3-2.3-5.9-5.7-7.3-9.9c-1-2.8-1.5-6-1.5-9.5c0-5.2,1.2-9.7,3.3-13.4c2.1-3.7,5.3-6.4,9.1-8
			c2.6-1,5.4-1.5,8.6-1.5c4.7,0,8.8,1.2,12.2,3.6c3.4,2.3,5.9,5.7,7.4,9.9c1,2.8,1.5,6,1.5,9.5c0,5.2-1.1,9.8-3.3,13.4
			c-2.1,3.6-5.3,6.3-9.1,7.9c-2.6,1-5.5,1.6-8.6,1.6C474.5,131.4,470.4,130.1,467,127.9 M470.5,93.4c-2.3,1.7-4,4.2-5,7.5
			c-0.7,2.2-1,4.7-1,7.6c0,4.3,0.8,7.9,2.3,10.6c1.5,2.7,3.6,4.7,6.3,5.8c1.8,0.8,3.9,1.2,6.2,1.2c3.5,0,6.4-0.9,8.7-2.6
			c2.3-1.7,4-4.1,5-7.4c0.7-2.2,1-4.7,1-7.6c0-4.2-0.8-7.8-2.3-10.5c-1.5-2.8-3.6-4.8-6.3-6c-1.8-0.8-3.9-1.2-6.2-1.2
			C475.7,90.8,472.8,91.7,470.5,93.4z"/>
		<path fill="#002F87" d="M562.9,131V98.2c0-1.7-0.2-3-0.6-4c-0.4-1-0.9-1.6-1.6-2.1c-0.5-0.3-1-0.6-1.7-0.7
			c-0.8-0.2-1.9-0.3-3.1-0.3c-2.8,0-5.4,0.8-7.9,2c-2.3,1.2-4.5,2.7-6.5,4.4V131h-6.2V98.2c0-1.7-0.2-3-0.7-4
			c-0.4-0.9-0.9-1.6-1.6-2.1c-0.5-0.3-1-0.6-1.6-0.7c-0.9-0.2-1.8-0.3-2.9-0.3c-3,0-5.6,0.8-8.1,2c-2.3,1.2-4.5,2.7-6.6,4.4V131
			h-6.2V86h2.9c0.3,0,0.6,0,0.9,0.1c0.3,0,0.6,0.1,0.9,0.3c0.2,0.1,0.4,0.3,0.5,0.4c0.2,0.2,0.4,0.5,0.5,0.8
			c0.1,0.4,0.2,0.9,0.3,1.3c0.1,0.7,0.1,1.4,0.1,2.4v0.1c1.7-1.2,3.7-2.5,6-3.6c3-1.4,6.4-2.3,10.2-2.3c1.9,0,3.7,0.3,5.3,0.9
			c1.7,0.7,3.2,1.8,4.3,3.3c0.4,0.6,0.8,1.3,1.1,2.1c2-1.6,4.2-3,6.7-4.1c3-1.3,6.4-2.2,10-2.2c1.8,0,3.4,0.2,5,0.8
			c1.5,0.5,2.9,1.4,4,2.7c0.7,0.8,1.3,1.8,1.8,2.9c0.6,1.5,0.9,3.2,0.9,5.2v34H562.9"/>
		<path fill="#002F87" d="M224.5,109.3l8.2-27.4l8.3,27.4H224.5 M245.7,77.2c-1.7-4.9-2.6-6.1-7.3-6.1h-11.5L208.6,131h9.3l3.9-12.9
			h21.8l4,12.9h16.2L245.7,77.2z"/>
		<path fill="#002F87" d="M135.5,123V78.9h7.7c3.7,0,6.9,3.1,6.9,6.8c0,1.3-0.2,2.5-1.5,4.3l-5,7.5c5.2,1.3,8.7,5.2,8.7,12.7
			c0,9-5.4,12.9-12.6,12.9H135.5 M154.9,94.6l2.9-4.3c6.2-9.2,1.9-19.2-10.3-19.2h-26.1v60h25.2C168.7,131,175.3,105.2,154.9,94.6"
			/>
		<path fill="#002F87" d="M89,123h-4.2V78.9h7.7c3.7,0,6.9,3.1,6.9,6.8c0,1.3-0.2,2.5-1.5,4.3l-5,7.5c5.2,1.3,8.7,5.2,8.7,12.7
			C101.5,119.2,96.1,123,89,123 M104.1,94.6l2.9-4.3c6.2-9.2,2-19.2-10.3-19.2H70.6v60h25.2C118,131,124.7,105.2,104.1,94.6"/>
		<path fill="#002F87" d="M181.2,78.9c-2.1-6.8-3.2-7.8-7.3-7.8h-10.6l19.6,59.9h14.4l18.3-59.9h-9.5l-13.5,45.5L181.2,78.9"/>
		<path fill="#002F87" d="M453.6,90.2c-2.3,4.9-4.5,3.3-7.7,1.9c-1.7-0.7-3.9-1.2-6.8-1.2c-3.4,0-6.3,0.9-8.7,2.6
			c-2.4,1.7-4.2,4.2-5.2,7.4c-0.7,2.2-1.1,4.7-1.1,7.5c0,3.2,0.5,6.1,1.3,8.4c0.9,2.4,2.1,4.3,3.7,5.7c1.1,1,2.3,1.7,3.6,2.3
			c1.9,0.8,3.9,1.2,6.4,1.2c3.2,0,5.6-0.7,7.5-1.6c3.1-1.6,5.2-3.4,7.8,1.3c-1.1,1.1-3,2.5-5,3.5c-0.3,0.1-0.6,0.3-0.9,0.4
			c-2.5,1-5.7,1.8-9.5,1.8h0c-4.9,0-9.1-1.3-12.5-3.6c-3.4-2.4-5.8-5.7-7.2-10c-0.9-2.8-1.4-6-1.4-9.5c0-5.3,1.2-9.8,3.4-13.5
			c2.2-3.6,5.5-6.3,9.4-7.9c2.6-1,5.5-1.5,8.6-1.5C440.9,85.6,447.3,85,453.6,90.2"/>
		<path fill="#002F87" d="M613.6,97.2c-0.7-2-1.5-3.7-2.7-5.3c-1.7-2.2-3.8-3.9-6.3-5c-2.5-1-5.4-1.5-8.4-1.5
			c-2.9,0-5.6,0.5-8.1,1.6c-3.6,1.6-6.7,4.4-8.8,8.1c-2.1,3.7-3.2,8.2-3.2,13.4c0,3.4,0.4,6.5,1.4,9.3c1.4,4.2,3.8,7.6,7.2,9.9
			c3.3,2.3,7.6,3.5,12.6,3.5h0c4,0,7.3-0.7,9.9-1.6c4.3-1.6,6.4-3.6,7.5-4.7c-2.9-4.2-4.5-2.5-7.9-1c-2,1-5.7,1.8-9.1,1.8
			c-2.6,0-4.8-0.4-6.7-1.1c-1.4-0.5-2.6-1.3-3.7-2.2c-1.6-1.4-2.8-3.2-3.6-5.5c-0.7-2.1-1.2-4.5-1.2-7.4h32.4v-1c0,0,0-0.1,0-0.3
			c0-0.4,0-1.1,0-1.8C614.9,103,614.5,99.9,613.6,97.2 M582.6,104.4c0.3-2.1,0.8-3.9,1.4-5.5c1.2-2.8,2.8-4.8,4.9-6.2
			c2.1-1.4,4.5-2.1,7.3-2.1c1.9,0,3.6,0.3,5.1,0.8c1.1,0.4,2.1,1,3,1.7c1.3,1.1,2.4,2.6,3.1,4.6c0.6,1.8,1.1,3.9,1.2,6.6H582.6z"/>
		<path fill="#002F87" d="M641.4,85.7c-3.3,0-6.2,1-8.7,2.6c-1.6,1-3.1,2.2-4.4,3.5c0-1.1,0-1.9-0.1-2.6c0-0.5-0.1-1-0.3-1.4
			c-0.1-0.3-0.2-0.6-0.5-0.9c-0.2-0.2-0.3-0.3-0.5-0.5c-0.3-0.2-0.6-0.3-1-0.3c-0.3,0-0.6,0-0.9-0.1h-3V131h6.2V98.7
			c2.2-2.6,4.2-4.2,5.6-5c0,0,0.1-0.1,0.1-0.1c2.5-1.6,4.5-2,6.1-2.2c2.9-0.3,4.8-0.7,5.1-5.2C644.2,85.9,642.9,85.7,641.4,85.7"/>
	</g>
	<g>
		<rect fill="#002F87" width="29.1" height="29.1"/>
		<rect y="29.1" fill="#1E75BB" width="29.1" height="29.1"/>
		<rect y="58.2" fill="#0C9CD8" width="29.1" height="29.1"/>
		<rect y="87.2" fill="#61B4E4" width="29.1" height="29.1"/>
		<rect y="116.3" fill="#9ACAEB" width="29.1" height="29.1"/>
		<rect y="145.4" fill="#BAD8EB" width="29.1" height="29.1"/>
	</g>
</g>
</svg>
