<?xml version="1.0" encoding="utf-8"?>
<!-- Generator: Adobe Illustrator 19.1.0, SVG Export Plug-In . SVG Version: 6.00 Build 0)  -->
<svg version="1.0" id="Layer_1" xmlns="http://www.w3.org/2000/svg" xmlns:xlink="http://www.w3.org/1999/xlink" x="0px" y="0px"
	 viewBox="0 0 645.3 174.5" enable-background="new 0 0 645.3 174.5" xml:space="preserve">
<g>
	<polygon fill-rule="evenodd" clip-rule="evenodd" fill="#C9002C" points="0,130.1 11.9,130.1 11.9,132.6 3.4,132.6 3.4,135.3 
		11.4,135.3 11.4,137.7 3.4,137.7 3.4,140.7 11.9,140.7 11.9,143.2 0,143.2 0,130.1 	"/>
	<polygon fill-rule="evenodd" clip-rule="evenodd" fill="#C9002C" points="27,130.1 30.4,130.1 30.4,140.6 38.2,140.6 38.2,143.2 
		27,143.2 27,130.1 	"/>
	<path fill-rule="evenodd" clip-rule="evenodd" fill="#C9002C" d="M76.1,137.6h4.7c1.2,0,1.8,0.6,1.8,1.6c0,0.8-0.4,1.5-1.5,1.5
		h-5.1V137.6L76.1,137.6z M72.7,143.2h9c3.8,0,4.6-2.2,4.6-4c0-1.4-0.8-2.9-2.3-3.2v0c1.2-0.4,1.7-1.6,1.7-2.6
		c0-2.4-1.7-3.3-3.6-3.3h-9.5V143.2L72.7,143.2z M76.1,132.5h4.3c1.4,0,1.8,0.6,1.8,1.4c0,1-0.5,1.4-1.3,1.4h-4.8V132.5L76.1,132.5z
		"/>
	<path fill-rule="evenodd" clip-rule="evenodd" fill="#C9002C" d="M109.8,138.1h-4l2-5.2L109.8,138.1L109.8,138.1z M111.8,143.2h3.7
		l-5.6-13.1h-4.2l-5.6,13.1h3.7l1-2.7h5.8L111.8,143.2L111.8,143.2z"/>
	<polygon fill-rule="evenodd" clip-rule="evenodd" fill="#C9002C" points="140.3,130.1 143.6,130.1 143.6,143.2 139.9,143.2 
		133,134.1 132.9,134.1 132.9,143.2 129.6,143.2 129.6,130.1 133.6,130.1 140.3,139.2 140.3,139.2 140.3,130.1 	"/>
	<path fill-rule="evenodd" clip-rule="evenodd" fill="#C9002C" d="M169.9,135.1c-0.3-1.9-1.8-2.8-3.6-2.8c-3.3,0-4,2.6-4,4.4
		c0,1.8,0.7,4.4,4,4.4c1.7,0,3.3-0.8,3.6-2.9h3.8c-0.4,3.8-3.5,5.4-7.5,5.4c-4.6,0-7.5-2.1-7.5-6.9c0-4.9,2.9-6.9,7.5-6.9
		c3.1,0,6.9,0.8,7.5,5.3H169.9L169.9,135.1z"/>
	<path fill-rule="evenodd" clip-rule="evenodd" fill="#C9002C" d="M191.4,136.7c0-2,1.1-4.4,4.2-4.4c3.1,0,4.2,2.4,4.2,4.4
		c0,2-1.1,4.4-4.2,4.4C192.5,141.1,191.4,138.7,191.4,136.7L191.4,136.7z M187.8,136.7c0,2.7,1.1,6.9,7.9,6.9c6.8,0,7.9-4.2,7.9-6.9
		c0-2.7-1.1-6.9-7.9-6.9C188.8,129.7,187.8,133.9,187.8,136.7L187.8,136.7z"/>
	<polygon fill-rule="evenodd" clip-rule="evenodd" fill="#C9002C" points="238.1,130.1 249.5,130.1 249.5,132.6 241.6,132.6 
		241.6,135.5 249,135.5 249,138 241.6,138 241.6,143.2 238.1,143.2 238.1,130.1 	"/>
	<path fill-rule="evenodd" clip-rule="evenodd" fill="#C9002C" d="M264,130.1h3.5v7.5c0,1.3,0.1,3.4,3.2,3.4c3.2,0,3.2-2.2,3.2-3.4
		v-7.5h3.5v8.4c0,1.5-0.2,5.1-6.7,5.1c-6.5,0-6.7-3.6-6.7-5.1V130.1L264,130.1z"/>
	<polygon fill-rule="evenodd" clip-rule="evenodd" fill="#C9002C" points="292.7,130.1 304.6,130.1 304.6,132.6 296.1,132.6 
		296.1,135.3 304.1,135.3 304.1,137.7 296.1,137.7 296.1,140.7 304.6,140.7 304.6,143.2 292.7,143.2 292.7,130.1 	"/>
	<path fill-rule="evenodd" clip-rule="evenodd" fill="#C9002C" d="M323.1,132.6h4.4c0.8,0,1.8,0.3,1.8,1.6c0,1.2-0.9,1.7-1.6,1.7
		h-4.6V132.6L323.1,132.6z M319.7,143.2h3.4v-4.8h4.3c1.1,0,1.8,0.5,1.8,2.3c0,1.4,0,1.9,0.3,2.5h3.8c-0.6-0.7-0.7-2.2-0.7-2.8
		c0-1.3-0.2-3.3-1.7-3.5v0c1.4-0.5,2.1-1.6,2.1-3.2c0-1.3-0.6-3.6-4.1-3.6h-9.2V143.2L319.7,143.2z"/>
	<polygon fill-rule="evenodd" clip-rule="evenodd" fill="#C9002C" points="351.5,132.6 346.7,132.6 346.7,130.1 359.6,130.1 
		359.6,132.6 354.9,132.6 354.9,143.2 351.5,143.2 351.5,132.6 	"/>
	<polygon fill-rule="evenodd" clip-rule="evenodd" fill="#C9002C" points="373.9,130.1 385.8,130.1 385.8,132.6 377.4,132.6 
		377.4,135.3 385.4,135.3 385.4,137.7 377.4,137.7 377.4,140.7 385.9,140.7 385.9,143.2 373.9,143.2 373.9,130.1 	"/>
	<path fill-rule="evenodd" clip-rule="evenodd" fill="#C9002C" d="M424.1,132.6h3.5c2.6,0,3.6,1.5,3.6,3.9c0,2.8-1,4.2-3.3,4.2h-3.8
		V132.6L424.1,132.6z M420.6,143.2h8.2c4,0,5.9-2.6,5.9-6.5c0-3.9-1.9-6.5-6.2-6.5h-7.9V143.2L420.6,143.2z"/>
	<polygon fill-rule="evenodd" clip-rule="evenodd" fill="#C9002C" points="449.9,130.1 461.8,130.1 461.8,132.6 453.4,132.6 
		453.4,135.3 461.3,135.3 461.3,137.7 453.4,137.7 453.4,140.7 461.8,140.7 461.8,143.2 449.9,143.2 449.9,130.1 	"/>
	<polygon fill-rule="evenodd" clip-rule="evenodd" fill="#C9002C" points="509.2,130.1 514.3,130.1 514.3,143.2 510.9,143.2 
		510.9,132.7 510.9,132.7 506.9,143.2 504,143.2 500,132.7 500,132.7 500,143.2 496.6,143.2 496.6,130.1 501.7,130.1 505.4,139.5 
		509.2,130.1 	"/>
	<polygon fill-rule="evenodd" clip-rule="evenodd" fill="#C9002C" points="529.8,130.1 541.7,130.1 541.7,132.6 533.3,132.6 
		533.3,135.3 541.3,135.3 541.3,137.7 533.3,137.7 533.3,140.7 541.8,140.7 541.8,143.2 529.8,143.2 529.8,130.1 	"/>
	<polygon fill-rule="evenodd" clip-rule="evenodd" fill="#C9002C" points="560.7,136.5 555.8,130.1 559.9,130.1 562.7,134.2 
		565.5,130.1 569.6,130.1 564.7,136.5 570.1,143.2 565.8,143.2 562.7,138.8 559.6,143.2 555.3,143.2 560.7,136.5 	"/>
	<polygon fill-rule="evenodd" clip-rule="evenodd" fill="#C9002C" points="584.1,130.1 587.6,130.1 587.6,143.2 584.1,143.2 
		584.1,130.1 	"/>
	<path fill-rule="evenodd" clip-rule="evenodd" fill="#C9002C" d="M613.8,135.1c-0.3-1.9-1.8-2.8-3.6-2.8c-3.3,0-4,2.6-4,4.4
		c0,1.8,0.7,4.4,4,4.4c1.7,0,3.3-0.8,3.6-2.9h3.8c-0.4,3.8-3.5,5.4-7.5,5.4c-4.6,0-7.5-2.1-7.5-6.9c0-4.9,2.9-6.9,7.5-6.9
		c3.1,0,6.9,0.8,7.5,5.3H613.8L613.8,135.1z"/>
	<path fill-rule="evenodd" clip-rule="evenodd" fill="#C9002C" d="M577.5,54v12.2h-22.8v47.1c-0.1,0-13.8,0-13.9,0V66.5H518V54
		H577.5L577.5,54z"/>
	<polygon fill-rule="evenodd" clip-rule="evenodd" fill="#C9002C" points="645.3,53.9 645.3,65.9 597.8,65.9 597.8,78.4 635.4,78.4 
		635.4,88.7 597.8,88.7 597.8,100.6 645.3,100.6 645.3,113.3 584.9,113.3 584.9,53.9 645.3,53.9 	"/>
	<path fill-rule="evenodd" clip-rule="evenodd" fill="#C9002C" d="M308.6,76.2v37.1h-12.6V54h12l44.4,38.5V54h11.4l0,59.3h-11.4
		C352.2,113,308.6,76.2,308.6,76.2L308.6,76.2z"/>
	<path fill-rule="evenodd" clip-rule="evenodd" fill="#C9002C" d="M215.7,96.4v-1.8c0-4.8-3.6-10.4-3.6-10.5c0-0.7,3.7-3.7,3.7-9.7
		v-1.7v-1.7c0-11.6-11.3-17-15-17h-52.5l0,59.5h54.5c1.9-0.1,2.4-0.7,5.2-2.2c2.2-1.2,7.6-6.5,7.6-12.3v-2.5V96.4L215.7,96.4z
		 M202.2,97.3c-0.1,2-0.9,4.3-3,4.4c-2.6,0.1-37.8,0-38.9,0v-12c0,0,37.4-0.1,39.3,0c1.6,0.1,2.5,1.8,2.6,4.2l0,2.5L202.2,97.3
		L202.2,97.3z M202.3,72.6l-0.1,1.8c0,2.1-0.9,4.3-3,4.4c-2.6,0.1-37.8,0-38.9,0v-12c0,0,37.4-0.1,39.3,0c1.6,0.1,2.6,1.8,2.6,4.2
		L202.3,72.6L202.3,72.6L202.3,72.6z"/>
	<path fill-rule="evenodd" clip-rule="evenodd" fill="#C9002C" d="M263.9,87.6h-19.4l9.8-17.9L263.9,87.6L263.9,87.6z M258.6,54
		h-9.5l-32.4,59.3h12.8l8.2-13.9h31.7l8.1,13.9h12.7L258.6,54L258.6,54z"/>
	<path fill-rule="evenodd" clip-rule="evenodd" fill="#C9002C" d="M431.2,83.1c0,10.8-10.3,16.3-14.2,16.3h-21.6
		c-3.1,0-14.5-2.9-14.5-16.9c0-10.8,11.5-16.3,14.8-16.3h20.9C421.7,66.2,431.2,72.8,431.2,83.1L431.2,83.1L431.2,83.1z M444.4,82.9
		l0-1.4c-0.3-14-13.9-27.6-24-27.6H393c-15.9,0-25.9,17.6-25.9,26.4v8.4c0.8,17.2,16.5,24.1,21.9,24.7c3.8,0.4,32.3,0,32.3,0
		c2.6-0.1,20.4-4,23.1-25.6L444.4,82.9L444.4,82.9z"/>
	<path fill-rule="evenodd" clip-rule="evenodd" fill="#C9002C" d="M502.3,72.1c0,3-1.2,5.6-3.7,6.1c-1.3,0-38.1,0-38.4,0l0-11.7
		h37.3C500.6,66.4,502.3,69.2,502.3,72.1L502.3,72.1z M513.4,69.7C513,60.1,503.8,54,494,54h-46.2v59.3h12.6V88.7h19.1
		c1,0,18.7,24.6,18.7,24.6h15.2l-18.2-23.9c1,0.1,4.7-0.2,4.7-0.2c7.2-0.2,13.5-3.3,13.5-13.9C513.4,74.7,513.5,70.4,513.4,69.7
		L513.4,69.7z"/>
	<path fill-rule="evenodd" clip-rule="evenodd" fill="#C9002C" d="M60.3,70.2C36.5,67.7,19.1,60,19.1,51c0-11.1,26-20.1,58-20.1
		c32.1,0,58,9,58,20.1c0,11.1-26,20.1-58,20.1c-1.7,0-3.5,0-5.2-0.1V37.6L60.3,70.2L60.3,70.2z"/>
	<path fill-rule="evenodd" clip-rule="evenodd" fill="#C9002C" d="M58.8,75.1l-13.6,39.2c-23.5-2.6-41.2-10.2-41.2-19.1
		C3.9,84.4,28,75.6,58.8,75.1L58.8,75.1z"/>
	<path fill-rule="evenodd" clip-rule="evenodd" fill="#C9002C" d="M72,75.4c27.3,1.6,48,9.9,48,19.8c0,9.9-20.7,18.1-48,19.7V75.4
		L72,75.4z"/>
</g>
</svg>
