<?xml version="1.0" encoding="utf-8"?>
<!-- Generator: Adobe Illustrator 19.1.0, SVG Export Plug-In . SVG Version: 6.00 Build 0)  -->
<svg version="1.0" id="Layer_1" xmlns="http://www.w3.org/2000/svg" xmlns:xlink="http://www.w3.org/1999/xlink" x="0px" y="0px"
	 viewBox="0 0 645.3 261.2" enable-background="new 0 0 645.3 261.2" xml:space="preserve">
<g>
	<g>
		<path fill="#231F20" d="M80.9,126.5V89.9c0-4.8-2.5-10-14.5-10v-3.1h45.6v3.1c-12,0-14.4,5.3-14.4,10v82.4c0,4.8,2.5,10,14.4,10
			v3.1H66.5v-3.1c12,0,14.5-5.3,14.5-10v-39.1H31.2v39.1c0,4.8,2.5,10,14.4,10v3.1H0v-3.1c12,0,14.4-5.3,14.4-10V89.9
			c0-4.8-2.5-10-14.4-10v-3.1h45.6v3.1c-12,0-14.4,5.3-14.4,10v36.6H80.9"/>
		<path fill="#231F20" d="M116,152.5h3.8c5.1,15.3,16.6,29.1,34,29.1c13.3,0,22.3-11.5,18.6-24.3c-6.7-23-51.5-24-51.5-55.3
			c0-16.3,13-27.4,29.1-27.4c17.4,0,25.3,12.1,29.2,0h3.4l3.6,35H182c-3.8-15.3-14.6-28.2-29.9-28.2c-9.9,0-17.2,5.4-17.2,15.8
			c0,9.5,10.3,16.2,17.4,20.5c22.3,13.5,37.4,20.5,37.4,40.2c0,14.8-12.3,30-34.6,30c-17.1,0-28.9-12-30.5,0h-3.6L116,152.5"/>
		<path fill="#231F20" d="M243.9,125.4c16.6,0,26.3-7.1,26.3-20.4c0-12.5-7.9-19.2-19.4-21.3c-15.1-1-20.4-1.3-20.4,4.4v37.3H243.9
			 M230.5,170.7c0,5.8,1.5,8.7,13.5,8.7c17.1,0,29.7-5.1,29.7-24.3c0-19.5-19.5-23.2-35-23.2h-8.2V170.7z M213.7,89.9
			c0-4.8-2.5-10-15.8-10v-3.1h44c25.3,0,45,6.7,45,27.8c0,13.8-9.2,20.8-21.8,23.6v0.3c14.1,2.6,27.4,11.3,27.4,27.1
			c0,19.7-17.1,29.9-42.8,29.9H198v-3.1c13.3,0,15.8-5.3,15.8-10V89.9z"/>
		<path fill="#231F20" d="M391,110.6h-3.9c-4.8-18.1-16.7-30.4-35.5-30.4c-27.1,0-38.7,21.8-38.7,51.4c0,23,12,47.8,38.9,47.8
			c16.1,0,27.1-5.3,38.4-16.4l2.8,3.3c-10,12.3-26.9,20.5-42.7,20.5c-32,0-56.5-20.5-56.5-56.5c0-32.7,23.1-56.8,56.1-56.8
			c22.5,0,30.7,13.5,36.1,0.2h3.4L391,110.6"/>
		<rect x="479.7" y="73.8" fill="#FFFFFF" width="110.4" height="110.4"/>
		<polyline fill="#EE3524" points="479.7,73.7 590.1,73.7 534.9,128.9 479.7,73.7 		"/>
		<polyline fill="#EE3524" points="479.7,184.2 590.1,184.2 534.9,128.9 479.7,184.2 		"/>
		<polyline fill="#EE3524" points="479.7,73.7 479.7,184.2 424.5,128.9 479.7,73.7 		"/>
		<polyline fill="#EE3524" points="590.1,73.7 590.1,184.2 645.3,128.9 590.1,73.7 		"/>
	</g>
</g>
</svg>
