<?xml version="1.0" encoding="utf-8"?>
<!-- Generator: Adobe Illustrator 19.1.0, SVG Export Plug-In . SVG Version: 6.00 Build 0)  -->
<svg version="1.0" id="Layer_1" xmlns="http://www.w3.org/2000/svg" xmlns:xlink="http://www.w3.org/1999/xlink" x="0px" y="0px"
	 viewBox="-156 150.8 645.3 261.2" enable-background="new -156 150.8 645.3 261.2" xml:space="preserve">
<g>
	<path fill-rule="evenodd" clip-rule="evenodd" fill="#11284A" d="M-71.5,245c-10,0-18.7,3.5-25.8,10.6
		c-7.1,7.1-10.6,15.8-10.6,25.8c0,10.3,3.6,18.7,10.6,25.8c7.1,7.4,15.8,11,25.8,11c10,0,18.7-3.5,25.8-11
		c7.1-7.1,10.6-15.5,10.6-25.8c0-10-3.5-18.7-10.6-25.8C-52.8,248.5-61.5,245-71.5,245L-71.5,245z"/>
	<path fill-rule="evenodd" clip-rule="evenodd" fill="#11284A" d="M-71.5,238.5v-41.6c-14.8,0-28.7,3.9-41.6,11v63.2
		c2.3-9.4,7.4-17.1,14.8-22.9C-90.2,241.7-81.5,238.5-71.5,238.5L-71.5,238.5z"/>
	<path fill-rule="evenodd" clip-rule="evenodd" fill="#11284A" d="M-80.6,324c-9.7-2.3-17.4-7.4-23.2-15.2
		c-6.4-7.7-9.4-16.4-9.4-26.4H-156c0,14.8,3.9,28.7,11.3,41.6H-80.6L-80.6,324z"/>
	<path fill-rule="evenodd" clip-rule="evenodd" fill="#11284A" d="M-29.6,292.4c-2.3,9.4-7.1,17.1-14.8,23.2
		c-7.7,6.1-16.8,9.4-26.8,9.4v40.9c14.8,0,28.7-3.6,41.6-11V292.4L-29.6,292.4z"/>
	<path fill-rule="evenodd" clip-rule="evenodd" fill="#11284A" d="M12.9,281.1c0-14.8-3.9-28.7-11.3-41.6h-62.6
		c9.7,2.3,17.4,7.4,23.2,14.8c6.4,8.1,9.4,16.8,9.4,26.8H12.9L12.9,281.1z"/>
	<polygon fill-rule="evenodd" clip-rule="evenodd" fill="#11284A" points="32.3,241.7 32.3,290.7 47.1,290.7 47.1,241.7 32.3,241.7 
			"/>
	<polygon fill-rule="evenodd" clip-rule="evenodd" fill="#11284A" points="124.8,241.7 109.7,241.7 109.7,277.2 109.7,277.2 
		81,241.7 57.8,241.7 57.8,290.7 72.9,290.7 72.9,255 72.9,255 101.3,290.7 124.8,290.7 124.8,241.7 	"/>
	<path fill-rule="evenodd" clip-rule="evenodd" fill="#11284A" d="M149.7,261.1v-7.7h26.8c2.9,0,4.5,1.3,4.5,3.9
		c0,2.6-1.6,3.9-4.5,3.9H149.7L149.7,261.1z M149.7,271.1h27.1c3.5,0,5.5,1.6,5.5,4.2c0,2.6-1.9,3.6-5.5,3.6h-27.1V271.1
		L149.7,271.1z M188.7,265.9v-0.3c2.6-0.6,4.2-1.6,5.2-2.9c1.6-1.6,2.3-4.5,2.3-8.4c0-4.5-1.6-7.7-4.5-10c-2.9-1.9-7.4-2.6-13.5-2.6
		h-43.5v49h48.4c4.8,0,8.4-0.6,10.6-2.3c2.6-2.3,4.2-5.8,4.2-10.6c0-3.9-0.6-6.8-1.9-8.4C194.2,267.5,191.9,266.2,188.7,265.9
		L188.7,265.9z"/>
	<path fill-rule="evenodd" clip-rule="evenodd" fill="#11284A" d="M268.3,241.7h-14.8v28.4c0,2.9-1,5.2-1.9,6.5
		c-1.3,1.6-3.9,2.3-6.8,2.3h-14.8c-3.2,0-5.2-0.6-6.8-2.3c-1.3-1.3-1.6-3.5-1.6-6.5v-28.4h-15.2v31.6c0,6.1,1.6,10.6,4.8,13.5
		c3.2,3.2,8.4,4.5,15.2,4.5h21.9c6.8,0,11.9-1.3,15.2-4.5c3.2-2.9,4.8-7.4,4.8-13.5V241.7L268.3,241.7z"/>
	<path fill-rule="evenodd" clip-rule="evenodd" fill="#11284A" d="M293.1,265.6v-11.9c8,0,15.9,0,23.9,0c4,0,6.8,0.7,6.8,5.2
		c0,0.5,0,1.1,0,1.6c0,3.5-1.9,5.2-5.5,5.2H293.1L293.1,265.6z M293.1,278.2H317c2.3,0,3.9,0.3,4.8,1.3c1,1,1.3,2.9,1.3,5.5v5.8
		h15.2v-8.4c0-3.5-0.6-6.4-2.3-8.1c-1.3-1.3-3.2-2.3-5.8-2.9c3.2-0.6,5.5-2.3,6.8-4.2c1-1.9,1.6-4.5,1.6-8.1v-2.9
		c0-4.8-1-8.4-2.9-10.6c-2.6-2.9-6.4-3.9-11.9-3.9H278v49h15.2V278.2L293.1,278.2z"/>
	<path fill-rule="evenodd" clip-rule="evenodd" fill="#11284A" d="M380.5,260.1l-15.2-0.6c-1,0-1.9-0.6-2.3-1.3
		c-0.3-0.3-0.6-1.3-0.6-2.3c0-2.6,1.9-3.9,5.8-3.9H385c3.2,0,5.5,0.3,6.4,1c0.6,0.6,1,1.9,1,4.2h15.1v-1.6c0-5.2-1-8.7-3.2-10.6
		c-2.6-2.9-8.1-4.2-15.8-4.2h-21.3c-8.7,0-14.5,1.6-17.1,4.5c-1.9,2.3-2.9,6.1-2.9,11.3c0,3.5,0.3,5.8,1,7.7
		c0.3,1.9,1.6,3.2,3.2,4.5c3.2,1.9,10,2.9,21.3,2.9l18.1,0.6c1.3,0,2.3,0.6,2.6,1.3l0.6,2.6c0,1.6-0.6,2.9-1.9,3.5l-4.5,0.6h-18.7
		l-4.8-1c-1-0.6-1.6-2.3-1.6-4.8h-15.2v3.5c0,5.2,1.6,8.7,4.5,10.6c2.6,1.6,7.7,2.6,14.8,2.6H385c10,0,16.8-1,19.7-2.9
		c1.9-1,3.2-2.6,3.9-4.5c0.6-1.9,1-4.8,1-8.1c0-3.9-0.3-6.4-1.3-8.4c-0.6-2.3-2.3-3.9-4.2-4.8C400.5,260.8,392.8,260.1,380.5,260.1
		L380.5,260.1z"/>
	<polygon fill-rule="evenodd" clip-rule="evenodd" fill="#11284A" points="459.8,241.7 440.2,241.7 413.4,290.7 430.5,290.7 
		434.7,282 440.5,271.4 450.2,253 459.8,271.4 440.5,271.4 434.7,282 465.6,282 470.2,290.7 486.9,290.7 459.8,241.7 	"/>
	<path fill-rule="evenodd" clip-rule="evenodd" fill="#11284A" d="M155.9,329.4v-3.8l13.9,0v12.2c-2.1,1.7-4.3,3-6.6,3.8
		c-2.3,0.9-4.6,1.3-7,1.3c-3.2,0-6.2-0.7-8.8-2.1c-2.6-1.4-4.6-3.4-6-6c-1.3-2.6-2-5.5-2-8.7c0-3.2,0.7-6.2,2-8.9
		c1.3-2.8,3.3-4.8,5.8-6.2c2.5-1.3,5.4-2,8.7-2c2.4,0,4.5,0.4,6.4,1.2c1.9,0.8,3.4,1.8,4.5,3.2c1.1,1.4,1.9,3.2,2.5,5.4l-3.9,1.1
		c-0.5-1.7-1.1-3-1.8-3.9c-0.7-1-1.8-1.7-3.1-2.3c-1.4-0.6-2.9-0.9-4.5-0.9c-2,0-3.7,0.3-5.1,0.9c-1.5,0.6-2.6,1.4-3.5,2.4
		c-0.9,1-1.6,2.1-2.1,3.2c-0.8,2-1.3,4.2-1.3,6.6c0,2.9,0.5,5.4,1.5,7.3c1,2,2.5,3.4,4.4,4.4c1.9,1,4,1.4,6.1,1.4
		c1.9,0,3.7-0.4,5.5-1.1c1.8-0.7,3.1-1.5,4.1-2.3v-6.1H155.9L155.9,329.4z"/>
	<path fill-rule="evenodd" clip-rule="evenodd" fill="#11284A" d="M175.7,342.3v-23.8h3.6v3.6c0.9-1.7,1.8-2.8,2.6-3.3
		c0.8-0.5,1.6-0.8,2.6-0.8c1.4,0,2.7,0.4,4.1,1.3l-1.4,3.7c-1-0.6-2-0.9-2.9-0.9c-0.9,0-1.7,0.3-2.4,0.8c-0.7,0.5-1.2,1.3-1.5,2.2
		c-0.5,1.4-0.7,3-0.7,4.7v12.4H175.7L175.7,342.3z"/>
	<path fill-rule="evenodd" clip-rule="evenodd" fill="#11284A" d="M206.5,342.3v-3.5c-1.9,2.7-4.4,4-7.5,4c-1.4,0-2.7-0.3-3.9-0.8
		c-1.2-0.5-2.1-1.2-2.7-2c-0.6-0.8-1-1.8-1.2-3c-0.2-0.8-0.2-2-0.2-3.8v-14.7h4v13.2c0,2.1,0.1,3.5,0.2,4.3c0.3,1.1,0.8,1.9,1.6,2.5
		c0.8,0.6,1.8,0.9,3,0.9c1.2,0,2.3-0.3,3.4-0.9c1.1-0.6,1.8-1.5,2.2-2.5c0.4-1.1,0.7-2.6,0.7-4.6v-12.7h4v23.8H206.5L206.5,342.3z"
		/>
	<path fill-rule="evenodd" clip-rule="evenodd" fill="#11284A" d="M216.4,351.4v-32.9h3.7v3.1c0.9-1.2,1.8-2.1,2.9-2.7
		c1.1-0.6,2.4-0.9,4-0.9c2,0,3.8,0.5,5.4,1.6c1.6,1,2.7,2.5,3.5,4.4c0.8,1.9,1.2,4,1.2,6.3c0,2.4-0.4,4.6-1.3,6.6
		c-0.9,1.9-2.1,3.4-3.8,4.5c-1.7,1-3.4,1.5-5.2,1.5c-1.3,0-2.5-0.3-3.6-0.8c-1.1-0.6-1.9-1.3-2.6-2.1v11.6H216.4L216.4,351.4z
		 M220.1,330.5c0,3.1,0.6,5.3,1.9,6.8c1.2,1.5,2.7,2.2,4.5,2.2c1.8,0,3.3-0.8,4.6-2.3c1.3-1.5,1.9-3.9,1.9-7c0-3-0.6-5.3-1.9-6.8
		c-1.2-1.5-2.7-2.3-4.5-2.3c-1.7,0-3.2,0.8-4.6,2.4C220.7,325.1,220.1,327.5,220.1,330.5L220.1,330.5z"/>
	<path fill-rule="evenodd" clip-rule="evenodd" fill="#11284A" d="M240.4,330.4c0-4.4,1.2-7.7,3.7-9.8c2-1.8,4.5-2.6,7.5-2.6
		c3.3,0,5.9,1.1,8,3.2c2.1,2.1,3.1,5.1,3.1,8.9c0,3.1-0.5,5.5-1.4,7.2c-0.9,1.8-2.3,3.1-4,4.1c-1.8,1-3.7,1.4-5.7,1.4
		c-3.3,0-6-1.1-8.1-3.2C241.4,337.5,240.4,334.4,240.4,330.4L240.4,330.4z M244.6,330.4c0,3.1,0.7,5.3,2,6.8c1.3,1.5,3,2.3,5,2.3
		c2,0,3.7-0.8,5-2.3c1.3-1.5,2-3.8,2-7c0-2.9-0.7-5.2-2-6.7c-1.3-1.5-3-2.3-5-2.3c-2,0-3.7,0.8-5,2.3
		C245.2,325.1,244.6,327.4,244.6,330.4L244.6,330.4z"/>
	<polygon fill-rule="evenodd" clip-rule="evenodd" fill="#11284A" points="280.9,342.3 280.9,309.5 303,309.5 303,313.4 
		285.2,313.4 285.2,323.5 300.6,323.5 300.6,327.4 285.2,327.4 285.2,342.3 280.9,342.3 	"/>
	<path fill-rule="evenodd" clip-rule="evenodd" fill="#11284A" d="M308.1,314.1v-4.6h4v4.6H308.1L308.1,314.1z M308.1,342.3v-23.8h4
		v23.8H308.1L308.1,342.3z"/>
	<path fill-rule="evenodd" clip-rule="evenodd" fill="#11284A" d="M318.3,342.3v-23.8h3.6v3.4c1.7-2.6,4.3-3.9,7.6-3.9
		c1.4,0,2.7,0.3,3.9,0.8c1.2,0.5,2.1,1.2,2.7,2c0.6,0.8,1,1.8,1.3,3c0.1,0.7,0.2,2.1,0.2,3.9v14.6h-4v-14.5c0-1.6-0.2-2.9-0.5-3.7
		c-0.3-0.8-0.9-1.5-1.7-1.9c-0.8-0.5-1.7-0.7-2.8-0.7c-1.7,0-3.2,0.6-4.4,1.6c-1.2,1.1-1.9,3.1-1.9,6.2v13H318.3L318.3,342.3z"/>
	<path fill-rule="evenodd" clip-rule="evenodd" fill="#11284A" d="M359.3,339.3c-1.5,1.3-2.9,2.2-4.3,2.7c-1.4,0.5-2.9,0.8-4.4,0.8
		c-2.6,0-4.6-0.6-6-1.9c-1.4-1.3-2.1-2.9-2.1-4.9c0-1.2,0.3-2.2,0.8-3.2c0.5-1,1.2-1.7,2.1-2.3c0.9-0.6,1.8-1,2.9-1.3
		c0.8-0.2,2-0.4,3.6-0.6c3.3-0.4,5.7-0.8,7.2-1.4c0-0.5,0-0.9,0-1c0-1.6-0.4-2.8-1.1-3.5c-1-0.9-2.6-1.4-4.6-1.4
		c-1.9,0-3.3,0.3-4.2,1c-0.9,0.7-1.6,1.8-2,3.5l-3.9-0.5c0.4-1.7,0.9-3,1.8-4.1c0.8-1,2-1.8,3.6-2.4c1.5-0.6,3.3-0.8,5.4-0.8
		c2,0,3.7,0.2,4.9,0.7c1.3,0.5,2.2,1.1,2.8,1.8c0.6,0.7,1,1.6,1.3,2.7c0.1,0.7,0.2,1.9,0.2,3.7v5.4c0,3.8,0.1,6.1,0.3,7.1
		c0.2,1,0.5,2,1,2.9h-4.2C359.7,341.4,359.4,340.5,359.3,339.3L359.3,339.3z M358.9,330.3c-1.5,0.6-3.7,1.1-6.6,1.5
		c-1.7,0.2-2.8,0.5-3.5,0.8c-0.7,0.3-1.2,0.7-1.6,1.3c-0.4,0.6-0.6,1.2-0.6,1.9c0,1.1,0.4,2,1.2,2.7c0.8,0.7,2,1.1,3.6,1.1
		c1.5,0,2.9-0.3,4.1-1c1.2-0.7,2.1-1.6,2.7-2.8c0.4-0.9,0.7-2.2,0.7-4V330.3L358.9,330.3z"/>
	<path fill-rule="evenodd" clip-rule="evenodd" fill="#11284A" d="M369.3,342.3v-23.8h3.6v3.4c1.7-2.6,4.3-3.9,7.6-3.9
		c1.4,0,2.8,0.3,3.9,0.8c1.2,0.5,2.1,1.2,2.7,2c0.6,0.8,1,1.8,1.3,3c0.1,0.7,0.2,2.1,0.2,3.9v14.6h-4v-14.5c0-1.6-0.2-2.9-0.5-3.7
		c-0.3-0.8-0.9-1.5-1.7-1.9c-0.8-0.5-1.7-0.7-2.8-0.7c-1.7,0-3.2,0.6-4.4,1.6c-1.2,1.1-1.9,3.1-1.9,6.2v13H369.3L369.3,342.3z"/>
	<path fill-rule="evenodd" clip-rule="evenodd" fill="#11284A" d="M410.2,333.6l4,0.5c-0.4,2.7-1.5,4.9-3.3,6.4
		c-1.8,1.5-4,2.3-6.6,2.3c-3.2,0-5.9-1.1-7.8-3.2c-2-2.1-3-5.2-3-9.1c0-2.6,0.4-4.8,1.3-6.7c0.9-1.9,2.1-3.4,3.9-4.3
		c1.7-1,3.6-1.4,5.7-1.4c2.6,0,4.7,0.7,6.3,2c1.6,1.3,2.7,3.2,3.2,5.6l-3.9,0.6c-0.4-1.6-1-2.8-2-3.6c-0.9-0.8-2.1-1.2-3.4-1.2
		c-2,0-3.7,0.7-4.9,2.2c-1.3,1.5-1.9,3.8-1.9,6.9c0,3.2,0.6,5.5,1.8,7c1.2,1.4,2.8,2.2,4.8,2.2c1.6,0,2.9-0.5,4-1.5
		C409.3,337.1,410,335.6,410.2,333.6L410.2,333.6z"/>
	<path fill-rule="evenodd" clip-rule="evenodd" fill="#11284A" d="M417.7,314.1v-4.6h4v4.6H417.7L417.7,314.1z M417.7,342.3v-23.8h4
		v23.8H417.7L417.7,342.3z"/>
	<path fill-rule="evenodd" clip-rule="evenodd" fill="#11284A" d="M444.1,334.6l4.2,0.5c-0.7,2.4-1.9,4.3-3.6,5.7
		c-1.8,1.3-4,2-6.8,2c-3.5,0-6.2-1.1-8.3-3.2c-2-2.1-3.1-5.1-3.1-9c0-4,1-7.1,3.1-9.3c2.1-2.2,4.7-3.3,8-3.3c3.2,0,5.8,1.1,7.8,3.2
		c2,2.2,3,5.2,3,9.1c0,0.2,0,0.6,0,1.1h-17.7c0.1,2.6,0.9,4.6,2.2,6c1.3,1.4,3,2.1,5,2.1c1.5,0,2.7-0.4,3.8-1.2
		C442.6,337.6,443.5,336.3,444.1,334.6L444.1,334.6z M430.9,328.1h13.3c-0.2-2-0.7-3.5-1.5-4.5c-1.3-1.5-3-2.3-5-2.3
		c-1.8,0-3.4,0.6-4.7,1.9C431.7,324.4,431,326,430.9,328.1L430.9,328.1z"/>
	<path fill-rule="evenodd" clip-rule="evenodd" fill="#11284A" d="M453.3,342.3v-23.8h3.6v3.6c0.9-1.7,1.8-2.8,2.6-3.3
		c0.8-0.5,1.6-0.8,2.6-0.8c1.4,0,2.7,0.4,4.1,1.3l-1.4,3.7c-1-0.6-2-0.9-2.9-0.9c-0.9,0-1.7,0.3-2.4,0.8c-0.7,0.5-1.2,1.3-1.5,2.2
		c-0.4,1.4-0.7,3-0.7,4.7v12.4H453.3L453.3,342.3z"/>
	<path fill-rule="evenodd" clip-rule="evenodd" fill="#11284A" d="M467.1,330.4c0-4.4,1.2-7.7,3.7-9.8c2-1.8,4.5-2.6,7.5-2.6
		c3.3,0,5.9,1.1,8,3.2c2.1,2.1,3.1,5.1,3.1,8.9c0,3.1-0.5,5.5-1.4,7.2c-0.9,1.8-2.2,3.1-4,4.1c-1.8,1-3.7,1.4-5.7,1.4
		c-3.3,0-6-1.1-8.1-3.2C468.1,337.5,467.1,334.4,467.1,330.4L467.1,330.4z M471.2,330.4c0,3.1,0.7,5.3,2,6.8c1.3,1.5,3,2.3,5,2.3
		c2,0,3.7-0.8,5-2.3c1.3-1.5,2-3.8,2-7c0-2.9-0.7-5.2-2-6.7c-1.3-1.5-3-2.3-5-2.3c-2,0-3.7,0.8-5,2.3
		C471.9,325.1,471.2,327.4,471.2,330.4L471.2,330.4z"/>
</g>
</svg>
