<?xml version="1.0" encoding="utf-8"?>
<!-- Generator: Adobe Illustrator 19.0.1, SVG Export Plug-In . SVG Version: 6.00 Build 0)  -->
<!DOCTYPE svg PUBLIC "-//W3C//DTD SVG 1.1//EN" "http://www.w3.org/Graphics/SVG/1.1/DTD/svg11.dtd">
<svg version="1.1" id="Layer_1" xmlns="http://www.w3.org/2000/svg" xmlns:xlink="http://www.w3.org/1999/xlink" x="0px" y="0px"
	 viewBox="-72 219.5 645.3 174.5" style="enable-background:new -72 219.5 645.3 174.5;" xml:space="preserve">
<style type="text/css">
	.st0{clip-path:url(#SVGID_2_);fill:#003087;}
	.st1{fill:#009CDE;}
	.st2{fill:#003087;}
	.st3{fill:#012169;}
</style>
<g>
	<defs>
		<rect id="SVGID_1_" x="-53.4" y="227.5" width="609.7" height="157"/>
	</defs>
	<clipPath id="SVGID_2_">
		<use xlink:href="#SVGID_1_"  style="overflow:visible;"/>
	</clipPath>
	<path class="st0" d="M58.1,239.2C51,231,38,227.5,21.5,227.5h-48c-3.4,0-6.3,2.5-6.8,5.8l-20,126.9c-0.4,2.5,1.5,4.8,4.1,4.8h29.7
		l7.5-47.2l-0.2,1.5c0.5-3.3,3.4-5.8,6.8-5.8H8.5c27.7,0,49.4-11.3,55.7-43.8c0.2-1,0.3-1.9,0.5-2.8
		C66.5,254.8,64.6,246.6,58.1,239.2"/>
</g>
<path class="st1" d="M421.2,299.5c-1.8,11.9-10.9,11.9-19.7,11.9h-5l3.5-22.2c0.2-1.3,1.4-2.3,2.7-2.3h2.3c6,0,11.6,0,14.6,3.4
	C421.4,292.3,421.9,295.4,421.2,299.5 M417.4,268.5h-33.2c-2.3,0-4.2,1.7-4.6,3.9l-13.4,85c-0.3,1.7,1,3.2,2.7,3.2h17
	c1.6,0,2.9-1.2,3.2-2.7l3.8-24.1c0.4-2.2,2.3-3.9,4.5-3.9h10.5c21.8,0,34.5-10.6,37.8-31.5c1.5-9.2,0.1-16.4-4.2-21.4
	C436.9,271.4,428.5,268.5,417.4,268.5"/>
<path class="st2" d="M184.7,299.5c-1.8,11.9-10.9,11.9-19.7,11.9h-5l3.5-22.2c0.2-1.3,1.4-2.3,2.7-2.3h2.3c6,0,11.6,0,14.5,3.4
	C184.8,292.3,185.3,295.4,184.7,299.5 M180.9,268.5h-33.2c-2.3,0-4.2,1.7-4.6,3.9l-13.4,85c-0.3,1.7,1,3.2,2.7,3.2h15.8
	c2.3,0,4.2-1.6,4.6-3.9l3.6-23c0.4-2.2,2.3-3.9,4.6-3.9h10.5c21.8,0,34.5-10.6,37.8-31.5c1.5-9.2,0.1-16.4-4.2-21.4
	C200.3,271.4,192,268.5,180.9,268.5"/>
<path class="st2" d="M257.9,330.1c-1.5,9.1-8.7,15.2-17.9,15.2c-4.6,0-8.3-1.5-10.7-4.3c-2.4-2.8-3.2-6.7-2.5-11.1
	c1.4-9,8.8-15.3,17.8-15.3c4.5,0,8.2,1.5,10.6,4.3C257.6,321.7,258.6,325.7,257.9,330.1 M280,299.1h-15.9c-1.4,0-2.5,1-2.7,2.3
	l-0.7,4.4l-1.1-1.6c-3.4-5-11.1-6.7-18.8-6.7c-17.5,0-32.5,13.3-35.5,32c-1.5,9.3,0.6,18.2,5.9,24.4c4.8,5.7,11.8,8.1,20,8.1
	c14.1,0,22-9.1,22-9.1l-0.7,4.4c-0.3,1.7,1,3.2,2.7,3.2h14.3c2.3,0,4.2-1.6,4.6-3.9l8.6-54.4C283,300.7,281.7,299.1,280,299.1"/>
<path class="st1" d="M494.4,330.1c-1.5,9.1-8.7,15.2-17.9,15.2c-4.6,0-8.3-1.5-10.7-4.3c-2.4-2.8-3.2-6.7-2.5-11.1
	c1.4-9,8.7-15.3,17.8-15.3c4.5,0,8.2,1.5,10.6,4.3C494.1,321.7,495.1,325.7,494.4,330.1 M516.5,299.1h-15.9c-1.4,0-2.5,1-2.7,2.3
	l-0.7,4.4l-1.1-1.6c-3.4-5-11.1-6.7-18.8-6.7c-17.5,0-32.5,13.3-35.4,32c-1.5,9.3,0.6,18.2,5.9,24.4c4.8,5.7,11.8,8.1,20,8.1
	c14.1,0,22-9.1,22-9.1l-0.7,4.4c-0.3,1.7,1,3.2,2.7,3.2h14.3c2.3,0,4.2-1.6,4.6-3.9l8.6-54.4C519.5,300.7,518.2,299.1,516.5,299.1"
	/>
<path class="st2" d="M364.6,299.1h-16c-1.5,0-2.9,0.8-3.8,2l-22,32.4l-9.3-31.2c-0.6-2-2.4-3.3-4.4-3.3h-15.7
	c-1.9,0-3.2,1.9-2.6,3.7l17.6,51.6l-16.5,23.3c-1.3,1.8,0,4.4,2.3,4.4H310c1.5,0,2.9-0.7,3.8-2l53.1-76.6
	C368.1,301.7,366.8,299.1,364.6,299.1"/>
<path class="st1" d="M535.3,270.8l-13.6,86.6c-0.3,1.7,1,3.2,2.7,3.2h13.7c2.3,0,4.2-1.6,4.5-3.9l13.4-85c0.3-1.7-1-3.2-2.7-3.2H538
	C536.6,268.5,535.5,269.5,535.3,270.8"/>
<path class="st2" d="M58.1,239.2C51,231,38,227.5,21.5,227.5h-48c-3.4,0-6.3,2.5-6.8,5.8l-20,126.9c-0.4,2.5,1.5,4.8,4.1,4.8h29.7
	l7.5-47.2l-0.2,1.5c0.5-3.3,3.4-5.8,6.8-5.8H8.5c27.7,0,49.4-11.3,55.7-43.8c0.2-1,0.3-1.9,0.5-2.8
	C66.5,254.8,64.6,246.6,58.1,239.2"/>
<path class="st2" d="M-4.2,266.9c0.3-2,1.6-3.6,3.3-4.5c0.8-0.4,1.7-0.6,2.6-0.6h37.7c4.5,0,8.6,0.3,12.4,0.9
	c1.1,0.2,2.2,0.4,3.2,0.6c1,0.2,2,0.5,3,0.8c0.5,0.1,1,0.3,1.4,0.4c1.9,0.6,3.6,1.3,5.2,2.2c1.9-12,0-20.2-6.5-27.6
	c-7.2-8.2-20.1-11.7-36.7-11.7h-48c-3.4,0-6.3,2.5-6.8,5.8l-20,126.9c-0.4,2.5,1.5,4.8,4.1,4.8h29.7l7.4-47.2L-4.2,266.9z"/>
<path class="st1" d="M64.7,266.8c-0.2,0.9-0.3,1.8-0.5,2.8c-6.3,32.5-28,43.8-55.7,43.8H-5.6c-3.4,0-6.2,2.5-6.8,5.8l-7.2,45.8
	l-2.1,13c-0.4,2.2,1.3,4.2,3.6,4.2h25c3,0,5.5-2.2,5.9-5.1l0.2-1.3l4.7-29.9l0.3-1.6c0.5-2.9,3-5.1,5.9-5.1h3.7
	c24.2,0,43.2-9.8,48.7-38.3c2.3-11.9,1.1-21.8-5-28.8C69.7,269.9,67.3,268.2,64.7,266.8"/>
<path class="st3" d="M58,264.1c-1-0.3-2-0.5-3-0.8c-1-0.2-2.1-0.4-3.2-0.6c-3.8-0.6-8-0.9-12.4-0.9H1.8c-0.9,0-1.8,0.2-2.6,0.6
	c-1.7,0.8-3,2.5-3.3,4.5l-8,50.8l-0.2,1.5c0.5-3.3,3.4-5.8,6.8-5.8H8.5c27.7,0,49.4-11.3,55.7-43.8c0.2-1,0.3-1.9,0.5-2.8
	c-1.6-0.9-3.3-1.6-5.2-2.2C59,264.4,58.5,264.3,58,264.1"/>
</svg>
