<?xml version="1.0" encoding="utf-8"?>
<!-- Generator: Adobe Illustrator 19.1.0, SVG Export Plug-In . SVG Version: 6.00 Build 0)  -->
<svg version="1.0" id="Layer_1" xmlns="http://www.w3.org/2000/svg" xmlns:xlink="http://www.w3.org/1999/xlink" x="0px" y="0px"
	 viewBox="0 0 645.3 174.5" enable-background="new 0 0 645.3 174.5" xml:space="preserve">
<g>
	<path fill="#EE2C42" d="M66.2,33.9c0,14.5,24.3,30.6,24.3,47.1c0,0,0,1.6-0.7,3.3c22.7,4.8,38.8,16.1,38.8,29.3
		c0,17.8-28.7,32.5-64.2,32.5C28.1,146.1,0,131.7,0,114.3c0-13.2,17.4-24,38.4-29.6c0,7.3,23.9,30.4,24.5,39.8c0.1,1.1,0.3,2,0,3.1
		c5.2-2.7,5.2-11.3,5.2-11.3C68.1,96,44.8,87,44.8,67c0-7.8,3.6-13.5,6.9-15v5.6c0,14.5,25.2,30.7,25.2,43.9v4.3
		c5.9-2.3,5.9-13.1,5.9-13.1c0-18.2-23.4-28.4-23.4-49.3c0-7.7,3.6-13.4,6.9-15.1V33.9z"/>
	<path fill="#EE2C42" d="M179.6,140.5c-12.2,0-21.1-3.5-21.1-3.5v-21.5h3c1.6,11.4,10.1,20,19.9,20c9.8,0,16.6-5.5,16.6-14.1
		c0-9.2-9.1-13.4-15.2-16.5l-8.8-4.4c-8.3-4.2-15-11.1-15-20.6c0-12,8.8-22.2,25.5-22.2c11.5,0,20.9,3.9,20.9,3.9v19.2h-3
		c-1.8-10.3-7.4-18.3-18.9-18.3c-8.5,0-13.6,5.9-13.6,12c0,7.9,5.4,11.4,11.7,14.6l8.8,4.4c8,4.1,17.9,10.9,17.9,22.6
		C208.2,130.7,198.1,140.5,179.6,140.5"/>
	<path fill="#EE2C42" d="M236.2,117.1c-2.4,1-6.5,3-6.5,8.4c0,3,1.7,7.8,7.5,7.8c2.8,0,6.7-1.6,9.5-3.9v-16.9L236.2,117.1z
		 M231.6,140.1c-7.6,0-12.6-5.1-12.6-12.8c0-5.5,3.9-9.7,12.6-12.9l15.2-5.6v-4.8c0-7.2-3.3-11.6-8.2-11.6c-3.4,0-6.7,1.7-8.4,4.4
		c-0.7,1-0.8,2.5-0.8,3.6c0,1.9,1.2,4.2,1.2,4.2l-7.4,3.4c-0.9-1.6-2-4-2-6.4c0-0.4,0.1-0.9,0.1-1.3c0.6-4.1,4-6.8,8.8-9.7
		c4.6-2.8,8.5-3.7,11.3-3.7c14.2,0,16.6,11.4,16.6,15.2v23.6c0,3.8,0.3,6.2,3.4,6.2c0.9,0,1.5,0,2.7-0.5l2.7-0.9v3.4l-15.7,5.9
		c-2.4-1.7-3.5-4.8-3.9-7.4C243.4,135.9,237,140.1,231.6,140.1"/>
	<path fill="#EE2C42" d="M270.2,138.9v-2.7l3.7-0.7c2.2-0.5,3.8-2.2,3.8-4.4v-30.4c0-2.6-1.2-4-3.5-4c-0.8,0-1.7,0.1-2.6,0.5
		l-1.5,0.6v-3.4l16.2-7.1h2.4v8.4c4.9-5.6,10.8-8.4,15.9-8.4c11.5,0,17,8.3,17,18v25.9c0,2.3,1.7,4.1,3.9,4.4l3.8,0.7v2.7h-26.7
		v-2.7l3.7-0.7c2.2-0.5,4-2.2,4-4.4v-25.7c0-3.4-0.9-11.1-9.9-11.1c-4.9,0-9.1,3.1-11.6,5.4v31.4c0,2.3,1.8,4,4,4.4l3.7,0.7v2.7
		H270.2z"/>
	<path fill="#EE2C42" d="M368.2,94.2h-15.7v28.3c0,6.3,3.3,9.7,8,9.7c1.9,0,4.9-0.6,7.8-2.2l1.2,2.7l-10.1,6.5c0,0-2,0.3-3,0.3
		c-9.8,0-15.1-5.8-15.1-18.1V94.2H333v-2.8c0,0,12.4-4.8,17.2-16.5h2.2v14.5h17.7L368.2,94.2z"/>
	<path fill="#EE2C42" d="M391.7,117.1c-2.4,1-6.5,3-6.5,8.4c0,3,1.7,7.8,7.5,7.8c2.8,0,6.7-1.6,9.5-3.9v-16.9L391.7,117.1z
		 M387.1,140.1c-7.6,0-12.6-5.1-12.6-12.8c0-5.5,3.9-9.7,12.6-12.9l15.2-5.6v-4.8c0-7.2-3.3-11.6-8.2-11.6c-3.4,0-6.7,1.7-8.4,4.4
		c-0.7,1-0.8,2.5-0.8,3.6c0,1.9,1.2,4.2,1.2,4.2l-7.4,3.4c-0.9-1.6-2-4-2-6.4c0-0.4,0.1-0.9,0.1-1.3c0.6-4.1,4-6.8,8.8-9.7
		c4.6-2.8,8.5-3.7,11.3-3.7c14.2,0,16.6,11.4,16.6,15.2v23.6c0,3.8,0.3,6.2,3.4,6.2c0.9,0,1.5,0,2.7-0.5l2.7-0.9v3.4l-15.7,5.9
		c-2.4-1.7-3.5-4.8-3.9-7.4C398.9,135.9,392.5,140.1,387.1,140.1"/>
	<path fill="#EE2C42" d="M425.8,138.9v-2.7l3.7-0.7c2.2-0.5,3.8-2.2,3.8-4.4v-30.4c0-2.6-1.2-4-3.5-4c-0.8,0-1.7,0.1-2.6,0.5
		l-1.5,0.6v-3.4l16.2-7.1h2.4v8.4c4.9-5.6,10.8-8.4,15.9-8.4c11.5,0,17,8.3,17,18v25.9c0,2.3,1.7,4.1,3.9,4.4l3.8,0.7v2.7h-26.7
		v-2.7l3.7-0.7c2.2-0.5,4-2.2,4-4.4v-25.7c0-3.4-0.9-11.1-9.9-11.1c-4.9,0-9.1,3.1-11.6,5.4v31.4c0,2.3,1.8,4,4,4.4l3.7,0.7v2.7
		H425.8z"/>
	<path fill="#EE2C42" d="M518.5,92c-8.1,0-16.4,5.2-16.4,20.5c0,12.8,6.3,20.5,16.2,20.5c6,0,9.7-3.5,10.6-5.4V98
		C527.4,94.3,523.3,92,518.5,92 M513.5,140.1c-10.6,0-23.3-8-23.3-25.3c0-15.2,11.6-27.6,27.1-27.6c5.2,0,8.9,1,11.6,2.2V63.3
		c0-2.7-1.5-3.5-3.3-3.5c-1,0-2.1,0.2-3.1,0.6l-2.2,0.8v-3.4l17.5-7.5h2.4v75.1c0,4.3,0.7,6.8,3.7,6.8c0.9,0,1.5,0,2.7-0.5l2.7-0.9
		v3.4l-15.7,5.9c-2.5-1.7-3.7-4.9-4.3-7.5C526.3,135.7,521,140.1,513.5,140.1"/>
	<path fill="#EE2C42" d="M588.6,104.9v-0.2c0-8.5-4.7-12.7-10.3-12.7c-6.3,0-11,4.2-12.4,12.9H588.6z M565.6,109.5v0.6
		c-0.1,15.2,8.4,22.8,19.1,22.8c5.4,0,10.3-2.1,14.3-5.1v4.6c-4.5,4.2-11.3,7.7-19.8,7.7c-17.5,0-25.3-13.3-25.3-26
		c0-14.8,11.1-26.9,25.5-26.9c11.8,0,21,8.4,21,20.9v1.5H565.6z"/>
	<path fill="#EE2C42" d="M607,138.9v-2.7l3.7-0.7c2.1-0.5,3.8-2.2,3.8-4.4v-30.4c0-2.6-1.2-4-3.5-4c-0.8,0-1.7,0.1-2.6,0.5l-1.5,0.6
		v-3.4l15.9-7.1h2.4v11.1c4-8,8.9-11.3,14.4-11.3c4.5,0,5.6,1.1,5.6,1.1v12.1h-2.2c-0.6-3.2-2.7-4.8-6.1-4.8c-3.6,0-8.1,1-11.2,7.6
		v28c0,2.3,2.2,4.1,4.4,4.4l5.4,0.7v2.7H607z"/>
</g>
</svg>
