<?xml version="1.0" encoding="utf-8"?>
<!-- Generator: Adobe Illustrator 19.1.0, SVG Export Plug-In . SVG Version: 6.00 Build 0)  -->
<svg version="1.0" id="Layer_1" xmlns="http://www.w3.org/2000/svg" xmlns:xlink="http://www.w3.org/1999/xlink" x="0px" y="0px"
	 viewBox="-156 150.8 645.3 261.2" enable-background="new -156 150.8 645.3 261.2" xml:space="preserve">
<g>
	<path fill="#D13239" d="M-132.8,281c-3.6-5.7-4.5-13.6-4.5-19.5c0-20.3,18.1-37.7,37-37.7h59.4L-63.7,247h-36.8
		C-115.2,247-133.4,262-132.8,281L-132.8,281z M-110.2,264.3c1.4-4.8,6.2-11,10.7-14.5c-8.5,0-18.1,4.3-25.8,14.5H-110.2
		L-110.2,264.3z M-98.3,252.7c-3.4,3.1-7.1,7.6-9.1,11.6h17.9C-91.3,260.3-94.9,255.8-98.3,252.7L-98.3,252.7z M-126.6,267.4
		c-2.2,4-3.1,8.5-3.6,13.1h16.7c0-4.5,0.9-9.1,2.2-13.1H-126.6L-126.6,267.4z M-108.5,267.4c-1.4,4-2,8.5-2.6,13.1h25.5
		c-0.5-4.5-1.2-9.1-2.8-13.1H-108.5L-108.5,267.4z M-72,264.3c-7.1-10.2-16.7-14.5-25.2-14.5c4.5,3.4,8.8,9.6,10.7,14.5H-72
		L-72,264.3z M-85.3,267.4c1.4,4,2.2,8.5,2.2,13.1h16.7c-0.3-4.5-1.4-9.1-3.6-13.1H-85.3L-85.3,267.4z M-125.2,298.5
		c7.6,10.7,17.2,14.5,25.8,14.5c-4.5-3.4-9.3-9.6-10.7-14.5H-125.2L-125.2,298.5z M-98.3,310.4c3.4-2.8,7.1-7.6,8.8-11.9h-17.8
		C-105.4,302.8-101.6,307.6-98.3,310.4L-98.3,310.4z M-111.3,296c-1.4-4.5-2.2-9.1-2.2-13.1h-16.7c0.5,4.5,1.4,8.8,3.6,13.1H-111.3
		L-111.3,296z M-88.4,296c1.7-4.3,2.2-8.5,2.8-13.1h-25.5c0.5,4.5,1.2,8.8,2.6,13.1H-88.4L-88.4,296z M-86.4,298.5
		c-2,4.8-6.2,11-10.7,14.5c8.5,0,18.1-3.6,25.2-14.5H-86.4L-86.4,298.5z M-70,296c2.2-4.3,3.4-8.5,3.6-13.1H-83
		c0,4-0.9,8.5-2.2,13.1H-70L-70,296z M-63.7,281.5c0.2,19.6-17.6,34.6-32.3,34.6h-36.7L-156,339h59.4c18.9,0,37.4-17,37.4-37.4
		c0-6-0.9-13.9-4.5-19.8L-63.7,281.5L-63.7,281.5z"/>
	<path fill="#D13239" d="M110,313c-15.5,0-26.7-9.3-26.7-23.8c0-14.5,11.6-23.8,26.7-23.8c15,0,26.7,9.3,26.7,23.8
		C136.6,303.7,125.3,313,110,313L110,313z M374,266.5v45.6h-15.3l-0.3-4.8h-0.3c-1.7,1.7-5.4,5.7-15.3,5.7c-11,0-20.7-9.6-20.7-23.8
		c0-13.3,8.5-23.8,21.8-23.8c8.8,0,12.4,4,13.9,5.1h0.3l0.3-4H374V266.5z M255.1,266.5v45.6h-15.5v-4.8h-0.3
		c-2,1.7-5.4,5.7-15.3,5.7c-11,0-20.7-9.6-20.7-23.8c0-13.3,8.5-23.8,21.5-23.8c9.1,0,12.7,4,14.1,5.1h0.3l0.3-4h15.5V266.5z
		 M180.2,266.5h16.2v45.6h-16.2V266.5L180.2,266.5z M265.3,312.1v-64.5h15.8v22h0.3c1.2-0.5,6.2-4.3,13.6-4.3
		c12.4,0,21.5,10,21.5,22.9c0,16.4-10.2,24.6-21.5,24.6c-8.8,0-13.1-4-14.1-5.1h-0.3l-0.3,4.3h-15V312.1z M110,301.6
		c6.5,0,10.2-5.7,10.2-12.4s-3.6-12.4-10.2-12.4c-6.7,0-10.2,5.7-10.2,12.4S103.4,301.6,110,301.6L110,301.6z M172.5,299.7
		c-0.5,0.3-2.8,0.9-4.3,0.9c-3.4,0-6.7-1.7-6.7-7.1V278h10v-11.3h-10v-14.8h-15.8v14.7h-7.1v11.3h7.1V296c0,10,4.5,17,16.4,17
		c3.4,0,6.5-0.5,8.5-0.9L172.5,299.7L172.5,299.7z M-7.8,310.4c4.3,1.4,11,2.6,18.4,2.6c13.3,0,26.9-4.8,26.9-19.8
		c0-20.3-28-17.6-28-25.5c0-4.3,4.3-5.1,8.5-5.1c6,0,13.3,2.8,15,3.4l1.2-14.1c-4-1.4-10.2-2-16.2-2c-13.3,0-26.7,5.1-26.7,18.4
		c0,20.1,28,15.8,28,26.3c0,4-4,5.7-9.1,5.7c-7.1,0-13.9-3.6-16.7-4.8L-7.8,310.4L-7.8,310.4z M338.9,288.7c0,7.6,4.3,12.4,10,12.4
		c4.8,0,9.6-4.8,9.6-11.6c0-7.1-4.3-11.9-9.6-11.9C342.9,277.5,338.9,282.4,338.9,288.7L338.9,288.7z M220,288.9
		c0,7.4,4.3,12.2,9.6,12.2c5.1,0,10-4.5,10-11.6c0-7.1-4.3-11.9-10-11.9C224,277.7,220,282.7,220,288.9L220,288.9z M79.5,267.2
		c-1.2-0.3-5.7-1.7-11.3-1.7c-14.1,0-24.9,8.8-24.9,23.8c0,13.6,9.6,23.8,24.3,23.8c6.2,0,10.7-1.7,11.9-2l-0.9-13.3
		c-1.2,0.5-4.3,2.2-7.9,2.2c-6.5,0-11-4.5-11-10.7c0-6.7,4.8-11,11.3-11c3.4,0,6.5,1.7,7.6,2.2L79.5,267.2L79.5,267.2z M441.7,312.1
		h15.8v-21.2h0.3l13.9,21.2h17.6l-16.7-24.3l16.4-21.2h-17.6l-13.6,18.6h-0.3v-37.4h-15.8V312.1L441.7,312.1z M384.2,312.1h15.5
		v-23.8c0-5.4,3.6-9.1,8.2-9.1c5.4,0,8.5,3.4,8.5,9.1v23.8h15.5v-27.4c0-10.5-6.7-19.3-18.9-19.3c-8.2,0-12.4,4.5-14.5,6.2h-0.3
		v-5.1h-14.1v45.6H384.2z M188.3,243.4c-5.1,0-9.1,4-9.1,9.1c0,4.8,4,8.8,9.1,8.8c4.8,0,8.8-4,8.8-8.8
		C197.1,247.4,193.1,243.4,188.3,243.4L188.3,243.4z M300.2,289.2c0-6.2-3.4-11.6-9.6-11.6c-5.4,0-9.6,4.5-9.6,11.6
		c0,6.7,3.6,11.6,9.6,11.6C296.2,300.8,300.2,296.3,300.2,289.2L300.2,289.2z"/>
</g>
</svg>
